<?xml version="1.0" encoding="utf-8"?>
<!-- Generator: Adobe Illustrator 21.0.0, SVG Export Plug-In . SVG Version: 6.00 Build 0)  -->
<svg version="1.1" id="Layer_2" xmlns="http://www.w3.org/2000/svg" xmlns:xlink="http://www.w3.org/1999/xlink" x="0px" y="0px"
	 viewBox="0 0 600 600" style="enable-background:new 0 0 600 600;" xml:space="preserve">
<style type="text/css">
	.st0{display:none;fill:#2459A5;}
	.st1{fill:#010101;}
</style>
<g>
	<rect x="43.6" y="43.6" class="st0" width="512.8" height="512.8"/>
	<g>
		<path class="st1" d="M309.5,509.5c4.4-5.1,9.5-10.3,12.5-13.9c6.6-6.6,13.2-6.6,13.2-6.6s-8.1-3.7-16.1,4.4
			c-2.2,2.2-7.3,8.1-12.5,13.2c-1.5-2.2-3.7-4.4-5.1-5.9c2.2-2.2,3.7-3.7,5.1-5.1c6.6-6.6,13.2-6.6,13.2-6.6s-8.1-3.7-16.1,4.4
			c-0.7,0.7-2.9,2.9-4.4,5.1c-2.2-2.2-3.7-3.7-4.4-5.1c-8.1-8.1-16.1-4.4-16.1-4.4s6.6,0,13.2,6.6c1.5,1.5,2.9,3.7,5.1,5.1
			c-1.5,2.2-3.7,3.7-5.1,5.9c-5.1-5.9-10.3-11-12.5-13.2c-8.1-8.1-16.1-4.4-16.1-4.4s6.6,0,13.2,6.6c3.7,3.7,8.1,8.8,12.5,13.9
			c-4.4,4.4-8.1,9.5-10.3,11.7c-4.4,5.9-11,5.9-11,5.9s6.6,4.4,16.1-5.9c1.5-1.5,5.1-5.1,8.1-9.5c2.2,2.2,3.7,4.4,5.1,5.9
			c-1.5,1.5-2.2,2.2-2.9,2.9c-5.1,6.6-11,6.6-11,6.6s6.6,3.7,16.1-5.9l0.7-0.7l0.7,0.7c9.5,9.5,16.1,5.9,16.1,5.9s-6.6-0.7-11.7-5.9
			c-0.7-0.7-1.5-1.5-2.9-2.9c1.5-1.5,3.7-3.7,5.1-5.9c3.7,3.7,6.6,7.3,8.1,9.5c9.5,9.5,16.1,5.9,16.1,5.9s-6.6-0.7-11.7-5.9
			C318.3,519,313.9,514.6,309.5,509.5z M300,516.1c-1.5-1.5-3.7-3.7-5.1-5.9c1.5-2.2,3.7-4.4,5.1-5.9c1.5,2.2,3.7,3.7,5.1,5.9
			C303.7,511.7,301.5,513.9,300,516.1z"/>
		<path class="st1" d="M127.8,226c0.7,2.9,3.7,5.1,8.1,5.1c0.7,0,2.2,0,2.9-0.7c0,0,0,0.7,0.7,0.7c0.7,0.7,1.5,1.5,2.2,2.2h0.7
			c0.7,0,0.7,0,1.5-0.7c0.7-0.7,0-1.5,0-2.2c-0.7,0-0.7-0.7-1.5-1.5l0,0c1.5-0.7,2.9-2.2,3.7-3.7c0.7-1.5,1.5-3.7,0.7-5.9
			c-0.7-1.5-2.2-2.2-2.9-2.2l0,0c0-0.7,0-0.7,0-1.5c-1.5-4.4-5.1-8.1-8.1-7.3c0,0-0.7-0.7-1.5-0.7s-0.7,0.7-1.5,1.5
			c-0.7,0.7-1.5,1.5-2.2,2.2c-1.5,2.2-1.5,5.9-0.7,8.8c0,0.7,0,0.7,0.7,1.5l0,0C127.8,223.1,127.1,224.5,127.8,226z M142.5,222.3
			c0,0.7,0,2.2-0.7,2.9c-0.7,1.5-2.2,2.9-4.4,2.9c-0.7,0-1.5,0.7-2.2,0.7c-2.2,0-3.7-0.7-5.1-2.9c0.7,0,1.5,0,2.2,0
			c1.5,0,2.9,0,4.4-0.7C139.6,224.5,141,223.8,142.5,222.3z M131.5,213.6c0-0.7,0.7-0.7,0.7-0.7s0.7,0,0.7-0.7h0.7
			c1.5,0,4.4,2.2,5.1,5.9c0.7,1.5,0.7,2.2,0.7,3.7c-0.7,0.7-2.2,1.5-2.9,1.5c-0.7,0-2.2,0.7-3.7,0.7l0,0c-0.7-0.7-1.5-2.2-1.5-2.9
			C130,218,130.8,215,131.5,213.6z"/>
		<path class="st1" d="M159.3,249.5c2.2,0,2.9-1.5,2.9-2.2l0,0h0.7l0,0c2.9,0,5.9-1.5,8.1-3.7c0.7-0.7,1.5-1.5,1.5-2.2
			c0,0,0.7-0.7,0.7-1.5s-0.7-1.5-0.7-1.5c-0.7-2.9-5.1-5.1-9.5-5.1c-0.7,0-0.7,0-1.5,0l0,0c0-0.7-1.5-2.2-2.9-2.2l0,0
			c-2.2,0-4.4,0.7-5.9,2.9c-0.7,0.7-1.5,2.2-1.5,3.7l0,0c-0.7,0-1.5-0.7-1.5-0.7c-0.7-0.7-1.5,0-2.2,0c-0.7,0.7,0,1.5,0,2.2
			c0.7,0.7,1.5,0.7,2.2,1.5h0.7C152,245.8,155,249.5,159.3,249.5L159.3,249.5z M163.7,235.5c3.7,0,6.6,2.2,7.3,3.7v0.7v0.7
			c0,0,0,0.7-0.7,1.5c-0.7,1.5-3.7,2.2-5.9,2.2c-1.5,0-2.2,0-3.7-0.7c0-0.7-0.7-2.2-0.7-3.7s0-2.9,0.7-3.7
			C161.5,236.3,163,235.5,163.7,235.5z M154.2,239.9c0-1.5,0.7-3.7,1.5-4.4c0.7-0.7,1.5-1.5,2.9-1.5c-0.7,1.5-1.5,3.7-1.5,6.6
			c0,2.2,0.7,4.4,1.5,6.6C156.4,245.8,154.2,243.6,154.2,239.9z"/>
		<path class="st1" d="M144.7,316.8c0-0.7,0-2.2,0-2.9c0-0.7,0.7-0.7,0-1.5c-0.7-0.7-0.7-0.7-1.5-0.7c-2.2-2.2-7.3-2.2-11,0
			c-0.7,0-0.7,0.7-1.5,0.7l0,0c0,0-0.7-0.7-2.2-0.7c-0.7,0-1.5,0-2.2,0.7c-2.2,1.5-2.9,2.9-3.7,5.1c0,1.5,0,2.9,0.7,3.7l0,0
			c-0.7,0-1.5,0-2.2,0s-1.5,0.7-1.5,1.5c0,0.7,0.7,1.5,1.5,1.5h0.7c0.7,0,1.5,0,1.5,0h0.7c1.5,2.9,4.4,5.1,7.3,5.1
			c1.5,0,2.9,0,3.7-0.7c1.5-0.7,1.5-2.2,1.5-2.9l0,0c0.7,0,0.7-0.7,1.5-0.7C141.8,322,144,319,144.7,316.8z M133.7,313.9
			c2.9-2.2,7.3-1.5,7.3-0.7c0,0,0,0.7,0.7,0.7v0.7c0,0,0,0.7,0,1.5c-0.7,1.5-1.5,3.7-4.4,5.1c-0.7,0.7-1.5,0.7-2.9,0.7
			c-0.7-0.7-1.5-1.5-2.2-2.9c-0.7-1.5-1.5-2.2-1.5-3.7C131.5,315.4,132.2,314.7,133.7,313.9z M127.1,322c-0.7-1.5-1.5-2.9-1.5-4.4
			c0-0.7,0.7-2.2,1.5-2.9c0,1.5,0.7,4.4,2.2,6.6c1.5,2.2,2.9,3.7,4.4,4.4C132.2,326.4,129.3,324.9,127.1,322z"/>
		<path class="st1" d="M96.3,319l0.7,0.7l0,0c0,0.7-0.7,2.2,0.7,3.7c1.5,1.5,2.9,2.2,5.1,2.2l0,0c2.2,0,5.1-1.5,6.6-2.9
			c0,0,0.7,0,0.7,0.7c0.7,0.7,1.5,0.7,2.9,0.7l0,0c0.7,0,1.5-0.7,1.5-1.5c0-0.7-0.7-1.5-1.5-1.5c-0.7,0-1.5,0-1.5-0.7l0,0
			c0.7-1.5,1.5-2.9,1.5-4.4c0-2.2-0.7-3.7-2.2-5.1c-0.7-0.7-1.5-0.7-2.2-0.7s-1.5,0-1.5,0l0,0l-0.7-0.7c-4.4-3.7-9.5-4.4-11.7-2.9
			c-0.7,0-1.5,0-1.5,0.7c-0.7,0.7-0.7,1.5,0,1.5c-0.7,0.7-0.7,1.5-0.7,2.9C92.7,313.9,94.2,317.6,96.3,319z M110.3,316.1
			c0,1.5-0.7,3.7-2.2,5.1c-1.5,1.5-2.9,2.2-5.1,2.2l0,0c-0.7,0-1.5,0-2.2-0.7c1.5-0.7,3.7-2.2,5.1-3.7c1.5-1.5,2.9-3.7,2.9-5.9
			C109.5,313.9,110.3,314.7,110.3,316.1z M95.6,310.3C95.6,310.3,95.6,309.5,95.6,310.3c0.7-0.7,0.7-0.7,0.7-0.7
			c0.7-0.7,4.4,0,7.3,2.2c0.7,0.7,1.5,1.5,2.2,2.9c-0.7,0.7-0.7,2.2-2.2,2.9c-0.7,0.7-2.2,1.5-2.9,2.2c-0.7-0.7-2.2-0.7-2.9-2.2
			c-1.5-2.2-2.9-4.4-2.9-5.9C94.9,311,94.9,310.3,95.6,310.3z"/>
		<path class="st1" d="M156.4,394.5c0-0.7-0.7-2.2-1.5-2.2c0-0.7,0-0.7-0.7-1.5c-0.7-0.7-1.5,0-1.5,0c-2.9-0.7-7.3,1.5-9.5,5.9
			c0,0.7-0.7,0.7-0.7,1.5l0,0c0,0,0,0-0.7,0c-1.5,0-2.2,0.7-2.9,1.5c-1.5,2.9-0.7,6.6,1.5,9.5l0,0c0,0-0.7,0.7-1.5,0.7
			c-0.7,0-0.7,1.5-0.7,1.5c0,0.7,0.7,0.7,1.5,0.7c0,0,0,0,0.7,0c0.7,0,1.5-0.7,2.2-1.5l0.7-0.7c1.5,0.7,3.7,1.5,5.1,1.5
			c2.9,0,5.1-1.5,6.6-3.7c0.7-1.5,0.7-2.9,0-3.7l0,0c0-0.7,0.7-0.7,0.7-1.5C156.4,400.4,157.2,397.4,156.4,394.5z M145.4,397.4
			c2.2-2.9,5.1-5.1,6.6-4.4h0.7c0,0,0,0.7,0.7,0.7c0,0,0.7,0.7,0.7,1.5c0.7,1.5,0,4.4-0.7,6.6c-0.7,0.7-1.5,2.2-2.2,2.9
			c-0.7,0-2.2-0.7-3.7-1.5c-1.5-0.7-2.2-1.5-2.9-2.2C144.7,399.6,144.7,398.9,145.4,397.4z M144,407.7c-2.2-1.5-4.4-4.4-3.7-6.6
			c0.7,1.5,2.9,3.7,4.4,4.4c2.2,1.5,4.4,2.2,6.6,1.5C150.6,409.2,146.9,409.9,144,407.7z"/>
		<path class="st1" d="M133,414.3c0-0.7-1.5-0.7-2.2-0.7c-0.7,0-1.5,0.7-1.5,0.7l0,0c0-1.5,0-2.9-0.7-3.7c-0.7-2.2-2.9-3.7-5.1-4.4
			c-1.5-0.7-2.9,0.7-3.7,1.5l0,0c-0.7,0-0.7,0-1.5-0.7c-3.7-1.5-8.8,0-10.3,2.9c-0.7,0-0.7,0.7-1.5,1.5c0,0.7,0,1.5,0.7,1.5
			c0,0.7,0,1.5,0.7,2.9c1.5,2.2,4.4,4.4,7.3,5.1c0.7,0,0.7,0,1.5,0l0,0c0,0.7,0.7,2.2,2.9,2.9c0.7,0,1.5,0,1.5,0l0,0
			c3.7,0,6.6-2.9,8.1-7.3l0,0h0.7c0.7,0,2.2,0,2.9-0.7C133,415.7,133.7,415,133,414.3z M110.3,413.5c-0.7-0.7-0.7-0.7-0.7-1.5v-0.7
			v-0.7c0-1.5,3.7-2.9,7.3-1.5c1.5,0,2.2,0.7,2.9,1.5c0,0.7,0,2.2,0,3.7c0,1.5-0.7,2.9-1.5,3.7c-1.5,0-2.2,0-3.7,0
			C113.2,417.2,111.7,415,110.3,413.5z M126.4,415.7c-0.7,2.9-2.9,5.1-5.1,5.1c0,0,0,0-0.7,0c1.5-1.5,2.2-3.7,2.9-5.9
			c0.7-2.2,0.7-5.1,0-6.6c1.5,0.7,2.2,1.5,2.2,2.2C126.4,412.1,127.1,414.3,126.4,415.7z"/>
		<path class="st1" d="M201.1,475.1L201.1,475.1c5.1,0,9.5-3.7,9.5-8.1c0-2.2-1.5-2.9-2.2-2.9l0,0c0-0.7,0-0.7,0-1.5
			c0-2.9-1.5-6.6-2.9-8.1c-0.7-0.7-1.5-1.5-2.2-1.5c0-0.7-0.7-0.7-1.5-0.7s-1.5,0.7-1.5,0.7c-2.9,0.7-5.9,5.1-5.9,9.5
			c0,0.7,0,0.7,0,1.5l0,0c-0.7,0-2.2,1.5-2.2,2.9c0,2.2,0.7,4.4,2.9,5.9c0.7,0.7,2.2,1.5,3.7,1.5l0,0c0,0.7-0.7,1.5-0.7,1.5
			c-0.7,0.7-0.7,1.5,0,2.2h0.7c0.7,0,0.7,0,0.7-0.7C200.4,476.5,200.4,475.8,201.1,475.1C201.1,475.8,201.1,475.8,201.1,475.1z
			 M200.4,456L200.4,456h0.7h0.7c0,0,0.7,0,1.5,0.7c1.5,1.5,2.2,3.7,2.2,5.9c0,1.5,0,2.2-0.7,3.7c-0.7,0-2.2,0.7-3.7,0.7l0,0
			c-1.5,0-2.9,0-3.7-0.7c-0.7-0.7-0.7-2.2-0.7-3.7C196.7,459,198.9,456,200.4,456z M194.5,468.5c1.5,0.7,3.7,1.5,6.6,1.5
			c2.2,0,4.4-0.7,5.9-1.5c-0.7,2.9-3.7,4.4-6.6,4.4l0,0c-1.5,0-3.7-0.7-4.4-1.5S194.5,469.2,194.5,468.5z"/>
		<path class="st1" d="M193,484.6c0,0.7-0.7,0.7-1.5,1.5l0,0c-1.5-2.9-4.4-4.4-7.3-4.4c-0.7,0-1.5,0-2.2,0c-1.5,0.7-2.2,2.2-2.2,2.9
			l0,0c-0.7,0-0.7,0-1.5,0c-4.4,1.5-8.1,5.1-8.1,8.1c0,0-0.7,0.7-0.7,1.5s0.7,0.7,1.5,1.5c0.7,0.7,0.7,1.5,2.2,2.2
			c1.5,0.7,3.7,1.5,5.1,1.5c0.7,0,2.2,0,2.9-0.7c0.7,0,0.7,0,1.5-0.7l0,0c0.7,0.7,1.5,1.5,2.2,1.5h0.7c2.2-0.7,3.7-1.5,4.4-3.7
			c1.5-2.2,1.5-5.1,0.7-7.3c0,0,0.7,0,0.7-0.7c0.7-0.7,1.5-1.5,2.2-2.2s0-1.5,0-2.2C193.8,483.9,193,483.9,193,484.6z M181.3,495.6
			c-2.2,0.7-5.1,0-6.6-0.7c-0.7-0.7-0.7-0.7-0.7-0.7v-0.7v-0.7c0-1.5,2.2-4.4,5.9-5.1c1.5,0,2.2-0.7,3.7,0c0.7,0.7,1.5,2.2,1.5,3.7
			c0.7,1.5,0.7,2.9,0.7,3.7C183.5,494.9,182.8,495.6,181.3,495.6z M189.4,494.9c-0.7,0.7-1.5,1.5-2.2,2.2c0.7-1.5,0.7-4.4,0-6.6
			s-1.5-4.4-2.9-5.9c2.9,0,5.1,1.5,5.9,5.1C190.1,491.2,190.1,493.4,189.4,494.9z"/>
		<path class="st1" d="M276.6,512.4c0.7,0,1.5,0,2.2-0.7l0,0l0,0c0-0.7,0-1.5-8.8-2.9c0-3.7,0-10.3-4.4-12.5
			c-0.7-0.7-1.5-0.7-2.2-0.7c-2.2,0-3.7,2.2-4.4,2.9c0,0,0,0.7-0.7,0.7c-0.7,0-0.7-1.5-0.7-3.7v-1.5c-0.7-2.9-1.5-8.1-6.6-9.5
			c-0.7,0-1.5,0-2.2,0c-3.7,0-5.1,3.7-5.9,5.9c0,0.7-0.7,2.2-0.7,2.2c-0.7-0.7-0.7-4.4-0.7-5.9v-1.5c0-7.3-3.7-11.7-9.5-11.7
			c-0.7,0-1.5,0-1.5,0c-1.5,0-2.9,0.7-4.4,2.2c-1.5,2.2-1.5,5.1-0.7,8.1c0,0.7,0,2.2,0,2.9h-0.7c-0.7,0-2.2-0.7-2.9-2.9
			c-2.2-3.7-5.9-5.9-9.5-5.9s-7.3,2.2-10.3,5.9c-2.2,3.7-2.9,8.1-0.7,11.7c2.2,3.7,5.9,5.9,10.3,5.9h0.7c0.7,0,0.7,0,1.5,0
			c2.9,0,3.7,0.7,4.4,2.2c-0.7,0.7-1.5,0.7-2.9,1.5c-2.9,1.5-5.9,2.9-6.6,5.1c-0.7,1.5,0,2.9,1.5,5.1c3.7,4.4,7.3,5.1,9.5,5.1
			c2.9,0,5.9-1.5,8.8-3.7l0.7-0.7c1.5-1.5,3.7-3.7,4.4-3.7c0,0,0,0,0.7,0c0,0-0.7,1.5-0.7,2.2c-0.7,1.5-1.5,3.7-0.7,5.9
			c0.7,1.5,2.2,2.2,4.4,2.9c1.5,0.7,2.2,0.7,3.7,0.7c4.4,0,7.3-2.9,8.8-4.4l0,0c0.7-0.7,0.7-0.7,1.5-1.5c1.5-1.5,2.2-2.2,2.9-2.2
			l0,0v0.7c0,1.5,0.7,5.9,5.9,5.1c3.7-0.7,7.3-3.7,9.5-10.3C272.9,512.4,275.1,512.4,276.6,512.4z M259.7,518.3
			C259,518.3,259,518.3,259.7,518.3c-0.7,0-0.7-1.5-1.5-1.5c0-1.5-0.7-3.7-2.9-4.4c-0.7,0-0.7,0-1.5,0c-2.9,0-4.4,1.5-5.9,3.7
			c0,0.7-0.7,0.7-1.5,1.5l0,0c-1.5,1.5-2.9,2.9-5.9,2.9c-0.7,0-1.5,0-2.2-0.7c-0.7,0-1.5-0.7-1.5-0.7c0-0.7,0-1.5,0.7-2.9
			c0.7-2.2,2.2-5.1-0.7-7.3c-0.7-0.7-2.2-0.7-2.9-0.7c-2.9,0-5.1,2.2-7.3,4.4l-0.7,0.7c-2.2,1.5-3.7,2.9-5.9,2.9
			c-2.2,0-4.4-1.5-6.6-3.7c0-0.7-0.7-0.7-0.7-1.5c0-0.7,2.2-2.2,3.7-2.9c2.9-1.5,5.9-2.9,5.1-6.6c-2.2-5.1-6.6-5.1-8.8-5.1
			c-0.7,0-0.7,0-1.5,0c-3.7,0-5.9-0.7-7.3-3.7c-1.5-2.2-0.7-5.1,0.7-7.3c1.5-2.9,4.4-4.4,6.6-4.4s4.4,1.5,5.9,4.4
			c1.5,2.2,3.7,5.1,6.6,5.1c0.7,0,1.5,0,2.2-0.7c2.9-1.5,2.2-4.4,2.2-7.3c0-1.5-0.7-4.4,0-5.1c0,0,0,0,1.5-0.7c0.7,0,0.7,0,1.5,0
			c1.5,0,5.1,0,5.1,7.3v0.7c0,2.9,0,6.6,2.2,8.8c0.7,0.7,2.2,1.5,3.7,1.5c2.9,0,3.7-2.9,4.4-5.1c0.7-2.9,1.5-2.9,2.2-2.9
			c2.9,0.7,2.9,3.7,3.7,5.9v1.5c0.7,2.9,0.7,6.6,4.4,7.3h0.7l0,0c2.2,0,2.9-1.5,3.7-2.9c0-0.7,0.7-1.5,0.7-1.5l0,0
			c0.7,0.7,2.2,2.2,2.2,8.8c-0.7,0-2.2,0-2.9-0.7c-15.4-2.9-35.2-10.3-41-13.2c-2.2-0.7-2.2-0.7-2.2-0.7h-0.7l0,0l0,0l0,0l0,0
			c0.7,1.5,25.6,13.2,43.2,16.1c1.5,0,2.2,0,3.7,0.7C263.4,516.8,261.2,518.3,259.7,518.3z"/>
		<path class="st1" d="M152,225.3L152,225.3L152,225.3l0.7,0.7c0,0,0.7,0,2.9-2.2c2.9,1.5,5.9,2.9,9.5,2.9c1.5,0,2.9,0,3.7-0.7
			c1.5-0.7,2.2-1.5,2.2-2.9c0.7-1.5-0.7-3.7-1.5-4.4c0,0,0-0.7-0.7-0.7c0.7,0,1.5,0,2.9,0.7l1.5,0.7c1.5,0.7,2.9,0.7,5.1,0.7
			s4.4-0.7,5.9-2.9c1.5-1.5,1.5-2.9,1.5-3.7c0-2.2-1.5-3.7-2.9-5.1c-0.7-0.7-1.5-1.5-1.5-1.5l0,0c1.5,0,3.7,0.7,5.1,2.2l0.7,0.7
			c7.3,3.7,13.2,1.5,14.7-4.4c0.7-1.5,0.7-2.9,0-4.4c-1.5-2.2-4.4-3.7-6.6-4.4c-0.7,0-2.2-0.7-2.9-0.7c0-0.7,0.7-2.2,4.4-2.2
			c4.4,0,8.1-2.2,9.5-5.1c2.2-3.7,1.5-7.3-0.7-11.7c-2.2-3.7-5.9-5.9-9.5-5.9c-4.4,0-8.1,2.9-10.3,7.3c-1.5,3.7-2.9,4.4-3.7,4.4
			c0-0.7,0-2.2,0-2.9c0-2.9,0-5.9-2.2-8.1c-0.7-0.7-1.5-1.5-3.7-1.5c-0.7,0-0.7,0-1.5,0c-3.7,0.7-7.3,2.9-8.8,5.9
			c-1.5,2.9-2.2,6.6-0.7,9.5c0,0.7,0,0.7,0.7,1.5c0.7,2.9,1.5,5.1,0.7,5.9c0,0-1.5-0.7-1.5-1.5c-1.5-1.5-2.9-3.7-5.1-3.7
			c-1.5,0-2.9,0.7-4.4,2.2c-5.1,5.1-2.9,10.3-2.2,12.5l0,0c0,0.7,0.7,0.7,0.7,1.5c0.7,2.2,0.7,2.9,0.7,3.7h-0.7
			c-0.7,0-1.5-0.7-2.9-0.7s-2.9,0.7-4.4,2.9c-1.5,3.7,0,8.1,5.1,13.2C151.3,224.5,151.3,225.3,152,225.3z M151.3,210.6
			C152,210.6,152,209.9,151.3,210.6c0.7-0.7,1.5-0.7,2.2,0c0.7,0,1.5,0.7,2.2,0.7c1.5,0,2.2-0.7,2.9-1.5c2.2-2.9,1.5-5.1,0-8.1
			c0-0.7,0-0.7-0.7-1.5l0,0c-0.7-2.9-1.5-5.1,0.7-8.1c0.7-0.7,1.5-0.7,1.5-0.7c0.7,0,1.5,0.7,2.2,2.2c1.5,1.5,2.9,2.9,4.4,2.9
			c0.7,0,1.5,0,1.5,0c4.4-2.2,2.9-7.3,2.2-11c0-0.7,0-0.7-0.7-1.5c-0.7-2.2-0.7-5.1,0.7-6.6c0.7-2.2,2.9-2.9,5.9-3.7h0.7
			c0.7,0,0.7,0,0.7,0c0.7,0.7,0.7,2.9,0.7,4.4c0,2.9,0,6.6,3.7,7.3c5.1,0.7,7.3-2.9,8.8-6.6c1.5-2.9,3.7-5.1,6.6-5.1
			c2.2,0,4.4,1.5,5.9,3.7c1.5,2.9,1.5,5.9,0.7,7.3c-0.7,2.2-2.9,2.9-5.9,2.9c-6.6,0-8.1,3.7-8.8,6.6c0,2.9,2.9,4.4,5.9,5.1
			c1.5,0.7,3.7,1.5,4.4,2.2c0,0,0,0.7,0,1.5c-0.7,3.7-2.9,3.7-4.4,3.7c-1.5,0-2.9-0.7-5.1-1.5h-0.7c-2.2-1.5-4.4-2.2-7.3-2.2
			c-2.2,0-3.7,0.7-4.4,2.9c-1.5,2.9,0.7,5.1,2.2,6.6c0.7,0.7,2.2,1.5,2.2,2.2c0,0,0,0.7-0.7,0.7c-0.7,0.7-1.5,1.5-2.9,1.5
			c-1.5,0-2.9-0.7-3.7-0.7l-1.5-0.7c-1.5-0.7-2.9-0.7-4.4-0.7c-1.5,0-2.9,0.7-3.7,2.2c-1.5,2.2,0,3.7,0.7,5.1c0,0.7,0.7,0.7,0.7,1.5
			l0,0c-0.7,0-0.7,0-1.5,0c-2.2,0-4.4-1.5-6.6-2.2c1.5-1.5,3.7-4.4,5.9-7.3c9.5-11,24.2-24.2,30.8-29.3l0,0c2.2-1.5,2.2-1.5,2.9-2.2
			l0,0l-0.7-0.7l0,0c0,0-0.7,0-2.9,2.2c-5.9,3.7-22.7,16.1-32.2,27.8c-2.9,2.9-4.4,5.9-5.9,7.3C151.3,214.3,151.3,212.1,151.3,210.6
			z"/>
		<path class="st1" d="M173.3,478.7L173.3,478.7c4.4,0,8.1-2.9,10.3-5.1c1.5,0.7,2.2,1.5,2.9,1.5c0.7,0,0.7,0,0.7-0.7l0,0l0,0
			c0-0.7,0-0.7-2.2-2.9c1.5-2.2,5.1-8.8,2.9-13.9c-0.7-2.2-2.9-2.2-3.7-2.2c-1.5,0-2.2,0.7-3.7,1.5h-0.7c0-0.7,0-1.5,0.7-2.9
			l0.7-1.5c0.7-2.2,2.9-7.3-1.5-11c-1.5-1.5-2.2-2.2-3.7-2.2c-2.2,0-3.7,1.5-5.1,2.9c-0.7,0.7-1.5,1.5-2.2,1.5
			c-0.7-0.7,1.5-4.4,2.2-5.1l0.7-0.7c2.2-3.7,2.2-7.3,1.5-10.3c-0.7-2.2-2.9-4.4-5.9-5.1c-0.7,0-1.5-0.7-2.2-0.7
			c-3.7,0-5.9,3.7-6.6,6.6c0,0.7-0.7,2.2-1.5,2.9c-0.7,0-2.2-0.7-2.2-4.4c0-3.7-0.7-6.6-2.9-8.1c-2.9-3.7-8.8-3.7-13.9-1.5
			c-3.7,2.2-6.6,5.9-6.6,9.5c0,4.4,2.2,8.1,6.6,10.3c3.7,1.5,4.4,2.9,3.7,3.7c-0.7,0-1.5,0-2.9,0c-0.7,0-1.5,0-2.2,0
			c-2.2,0-4.4,0-5.9,2.2c0.7,1.5,0.7,2.9,0.7,5.1c0.7,6.6,5.1,11,11.7,11c1.5,0,2.2,0,3.7-0.7c0.7,0,0.7,0,1.5-0.7
			c1.5-0.7,2.9-0.7,4.4-0.7c0.7,0,1.5,0,1.5,0.7c0,0-0.7,0.7-1.5,1.5c-1.5,1.5-2.9,2.9-3.7,5.1c0,1.5,0.7,2.9,2.2,5.1
			c2.2,2.2,4.4,3.7,7.3,3.7c2.2,0,3.7-0.7,5.1-0.7h0.7c0.7,0,0.7,0,1.5-0.7c1.5-0.7,2.2-0.7,2.9-0.7c0,0,0,0,0.7,0v0.7
			c-0.7,1.5-2.2,5.1,2.2,7.3C171.8,478,172.5,478.7,173.3,478.7z M168.1,465.6c-1.5,0-2.9,0.7-4.4,0.7c-0.7,0-0.7,0-1.5,0.7h-0.7
			c-0.7,0-2.2,0.7-3.7,0.7c-1.5,0-2.9-0.7-4.4-2.2c-0.7-0.7-0.7-1.5-0.7-1.5c0-0.7,1.5-1.5,2.2-2.2c1.5-1.5,4.4-2.9,2.9-6.6
			c-0.7-1.5-1.5-2.9-5.1-2.9c-1.5,0-3.7,0.7-5.1,0.7c-0.7,0-0.7,0-1.5,0.7c-0.7,0-2.2,0-2.9,0c-3.7,0-6.6-2.2-7.3-7.3
			c0-0.7,0-1.5,0-1.5s0.7-0.7,2.9-0.7c0.7,0,1.5,0,2.2,0c0.7,0,1.5,0,2.2,0c2.9,0,5.1-0.7,5.1-2.9c0.7-5.1-2.9-7.3-6.6-8.8
			c-2.9-1.5-4.4-3.7-4.4-6.6c0-2.2,1.5-4.4,4.4-5.9c3.7-1.5,6.6-1.5,8.8,0.7c1.5,1.5,1.5,2.9,1.5,5.1c0,5.1,2.2,8.1,5.9,8.8l0,0
			c2.9,0,3.7-2.9,5.1-5.1c0.7-2.2,1.5-4.4,2.9-4.4h0.7c1.5,0.7,2.9,1.5,2.9,2.9c0.7,1.5,0,3.7-1.5,6.6l0,1.5
			c-1.5,2.9-2.9,5.9-2.2,8.8c0,1.5,0.7,2.2,2.2,2.9c0.7,0,1.5,0.7,1.5,0.7c2.2,0,3.7-1.5,4.4-2.9c0.7-0.7,2.2-1.5,2.2-1.5
			s0.7,0,0.7,0.7c2.2,2.2,1.5,4.4,0,6.6l-0.7,1.5c-0.7,2.9-2.2,5.9,0.7,8.1c0.7,0.7,1.5,0.7,2.2,0.7l0,0c0.7,0,2.2-0.7,2.9-0.7
			c0.7,0,1.5-0.7,1.5-0.7l0,0c0.7,0.7,0.7,2.9-2.2,8.8c-1.5-1.5-3.7-3.7-6.6-5.9c-8.1-7.3-17.6-18.3-28.6-33
			c-1.5-1.5-1.5-1.5-1.5-1.5l0,0c0,0-0.7,0-0.7,0.7c0,1.5,15.4,24.9,28.6,36.6c2.9,2.2,5.1,4.4,6.6,5.9c-2.9,2.2-5.1,2.9-6.6,2.9
			c-0.7,0-0.7,0-1.5,0c-0.7,0-0.7,0-0.7,0s0-1.5,0.7-1.5c0.7-1.5,1.5-3.7,0-5.1C171.1,466.3,169.6,465.6,168.1,465.6z"/>
		<path class="st1" d="M112.5,387.2c0.7,0,1.5,0,1.5,0c2.2,0.7,2.9,0.7,2.9,1.5l-0.7,0.7c-1.5,0.7-4.4,3.7-1.5,7.3
			c1.5,2.2,4.4,2.9,8.1,2.9c2.2,0,4.4-0.7,5.9-0.7c2.2,3.7,2.2,3.7,2.9,3.7h0.7l0,0c0,0,0.7-0.7-0.7-3.7c2.9-1.5,8.8-5.1,8.8-10.3
			c0-1.5,0-2.2-1.5-2.9c-1.5-1.5-2.9-1.5-4.4-1.5h-0.7c0-0.7,0.7-0.7,2.2-2.2l1.5-0.7c2.2-1.5,5.9-5.1,4.4-10.3
			c-0.7-2.9-2.9-4.4-5.1-4.4c-1.5,0-2.2,0-3.7,0.7c0-1.5-0.7-1.5-1.5-1.5l0,0c0-0.7,2.9-2.9,4.4-3.7l0.7-0.7
			c3.7-2.2,5.9-5.1,6.6-8.1c0.7-2.2-0.7-5.1-2.2-7.3c-2.2-1.5-3.7-2.2-5.1-2.2c-2.2,0-5.1,1.5-6.6,3.7c-0.7,0.7-2.2,1.5-2.2,1.5
			c-0.7-0.7-1.5-1.5,0.7-4.4c2.2-3.7,2.2-7.3,0.7-11c-2.2-3.7-5.9-5.9-10.3-5.9h-0.7c-4.4,0-8.1,2.2-9.5,5.1
			c-2.2,3.7-1.5,8.1,1.5,11.7c2.2,2.9,2.2,4.4,1.5,5.9c-0.7,0-1.5-0.7-2.2-1.5c-2.2-1.5-4.4-2.9-6.6-2.9c-1.5,0-3.7,0.7-5.1,3.7
			c-1.5,3.7-1.5,7.3,0,10.3c1.5,2.9,4.4,5.1,8.1,5.9c0.7,0,0.7,0,1.5,0.7c2.9,0.7,5.1,1.5,5.1,2.9c0,0-1.5,0.7-2.2,0.7
			c-2.2,0-4.4,0.7-5.9,2.9c-1.5,1.5-1.5,3.7-0.7,5.9C104.4,385.7,109.5,386.4,112.5,387.2L112.5,387.2z M106.6,377.7
			c0-1.5,0-1.5,0-2.2s1.5-0.7,2.9-0.7c2.2,0,5.1-0.7,5.9-4.4c0.7-5.1-4.4-5.9-8.1-7.3c-0.7,0-0.7,0-1.5-0.7
			c-2.2-0.7-4.4-2.2-5.1-4.4c-0.7-2.2-0.7-4.4,0-6.6c0,0,0,0,0.7,0c0.7,0,2.9,0.7,4.4,2.2c1.5,1.5,3.7,2.2,5.1,2.2
			c1.5,0,2.2-0.7,2.9-1.5c3.7-4.4,0-9.5-0.7-11c-2.2-2.9-2.2-5.9-0.7-8.1c0.7-2.2,3.7-2.9,5.9-2.9l0,0c2.9,0,5.9,1.5,6.6,3.7
			c0.7,2.2,0.7,4.4-0.7,6.6c-0.7,1.5-4.4,7.3,0.7,10.3c0.7,0.7,1.5,0.7,2.2,0.7l0,0c1.5,0,3.7-1.5,5.1-2.9c1.5-0.7,2.9-2.2,4.4-2.2
			c0,0,0.7,0,1.5,0.7c1.5,1.5,1.5,2.9,1.5,4.4c0,1.5-1.5,3.7-4.4,5.1l-1.5,0c-2.9,1.5-5.9,3.7-6.6,5.9c0,1.5,0,2.2,0.7,3.7
			c0.7,0.7,1.5,1.5,3.7,1.5c0.7,0,2.2,0,2.9-0.7c0.7,0,1.5-0.7,2.2-0.7c0.7,0,0.7,0,1.5,1.5c0.7,2.9-1.5,4.4-2.9,5.9l-1.5,0.7
			c-2.2,2.2-5.1,4.4-3.7,7.3c0.7,2.2,2.9,2.2,4.4,2.2c0.7,0,1.5,0,1.5,0l0,0c0,0.7-0.7,2.9-5.9,6.6c-0.7-2.2-1.5-5.1-2.9-8.1
			c-5.1-13.9-7.3-33-8.8-41c-0.7-4.4-0.7-4.4-1.5-4.4h-0.7c-0.7,0.7,0.7,27.8,7.3,46.2c1.5,3.7,2.2,6.6,2.9,8.8
			c-1.5,0-2.9,0.7-4.4,0.7c-2.2,0-3.7-0.7-4.4-1.5c0-0.7,0-0.7,0-0.7s0.7-0.7,1.5-1.5c0.7-0.7,2.9-2.2,2.2-4.4
			c-1.5-3.7-3.7-3.7-6.6-4.4c-0.7,0-0.7,0-1.5,0l0,0C110.3,382.8,107.3,382,106.6,377.7z"/>
		<path class="st1" d="M108.8,289L108.8,289c0.7,0.7,1.5,0.7,1.5,1.5c2.2,1.5,2.2,2.2,2.2,2.2h-0.7c-1.5,0-5.9,0.7-5.1,5.9
			c0.7,3.7,4.4,6.6,10.3,8.8c0,2.2,0,2.9,0.7,2.9h0.7l0,0c0.7,0,0.7,0,1.5-2.9c2.9,0,10.3,0,13.2-4.4c0.7-1.5,0.7-2.2,0.7-3.7
			c-0.7-1.5-2.2-2.9-2.9-3.7c0,0-0.7,0-0.7-0.7c0,0,0.7-0.7,2.9-0.7h1.5c2.2-0.7,8.1-1.5,8.8-6.6c1.5-5.9-3.7-6.6-5.9-7.3
			c-0.7,0-2.2-0.7-2.2-0.7l0,0c0.7-0.7,3.7-0.7,5.9-0.7h0.7c4.4,0,7.3-1.5,8.8-3.7c1.5-2.2,2.2-4.4,1.5-7.3c0-2.2-1.5-5.1-5.9-5.1
			c-1.5,0-2.9,0-4.4,0.7c-0.7,0-2.2,0-2.9,0l0,0c0-0.7,0-2.2,2.9-3.7c3.7-2.2,5.9-5.1,5.9-8.8s-2.2-7.3-6.6-10.3
			c-4.4-2.9-10.3-2.2-13.9,1.5c-2.2,2.2-2.9,5.9-2.9,9.5s0,5.1-1.5,5.9c-0.7-0.7-0.7-1.5-1.5-2.2c-1.5-2.9-2.9-5.9-6.6-5.9
			c-1.5,0-2.9,0.7-3.7,1.5c-2.9,2.2-5.1,5.9-5.1,8.8s1.5,6.6,4.4,9.5c0.7,0.7,0.7,0.7,1.5,1.5c2.2,2.2,3.7,3.7,2.9,4.4
			c-0.7,0-1.5,0-2.2-0.7c-1.5-0.7-2.2-0.7-3.7-0.7s-4.4,0.7-5.1,4.4C102.9,283.9,107.3,287.5,108.8,289z M108.8,278
			c0-1.5,0.7-1.5,0.7-1.5c0.7,0,1.5,0,2.2,0.7c1.5,0,2.9,0.7,3.7,0.7l0,0c1.5,0,2.9-0.7,3.7-1.5c2.9-3.7-0.7-8.1-3.7-10.3
			c-0.7-0.7-0.7-0.7-1.5-1.5c-2.2-2.2-2.9-4.4-2.9-5.9c0-2.2,1.5-4.4,3.7-5.9c0.7-0.7,0.7-0.7,1.5-0.7s2.2,2.2,2.9,3.7
			c1.5,2.2,2.9,5.1,5.1,5.1l0,0c0.7,0,0.7,0,1.5,0c5.1-2.2,4.4-7.3,4.4-10.3c0-2.2,0.7-5.1,1.5-6.6c2.2-2.2,5.1-2.2,8.8-0.7
			c2.9,1.5,4.4,4.4,4.4,6.6c0,2.2-1.5,4.4-3.7,5.1c-5.9,3.7-5.1,7.3-4.4,9.5c0.7,0.7,1.5,2.2,3.7,2.2c0.7,0,2.2,0,3.7-0.7
			c1.5,0,2.2-0.7,3.7-0.7c1.5,0,2.2,0.7,2.2,1.5c0,2.2,0,2.9-0.7,4.4s-2.9,2.2-5.9,2.2h-0.7c-2.9,0-6.6,0-8.8,2.2
			c-1.5,2.2-2.2,2.9-2.2,4.4c0,2.9,3.7,3.7,5.1,4.4c2.9,0.7,2.9,1.5,2.9,2.2c-0.7,2.9-2.9,2.9-5.9,3.7h-1.5
			c-2.9,0.7-5.9,1.5-6.6,5.1c-0.7,2.2,1.5,3.7,2.9,4.4c0.7,0,0.7,0.7,1.5,0.7l0,0c-0.7,0.7-2.2,2.2-8.1,2.9c0.7-2.2,0.7-5.1,1.5-9.5
			c2.2-13.9,9.5-31.5,12.5-39.6c1.5-4.4,1.5-4.4,1.5-4.4s0,0-0.7,0c-1.5,0-13.9,26.4-16.8,43.2c-0.7,4.4-1.5,7.3-1.5,9.5
			c-5.9-1.5-6.6-3.7-6.6-5.1c0-0.7,0-0.7,0-0.7s0.7,0,1.5-0.7c1.5,0,3.7-0.7,4.4-2.9c0.7-3.7-1.5-5.1-3.7-7.3
			c-0.7,0-0.7-0.7-1.5-0.7l0,0C109.5,283.9,107.3,281.7,108.8,278z"/>
		<path class="st1" d="M459,229.7L459,229.7c-0.7,0.7-0.7,1.5-1.5,1.5c-0.7,0.7-0.7,1.5,0,2.2c0,0.7,0.7,0.7,1.5,0.7h0.7
			c0.7-0.7,1.5-1.5,2.2-2.2l0.7-0.7c0.7,0,2.2,0.7,3.7,0.7c3.7,0,6.6-2.2,8.1-5.1c0.7-1.5,0-2.9-0.7-3.7l0,0c0-0.7,0-0.7,0.7-1.5
			c0.7-2.9,0.7-6.6-0.7-8.8c-0.7-0.7-1.5-1.5-2.2-2.2c0-0.7-0.7-0.7-0.7-1.5c-0.7,0-1.5,0-1.5,0.7c-2.9,0-6.6,2.9-8.1,7.3
			c0,0.7,0,0.7,0,1.5l0,0c-0.7,0-2.2,0.7-2.9,2.2c-0.7,2.2,0,4.4,0.7,6.6C456.8,228.2,457.5,228.9,459,229.7z M461.2,218
			c1.5-3.7,4.4-5.9,5.1-5.9h0.7c0,0,0.7,0,0.7,0.7c0,0,0.7,0,0.7,0.7c0.7,1.5,1.5,4.4,0,6.6c0,1.5-0.7,2.2-1.5,2.9l0,0
			c-0.7,0-2.2,0-3.7-0.7c-1.5-0.7-2.2-0.7-2.9-1.5C460.4,220.2,460.4,218.7,461.2,218z M457.5,222.3c1.5,1.5,3.7,2.9,5.9,3.7
			c1.5,0.7,2.9,0.7,4.4,0.7c0.7,0,1.5,0,2.2,0c-0.7,1.5-2.2,2.9-5.1,2.9c-0.7,0-1.5,0-2.2-0.7c-1.5-0.7-2.9-1.5-3.7-2.9
			C457.5,224.5,457.5,223.8,457.5,222.3z"/>
		<path class="st1" d="M448.7,239.9h0.7c0.7,0,1.5-0.7,2.2-1.5c0.7-0.7,0.7-1.5,0-2.2c-0.7-0.7-1.5-0.7-2.2,0
			c-0.7,0-0.7,0.7-1.5,0.7l0,0c-0.7-3.7-3.7-6.6-7.3-6.6c-1.5,0-2.9,1.5-2.9,2.2l0,0c-0.7,0-0.7,0-1.5,0c-4.4,0-8.8,2.2-9.5,5.1
			c-0.7,0-0.7,0.7-0.7,1.5c0,0.7,0.7,1.5,0.7,1.5c0,0.7,0.7,1.5,1.5,2.2c2.2,2.2,5.1,2.9,8.1,3.7l0,0h0.7l0,0c0,0.7,1.5,2.2,2.9,2.2
			l0,0C445,249.5,448,245.1,448.7,239.9z M436.3,244.3c-2.9,0-5.1-1.5-5.9-2.2c-0.7-0.7-0.7-0.7-0.7-1.5v-0.7v-0.7
			c0-1.5,3.7-3.7,7.3-3.7c1.5,0,2.2,0,3.7,0.7c0,0.7,0.7,2.2,0.7,3.7s0,2.9-0.7,3.7C438.5,244.3,437,244.3,436.3,244.3z
			 M441.4,246.5c0.7-1.5,1.5-3.7,1.5-6.6c0-2.2-0.7-5.1-1.5-6.6c2.2,0.7,4.4,2.9,4.4,6.6C445.8,243.6,443.6,245.8,441.4,246.5z"/>
		<path class="st1" d="M463.4,327.8c1.5,0.7,2.2,0.7,3.7,0.7c2.9,0,5.9-1.5,7.3-5.1h0.7c0.7,0,1.5,0,1.5,0h0.7
			c0.7,0,1.5-0.7,1.5-1.5c0-0.7-0.7-1.5-1.5-1.5c-0.7,0-1.5,0-2.2,0l0,0c0.7-1.5,0.7-2.9,0.7-3.7c0-2.2-1.5-4.4-3.7-5.1
			c-0.7,0-1.5-0.7-2.2-0.7s-1.5,0.7-2.2,0.7l0,0c0,0-0.7-0.7-1.5-0.7c-3.7-2.2-8.8-2.2-11,0c-0.7,0-1.5,0-1.5,0.7
			c-0.7,0.7,0,1.5,0,1.5c0,0.7,0,1.5,0,2.9c0.7,2.9,2.9,5.1,5.1,6.6c0.7,0,0.7,0.7,1.5,0.7l0,0C461.9,324.9,461.9,326.4,463.4,327.8
			z M473.6,317.6c0,1.5,0,2.9-1.5,4.4c-1.5,2.9-4.4,4.4-7.3,2.9c1.5-0.7,3.7-2.2,4.4-4.4c1.5-2.2,2.2-4.4,2.2-6.6
			C472.9,315.4,473.6,316.8,473.6,317.6z M458.2,316.1c0-0.7,0-1.5,0-1.5v-0.7c0,0,0.7,0,0.7-0.7c0.7-0.7,4.4-1.5,8.1,0.7
			c0.7,0.7,2.2,1.5,2.9,2.2c0,0.7-0.7,2.2-1.5,3.7c-0.7,1.5-1.5,2.2-2.2,2.9c-1.5,0-2.2-0.7-2.9-1.5
			C459.7,319.8,458.2,317.6,458.2,316.1z"/>
		<path class="st1" d="M493.4,310.3L493.4,310.3c0,0-0.7-0.7-1.5-0.7c-0.7,0-1.5,0-2.2,0.7c-1.5,1.5-2.2,2.9-2.2,5.1
			c0,1.5,0.7,2.9,1.5,4.4l0,0c-0.7,0-1.5,0.7-1.5,0.7c-0.7,0-1.5,0.7-1.5,1.5c0,0.7,0.7,1.5,1.5,1.5l0,0c0.7,0,1.5,0,2.9-0.7
			c0,0,0.7,0,0.7-0.7c2.2,2.2,4.4,2.9,6.6,2.9s3.7-0.7,5.1-2.2c1.5-1.5,1.5-2.9,0.7-3.7l0,0l0.7-0.7c2.2-2.2,3.7-5.1,3.7-8.1
			c0-0.7,0-2.2-0.7-2.9c0-0.7,0-0.7,0-1.5c-0.7-0.7-1.5-0.7-1.5-0.7c-2.2-1.5-7.3-0.7-11,2.2C494.1,309.5,493.4,309.5,493.4,310.3z
			 M491.9,320.5c-1.5-1.5-2.2-2.9-2.2-5.1c0-0.7,0-2.2,0.7-2.9c0,1.5,1.5,3.7,2.9,5.9c1.5,1.5,3.7,2.9,5.9,3.7
			C497.8,324.2,494.1,323.4,491.9,320.5z M503.7,308.8C503.7,309.5,504.4,309.5,503.7,308.8c0.7,0.7,0.7,0.7,0.7,1.5
			c0,0,0,0.7,0,1.5c0,1.5-0.7,4.4-2.9,5.9c-0.7,0.7-2.2,1.5-2.9,2.2c-0.7-0.7-2.2-1.5-2.9-2.2c-0.7-0.7-1.5-2.2-2.2-2.9
			c0.7-0.7,1.5-2.2,2.2-2.9C499.3,308.8,502.9,308.1,503.7,308.8z"/>
		<path class="st1" d="M461.2,398.9c-0.7-1.5-1.5-1.5-2.9-1.5c0,0,0,0-0.7,0l0,0c0-0.7-0.7-0.7-0.7-1.5c-2.2-3.7-6.6-6.6-9.5-5.9
			c-0.7,0-0.7-0.7-1.5,0c-0.7,0-0.7,0.7-0.7,1.5c-0.7,0.7-1.5,1.5-1.5,2.2c-0.7,2.9,0,5.9,1.5,8.8c0,0.7,0.7,0.7,0.7,1.5l0,0
			c-0.7,0.7-0.7,2.2,0,3.7c1.5,2.2,3.7,3.7,6.6,3.7c1.5,0,3.7-0.7,5.1-1.5l0.7,0.7c0.7,0.7,1.5,1.5,2.2,1.5c0,0,0,0,0.7,0
			s0.7,0,1.5-0.7c0-0.7,0-1.5-0.7-1.5s-1.5-0.7-1.5-0.7l0,0C461.9,406.2,462.6,401.8,461.2,398.9z M446.5,395.2
			c0-0.7,0.7-0.7,0.7-1.5c0,0,0.7,0,0.7-0.7h0.7c0.7-0.7,4.4,0.7,6.6,4.4c0.7,0.7,0.7,2.2,1.5,3.7c-0.7,0.7-1.5,1.5-2.9,2.2
			c-1.5,0.7-2.2,0.7-3.7,1.5c-0.7-0.7-1.5-1.5-2.2-2.9C445.8,399.6,445.8,396.7,446.5,395.2z M456,407.7c-1.5,0.7-2.9,1.5-3.7,1.5
			c-1.5,0-2.9-0.7-3.7-1.5c1.5,0,4.4-0.7,6.6-1.5c2.2-1.5,3.7-2.9,4.4-4.4C460.4,404,458.2,406.2,456,407.7z"/>
		<path class="st1" d="M491.9,409.9c-1.5-2.9-6.6-4.4-11-2.9c-0.7,0-0.7,0-1.5,0.7l0,0c-0.7-0.7-2.2-1.5-3.7-1.5
			c-2.2,0.7-3.7,2.2-5.1,4.4c-0.7,1.5-0.7,2.2-0.7,3.7l0,0c-0.7,0-1.5,0-1.5-0.7c-0.7,0-1.5,0-2.2,0.7c0,0.7,0,1.5,0.7,1.5
			c0.7,0.7,1.5,0.7,2.9,0.7h0.7l0,0c0.7,4.4,4.4,7.3,8.1,7.3c0.7,0,1.5,0,1.5,0c1.5-0.7,2.2-2.2,2.9-2.9l0,0c0.7,0,0.7,0,1.5,0
			c2.9-0.7,5.9-2.9,7.3-5.1c0.7-0.7,0.7-2.2,0.7-2.9c0,0,0.7-0.7,0.7-1.5C492.7,409.9,492.7,409.9,491.9,409.9z M473.6,415.7
			c-0.7-1.5,0-3.7,0-5.1c0.7-0.7,0.7-1.5,2.2-2.2c-0.7,1.5-0.7,4.4,0,6.6c0.7,2.2,1.5,4.4,2.9,5.9
			C476.5,420.9,474.3,419.4,473.6,415.7z M489.7,413.5c-0.7,1.5-2.9,2.9-5.1,3.7c-1.5,0-2.2,0.7-3.7,0c-0.7-0.7-1.5-2.2-1.5-3.7
			c0-1.5-0.7-2.9,0-3.7c0.7-0.7,2.2-1.5,2.9-1.5c3.7-0.7,7.3,0.7,7.3,1.5v0.7v0.7C489.7,412.8,489.7,413.5,489.7,413.5z"/>
		<path class="st1" d="M401.8,475.1L401.8,475.1c3.7-1.5,6.6-4.4,5.9-8.1c0-2.2-1.5-2.9-2.2-2.9l0,0c0-0.7,0-0.7,0-1.5
			c0-4.4-2.9-8.8-5.9-9.5c0,0-0.7-0.7-1.5-0.7c-0.7,0-1.5,0.7-1.5,0.7c-0.7,0-1.5,0.7-2.2,1.5c-2.2,2.2-2.9,5.1-2.9,8.1
			c0,0.7,0,0.7,0,1.5l0,0c-0.7,0-2.2,1.5-2.2,2.9c0,4.4,3.7,8.1,8.8,8.1l0,0v0.7c0,0.7,0.7,1.5,1.5,2.2l0.7,0.7h0.7
			c0.7-0.7,0.7-1.5,0-2.2C402.6,476.5,402.6,475.8,401.8,475.1z M396.7,456.8c0.7-0.7,0.7-0.7,1.5-0.7h0.7h0.7l0,0
			c1.5,0,3.7,2.9,3.7,6.6c0,1.5,0,2.2-0.7,3.7c-0.7,0-2.2,0.7-3.7,0.7c-1.5,0-2.9,0-3.7-0.7c-0.7-0.7-0.7-2.2-0.7-3.7
			C394.5,460.4,396,458.2,396.7,456.8z M393,468.5c1.5,0.7,3.7,1.5,6.6,1.5l0,0c2.2,0,5.1-0.7,6.6-1.5c0,2.9-2.9,4.4-6.6,4.4l0,0
			C396,472.9,393,471.4,393,468.5z"/>
		<path class="st1" d="M421.6,485.3c-0.7,0-0.7,0-1.5,0l0,0c0-0.7-0.7-2.2-2.2-2.9c-0.7,0-1.5,0-2.2,0c-2.9,0-5.1,1.5-7.3,4.4l0,0
			c-0.7,0-0.7-0.7-1.5-1.5c-0.7-0.7-1.5-0.7-2.2,0c-0.7,0.7-0.7,1.5,0,2.2s1.5,1.5,2.2,2.2c0,0,0.7,0,0.7,0.7
			c-0.7,2.9-0.7,5.1,0.7,7.3c0.7,1.5,2.2,2.9,4.4,3.7h0.7c1.5,0,2.2-0.7,2.2-1.5l0,0c0.7,0,0.7,0,1.5,0.7c0.7,0,2.2,0.7,2.9,0.7
			c2.2,0,3.7-0.7,5.1-1.5c0.7-0.7,1.5-1.5,2.2-2.2c0.7,0,0.7-0.7,1.5-1.5c0-0.7,0-1.5-0.7-1.5C429.7,489.7,426,486.1,421.6,485.3z
			 M412.8,496.3c-0.7-0.7-1.5-0.7-2.2-2.2c-0.7-1.5-0.7-3.7-0.7-5.1c0.7-2.9,2.9-5.1,5.1-5.1c0,0,0,0,0.7,0
			c-1.5,1.5-2.9,3.7-2.9,5.9C412.8,491.9,412.8,494.9,412.8,496.3z M426.7,493.4C426.7,494.1,426,494.1,426.7,493.4
			c-0.7,0.7-0.7,1.5-1.5,1.5c-1.5,0.7-3.7,1.5-6.6,0.7c-1.5,0-2.2-0.7-2.9-1.5c0-0.7,0-2.2,0.7-3.7c0.7-1.5,0.7-2.2,1.5-3.7
			c1.5,0,2.2,0,3.7,0c3.7,0.7,5.9,4.4,5.9,5.1C426.7,493.4,426.7,493.4,426.7,493.4z"/>
		<path class="st1" d="M388.6,478c-3.7,0-7.3,2.2-9.5,5.9c-1.5,2.2-2.2,2.9-2.9,2.9h-0.7c0-0.7,0-2.2,0-2.9c0-2.9,0.7-5.9-0.7-8.1
			c-0.7-1.5-2.2-1.5-3.7-2.2c-7.3-0.7-11,3.7-11,11.7v1.5c0,1.5,0,5.1-0.7,5.9c0,0-0.7-1.5-0.7-2.2c-0.7-2.2-1.5-5.9-5.9-5.9
			c-0.7,0-1.5,0-2.2,0c-5.1,1.5-6.6,6.6-6.6,9.5v1.5c0,2.2-0.7,2.9-0.7,3.7c0,0,0-0.7-0.7-0.7c-0.7-1.5-2.2-2.9-4.4-2.9
			c-0.7,0-1.5,0-2.2,0.7c-4.4,2.9-4.4,9.5-4.4,12.5c-9.5,1.5-9.5,2.2-8.8,2.9l0,0l0,0c0,0.7,0.7,0.7,2.2,0.7c1.5,0,4.4,0,7.3-0.7
			c2.2,6.6,5.1,10.3,9.5,10.3h0.7c4.4,0,4.4-3.7,5.1-5.1v-0.7l0,0c0.7,0,1.5,0.7,2.9,2.2c0.7,0.7,0.7,0.7,1.5,1.5l0,0
			c1.5,1.5,4.4,4.4,8.8,4.4c1.5,0,2.2,0,3.7-0.7c2.2-0.7,3.7-1.5,4.4-2.9c0.7-2.2,0-4.4-0.7-5.9c0-0.7-0.7-1.5-0.7-2.2h0.7
			c1.5,0,2.9,2.2,4.4,2.9l0.7,0.7c2.9,2.2,5.9,3.7,8.8,3.7c2.9,0,6.6-0.7,9.5-5.1c1.5-1.5,1.5-3.7,1.5-5.1c-0.7-2.9-3.7-4.4-6.6-5.1
			c-0.7-0.7-2.2-0.7-2.9-1.5c0.7-1.5,1.5-2.2,4.4-2.2c0,0,0.7,0,1.5,0c5.1,0,9.5-1.5,11-5.9c2.2-3.7,1.5-8.1-0.7-11.7
			C396,480.2,392.3,478,388.6,478z M396,493.4c-1.5,2.2-3.7,3.7-6.6,3.7h-0.7c-0.7,0-0.7,0-1.5,0c-1.5,0-6.6,0-8.8,5.1
			c-1.5,3.7,2.2,5.1,5.1,6.6c1.5,0.7,3.7,1.5,3.7,2.9c0,0.7,0,1.5-0.7,1.5c-1.5,2.2-3.7,3.7-6.6,3.7c-2.2,0-4.4-0.7-5.9-2.9
			l-0.7-0.7c-2.2-2.2-4.4-4.4-7.3-4.4c-1.5,0-2.2,0-2.9,0.7c-2.9,2.2-1.5,5.1-0.7,7.3c0.7,0.7,0.7,2.2,0.7,2.9c0,0-0.7,0.7-1.5,0.7
			c-0.7,0-1.5,0.7-2.2,0.7c-2.9,0-4.4-2.2-5.9-2.9l0,0c-0.7-0.7-0.7-0.7-1.5-1.5c-1.5-2.2-2.9-3.7-5.9-3.7c-0.7,0-0.7,0-1.5,0
			c-2.2,0.7-2.9,2.9-2.9,4.4c0,0.7,0,1.5-0.7,1.5c0,0,0,0-0.7,0c-1.5,0-3.7-1.5-5.1-6.6c0.7,0,2.2,0,3.7-0.7
			c17.6-2.9,43.2-15.4,43.2-16.1l0,0l0,0l0,0c0,0,0,0-0.7,0c-0.7,0,0,0-2.2,0.7c-6.6,2.2-25.6,10.3-41,13.2c-1.5,0-2.2,0-2.9,0.7
			c0-5.9,1.5-8.1,2.2-8.8l0,0c0,0,0.7,0.7,0.7,1.5c0.7,1.5,2.2,2.9,4.4,2.9c3.7-0.7,4.4-4.4,4.4-7.3v-1.5c0.7-2.9,0.7-5.1,3.7-5.9
			c1.5,0,1.5,0,2.2,2.9c0.7,2.2,1.5,5.1,4.4,5.1c1.5,0,2.2,0,3.7-1.5c2.2-2.2,2.2-5.9,2.2-8.8v-0.7c0-7.3,3.7-7.3,5.1-7.3
			c0.7,0,0.7,0,1.5,0c0.7,0,1.5,0,1.5,0.7c0.7,0.7,0.7,3.7,0,5.1c0,2.9-0.7,5.9,2.2,7.3c0.7,0,1.5,0.7,2.2,0.7
			c3.7,0,5.9-2.9,6.6-5.1c1.5-2.9,3.7-4.4,5.9-4.4c2.2,0,4.4,1.5,6.6,4.4C396.7,489,396.7,491.2,396,493.4z"/>
		<path class="st1" d="M461.2,440.7c-0.7,0-1.5,0-2.2,0c-1.5,0-2.2,0-2.9,0c0-1.5,0.7-2.2,4.4-4.4c4.4-2.2,6.6-5.9,6.6-10.3
			c0-3.7-2.2-7.3-6.6-9.5c-5.1-2.9-10.3-2.2-13.9,1.5c-2.2,2.2-2.9,5.1-2.9,8.1c0,3.7-1.5,4.4-2.2,4.4c-0.7-0.7-0.7-1.5-1.5-2.9
			c-1.5-2.9-2.9-6.6-6.6-6.6c-0.7,0-1.5,0-2.2,0.7c-2.9,1.5-4.4,2.9-5.9,5.1c-0.7,2.9-0.7,5.9,1.5,10.3l0.7,0.7
			c0.7,1.5,2.2,4.4,2.2,5.1c-0.7,0-1.5-0.7-1.5-1.5c-1.5-1.5-2.9-2.9-5.1-2.9c-1.5,0-2.9,0.7-3.7,2.2c-4.4,3.7-2.2,8.8-1.5,11
			l0.7,1.5c0.7,2.2,0.7,2.9,0.7,2.9h-0.7c-0.7-0.7-2.2-1.5-3.7-1.5c-0.7,0-2.9,0.7-3.7,2.2c-2.9,4.4,1.5,11,2.9,13.9
			c-2.2,2.2-2.2,2.9-2.2,2.9l0,0l0,0h0.7c0.7,0,1.5-0.7,2.9-1.5c2.2,1.5,5.9,5.1,10.3,5.1c0.7,0,2.2,0,2.9-0.7
			c4.4-2.2,2.9-5.9,2.2-7.3v-0.7h0.7c0.7,0,1.5,0,2.9,0.7c0.7,0,0.7,0,1.5,0.7h0.7c1.5,0.7,2.9,0.7,5.1,0.7c2.9,0,5.1-1.5,7.3-3.7
			c1.5-1.5,2.2-2.9,1.5-5.1c0-2.2-2.2-3.7-3.7-5.1c-0.7-0.7-1.5-1.5-1.5-1.5s0-0.7,1.5-0.7c1.5,0,2.9,0.7,4.4,0.7
			c0.7,0,1.5,0,1.5,0.7c1.5,0,2.2,0.7,3.7,0.7c5.9,0,10.3-4.4,11.7-11c0-2.2,0-3.7-1.5-4.4C465.6,441.4,463.4,440.7,461.2,440.7z
			 M464.1,447.2c-0.7,5.9-4.4,8.1-10.3,6.6c-0.7,0-0.7,0-1.5-0.7c-1.5-0.7-3.7-0.7-5.1-0.7c-3.7,0-4.4,2.2-5.1,2.9
			c-1.5,2.9,1.5,5.1,2.9,6.6c0.7,0.7,2.2,1.5,2.2,2.2c0,0.7,0,0.7-0.7,1.5c-1.5,1.5-2.9,2.2-4.4,2.2c-1.5,0-2.9-0.7-3.7-0.7h-0.7
			c-0.7,0-0.7,0-1.5-0.7c-1.5-0.7-2.9-0.7-4.4-0.7c-1.5,0-2.9,0.7-3.7,1.5c-1.5,1.5-0.7,3.7-0.7,5.1c0,0.7,0.7,1.5,0.7,1.5
			s0,0-0.7,0c-2.2,0.7-4.4,0-8.1-2.9c2.2-1.5,4.4-3.7,6.6-5.9c13.2-11.7,28.6-35.2,28.6-36.6c0,0,0-0.7-0.7-0.7l0,0
			c-0.7,0-0.7,0-1.5,1.5c-11,14.7-20.5,25.6-28.6,33c-2.9,2.9-5.1,4.4-6.6,5.9c-2.9-5.9-2.9-8.1-2.2-8.8l0,0c0,0,0.7,0.7,1.5,0.7
			c0.7,0.7,2.2,0.7,2.9,0.7s1.5,0,2.2-0.7c2.9-2.2,1.5-5.1,0.7-8.1l-0.7-1.5c-0.7-2.2-1.5-5.1,0.7-6.6c0.7-0.7,0.7-0.7,0.7-0.7
			c0.7,0,1.5,0.7,2.2,1.5c1.5,1.5,2.9,2.9,4.4,2.9c0.7,0,1.5,0,1.5-0.7c1.5-0.7,2.2-1.5,2.2-2.9c0.7-2.9-0.7-5.9-2.2-8.8v-0.7
			c-1.5-2.9-2.2-5.1-1.5-6.6c0.7-1.5,1.5-2.2,2.9-2.9h0.7c1.5,0,2.2,2.2,2.9,4.4c0.7,2.2,2.2,5.1,5.1,5.1h0.7
			c3.7-0.7,5.9-3.7,5.9-8.8c0-2.2,0.7-4.4,1.5-5.1c2.2-2.2,5.1-2.2,8.8-0.7c2.9,1.5,4.4,3.7,4.4,5.9s-1.5,5.1-4.4,6.6
			c-3.7,1.5-7.3,3.7-6.6,8.8c0,2.2,2.2,2.9,5.1,2.9c0.7,0,1.5,0,2.2,0s1.5,0,2.2,0c2.2,0,2.2,0,2.9,0.7
			C464.1,445.8,464.1,446.5,464.1,447.2z"/>
		<path class="st1" d="M498.5,347.6c-2.2,0-4.4,1.5-6.6,2.9c0,0-1.5,0.7-2.2,0.7c-0.7-0.7-0.7-2.2,1.5-5.9c2.9-3.7,2.9-8.8,1.5-11.7
			c-1.5-3.7-5.9-5.1-10.3-5.1h-0.7c-4.4,0-8.8,2.2-10.3,5.9c-1.5,2.9-1.5,7.3,0.7,11c2.2,2.9,1.5,4.4,0.7,4.4
			c-0.7,0-1.5-1.5-2.2-1.5c-2.2-2.2-4.4-4.4-6.6-4.4c-1.5,0-2.9,0.7-4.4,2.2c-2.2,2.2-2.9,5.1-2.2,7.3c0.7,2.9,2.2,5.9,6.6,8.1
			l0.7,0.7c1.5,0.7,4.4,2.9,4.4,3.7l0,0c-0.7,0-1.5,0-2.2-0.7c-0.7,0-2.2-0.7-3.7-0.7c-2.2,0-4.4,1.5-5.1,4.4
			c-1.5,5.1,2.9,8.8,4.4,10.3l1.5,0.7c1.5,1.5,2.2,2.2,2.2,2.2h-0.7c-1.5,0-2.9,0-4.4,1.5c-0.7,0.7-1.5,2.2-1.5,2.9
			c0,5.1,5.9,8.8,8.8,10.3c-0.7,2.9-0.7,3.7-0.7,3.7h0.7l0,0l0,0c0.7,0,0.7,0,2.2-2.9c1.5,0,3.7,0.7,5.9,0.7c3.7,0,5.9-0.7,8.1-2.9
			c2.9-3.7,0-6.6-1.5-7.3l-0.7-0.7c0-0.7,0.7-0.7,2.9-1.5c0.7,0,1.5,0,1.5,0l0,0c2.2-0.7,8.1-1.5,9.5-8.1c0.7-2.2,0-3.7-0.7-5.1
			c-1.5-2.2-3.7-2.2-5.9-2.9c-0.7,0-2.2,0-2.2-0.7c0-1.5,2.2-2.2,5.1-2.9c0.7,0,0.7,0,1.5-0.7c3.7-0.7,6.6-2.9,8.1-5.9
			c1.5-2.9,1.5-6.6,0-10.3C502.2,347.6,500.7,347.6,498.5,347.6z M469.2,401.1L469.2,401.1L469.2,401.1L469.2,401.1z M500,359.3
			c-0.7,2.2-2.9,3.7-5.1,4.4c-0.7,0-0.7,0-1.5,0c-3.7,0.7-8.8,2.2-8.1,7.3c0,3.7,3.7,3.7,5.9,4.4c0.7,0,2.2,0.7,2.9,0.7
			c0,0,0,0.7,0,2.2c-0.7,3.7-3.7,4.4-6.6,5.1l0,0c-0.7,0-1.5,0-1.5,0c-2.9,0.7-5.9,0.7-6.6,4.4c-0.7,2.2,0.7,3.7,2.2,4.4
			c0.7,0,0.7,0.7,1.5,1.5c0,0,0,0,0,0.7c-0.7,0.7-2.2,1.5-4.4,1.5c-1.5,0-2.9,0-3.7-0.7c0.7-2.2,2.2-5.1,2.9-8.8
			c5.9-17.6,7.3-44.7,7.3-46.2h-0.7c-0.7,0-0.7,0-1.5,4.4c-1.5,8.1-3.7,27.1-8.8,41c-1.5,3.7-2.2,5.9-2.9,8.1
			c-5.1-2.9-5.9-5.1-5.9-6.6l0,0c0,0,0.7,0,1.5,0c1.5,0,3.7,0,4.4-2.2c1.5-3.7-1.5-5.9-3.7-7.3l-1.5-0.7c-2.2-1.5-3.7-3.7-2.9-5.9
			c0-1.5,0.7-1.5,1.5-1.5c0.7,0,1.5,0,2.2,0.7c0.7,0,2.2,0.7,2.9,0.7c2.2,0,2.9-0.7,3.7-1.5c0.7-0.7,0.7-2.2,0.7-3.7
			c-0.7-2.9-3.7-4.4-6.6-5.9l-2.2-1.5c-2.2-1.5-4.4-3.7-4.4-5.1c0-1.5,0-2.9,1.5-4.4c0.7-0.7,0.7-0.7,0.7-0.7c0.7,0,2.9,1.5,4.4,2.2
			c1.5,1.5,3.7,2.9,5.1,2.9c0.7,0,1.5,0,2.2-0.7c5.1-3.7,1.5-8.8,0.7-10.3c-1.5-2.2-1.5-4.4-0.7-6.6c1.5-2.2,3.7-3.7,6.6-3.7l0,0
			c2.9,0,5.1,1.5,5.9,2.9c1.5,2.2,0.7,5.1-0.7,8.1c-0.7,1.5-4.4,5.9-0.7,11c0.7,0.7,1.5,1.5,2.9,1.5s3.7-0.7,5.1-2.2
			c1.5-0.7,2.9-2.2,4.4-2.2c0,0,0.7,0,1.5,1.5C500.7,354.9,500.7,357.9,500,359.3z"/>
		<path class="st1" d="M471.4,241.4c-3.7-3.7-8.8-4.4-13.9-1.5c-3.7,2.2-6.6,5.9-6.6,10.3c0,3.7,2.2,6.6,5.9,8.8
			c2.9,1.5,2.9,2.9,2.9,3.7l0,0c-0.7,0-1.5,0-2.9,0c-1.5,0-2.9-0.7-4.4-0.7c-4.4,0-5.9,2.9-5.9,5.1c-0.7,2.9,0,5.9,1.5,7.3
			c2.2,2.2,5.1,3.7,9.5,3.7h0.7c1.5,0,5.1,0,5.9,0.7l0,0c-0.7,0-1.5,0.7-2.2,0.7c-2.2,0.7-7.3,2.2-5.9,7.3c1.5,5.9,6.6,6.6,8.8,6.6
			h1.5c2.2,0.7,2.9,0.7,2.9,0.7s-0.7,0-0.7,0.7c-1.5,0.7-2.9,1.5-2.9,3.7c0,0.7,0,2.2,0.7,3.7c2.9,4.4,9.5,4.4,13.2,4.4
			c0.7,2.9,0.7,2.9,1.5,2.9l0,0h0.7c0,0,0.7-0.7,0.7-2.9c6.6-2.2,10.3-5.1,10.3-8.8c0.7-4.4-3.7-5.1-5.1-5.9h-0.7
			c0-0.7,0.7-1.5,2.2-2.9c0.7,0,0.7-0.7,1.5-0.7l0,0c2.2-1.5,6.6-5.1,4.4-11.7c-1.5-3.7-3.7-4.4-5.1-4.4c-1.5,0-2.9,0.7-3.7,0.7
			c-0.7,0-1.5,0.7-2.2,0.7c-0.7-0.7,0.7-2.9,2.9-4.4c0.7-0.7,0.7-0.7,1.5-1.5c2.9-2.9,4.4-5.9,4.4-9.5c0-3.7-2.2-6.6-5.1-8.8
			c-1.5-0.7-2.9-1.5-3.7-1.5c-3.7,0-5.1,3.7-6.6,5.9c-0.7,1.5-1.5,2.2-1.5,2.9c-1.5-0.7-1.5-1.5-1.5-5.9
			C474.3,247.3,473.6,244.3,471.4,241.4z M474.3,260.4c0.7,0,0.7,0,1.5,0c2.2,0,3.7-2.2,5.1-5.1c0.7-1.5,2.2-3.7,2.9-3.7
			c0,0,0.7,0,1.5,0.7c2.2,1.5,3.7,3.7,3.7,5.9s-0.7,4.4-2.9,6.6c0,0-0.7,0.7-1.5,1.5c-2.9,2.2-6.6,6.6-3.7,10.3
			c0.7,1.5,2.2,1.5,3.7,1.5s2.2-0.7,3.7-0.7c0.7,0,1.5-0.7,2.2-0.7c0,0,0.7,0,1.5,1.5c0.7,3.7-0.7,5.9-2.9,7.3l0,0
			c-0.7,0-0.7,0.7-1.5,0.7c-2.2,1.5-4.4,3.7-3.7,7.3c0.7,2.2,2.9,2.9,4.4,2.9c0.7,0,1.5,0,1.5,0.7c0,0,0,0,0,0.7
			c0,1.5-1.5,2.9-6.6,5.1c0-2.2-0.7-5.1-1.5-9.5c-2.9-17.6-15.4-43.2-16.8-43.2c0,0,0,0-0.7,0c-0.7,0.7-0.7,0.7,1.5,4.4
			c2.9,7.3,10.3,24.9,12.5,39.6c0.7,3.7,1.5,6.6,1.5,9.5c-5.9,0-8.1-1.5-8.1-2.9l0,0c0,0,0.7-0.7,1.5-0.7c1.5-0.7,3.7-2.2,2.9-4.4
			c-0.7-3.7-3.7-4.4-6.6-5.1h-1.5c-2.9-0.7-5.1-1.5-5.9-3.7c0-1.5,0-1.5,2.9-2.2c2.2-0.7,5.1-1.5,5.1-4.4c0-1.5,0-2.2-1.5-2.9
			c-2.2-2.2-5.1-2.2-8.8-2.2H459c-2.9,0-5.1-0.7-5.9-2.2c-0.7-0.7-0.7-2.2-0.7-4.4c0-0.7,0.7-1.5,2.2-1.5c0.7,0,2.2,0,3.7,0.7
			c1.5,0,2.2,0.7,3.7,0.7c2.2,0,3.7-1.5,3.7-2.2c0.7-2.2,1.5-5.9-4.4-9.5c-2.2-1.5-3.7-2.9-3.7-5.1c0-2.2,1.5-5.1,4.4-6.6
			c2.9-2.2,6.6-1.5,8.8,0.7c1.5,1.5,2.2,3.7,1.5,6.6C470,253.8,469.2,259,474.3,260.4z"/>
		<path class="st1" d="M393,175.5c-2.2,4.4-2.2,8.1-0.7,11.7c1.5,2.9,5.1,5.1,9.5,5.1c3.7,0,4.4,1.5,4.4,2.2c-0.7,0-1.5,0.7-2.9,0.7
			c-2.9,0.7-5.9,2.2-6.6,4.4c-0.7,1.5-0.7,2.9,0,4.4c2.2,6.6,7.3,8.1,15.4,5.1l0.7-0.7c1.5-0.7,3.7-2.2,5.1-2.2l0,0
			c0,0.7-0.7,1.5-1.5,1.5c-1.5,1.5-2.9,2.9-2.9,5.1c0,1.5,0.7,2.9,1.5,3.7c1.5,1.5,3.7,2.9,5.9,2.9c2.2,0,3.7-0.7,5.1-0.7l1.5-0.7
			c1.5-0.7,2.9-0.7,2.9-0.7s0,0.7-0.7,0.7c-0.7,1.5-1.5,2.9-1.5,4.4c0,0.7,0.7,2.2,2.2,2.9c0.7,0.7,2.2,0.7,3.7,0.7
			c2.9,0,6.6-1.5,9.5-2.9c2.2,2.2,2.2,2.2,2.9,2.2h0.7l0,0v-0.7c0,0,0-0.7-1.5-2.9c5.1-5.1,6.6-9.5,5.1-13.2
			c-1.5-2.9-2.9-2.9-4.4-2.9c-0.7,0-2.2,0-2.9,0.7h-0.7c0-0.7,0-1.5,0.7-3.7c0-0.7,0.7-0.7,0.7-1.5l0,0c0.7-2.2,2.9-7.3-2.2-12.5
			c-1.5-1.5-2.9-2.2-4.4-2.2c-2.2,0-4.4,2.2-5.1,3.7c-0.7,0.7-1.5,1.5-1.5,1.5c-0.7-0.7-0.7-2.9,0.7-5.9c0-0.7,0-1.5,0.7-1.5
			c1.5-3.7,0.7-7.3-0.7-10.3c-1.5-2.9-4.4-5.1-8.8-5.9c-2.9-0.7-4.4,0.7-5.1,1.5c-2.2,2.2-2.2,5.1-2.2,8.1c0,0.7,0,2.2,0,2.9
			c-1.5,0-2.2-0.7-3.7-3.7c-2.2-4.4-5.9-7.3-10.3-7.3C398.9,169.6,395.2,171.8,393,175.5z M396.7,177.7c1.5-2.2,3.7-3.7,5.9-3.7
			c2.9,0,5.1,1.5,6.6,5.1c1.5,2.9,3.7,6.6,8.1,6.6h0.7c3.7,0,3.7-4.4,3.7-7.3c0-1.5,0-4.4,0.7-4.4c0,0,0,0,0.7,0h0.7
			c2.9,0.7,5.1,2.2,5.9,3.7c0.7,1.5,1.5,4.4,0.7,6.6c0,0.7,0,0.7-0.7,1.5c-0.7,3.7-2.9,8.8,2.2,11c0.7,0,1.5,0.7,1.5,0.7
			c2.2,0,3.7-1.5,4.4-2.9c0.7-0.7,1.5-2.2,2.2-2.2c0,0,0.7,0,1.5,0.7c2.9,2.9,2.2,5.9,0.7,8.1l0,0c0,0.7,0,0.7-0.7,1.5
			c-0.7,2.9-2.2,5.1,0,8.1c0.7,0.7,1.5,1.5,2.9,1.5c0.7,0,1.5,0,2.2-0.7c0.7,0,1.5-0.7,1.5-0.7s0,0,0,0.7c0.7,0.7,0.7,3.7-3.7,8.1
			c-1.5-2.2-2.9-4.4-5.9-7.3c-9.5-11.7-27.1-24.2-32.2-27.8c-2.2-2.2-2.9-2.2-2.9-2.2l0,0l-0.7-0.7l0,0c0,0.7,0,0.7,2.9,2.2l0,0
			c6.6,5.1,21.2,18.3,30.8,29.3c2.2,2.9,4.4,5.1,5.9,7.3c-1.5,0.7-4.4,2.2-6.6,2.2c-0.7,0-1.5,0-1.5,0l0,0c0,0,0.7-0.7,0.7-1.5
			c0.7-1.5,2.2-2.9,0.7-5.1c-0.7-1.5-2.2-2.2-3.7-2.2s-2.9,0.7-4.4,0.7l-2.9,1.5c-0.7,0-2.2,0.7-3.7,0.7s-2.2-0.7-2.9-1.5
			c-0.7-0.7-0.7-0.7-0.7-0.7c0-0.7,1.5-1.5,2.2-2.2c1.5-1.5,3.7-3.7,2.2-6.6c-0.7-1.5-2.2-2.2-4.4-2.2c-2.2,0-5.1,1.5-7.3,2.2h-0.7
			c-1.5,0.7-3.7,1.5-5.1,1.5c-1.5,0-3.7-0.7-4.4-3.7c0-0.7,0-1.5,0-1.5c0.7-0.7,2.9-1.5,4.4-2.2c2.2-0.7,5.9-2.2,5.9-5.1
			s-1.5-5.9-8.1-6.6c-2.9,0-5.1-1.5-5.9-2.9C394.5,182.8,395.2,180.6,396.7,177.7z"/>
		<path class="st1" d="M198.9,377.7l9.5-24.9h-5.1l-5.1,13.2c-0.7,2.2-1.5,4.4-2.2,6.6l0,0c-0.7-2.2-1.5-4.4-2.2-6.6l-5.1-12.5h-5.9
			l9.5,24.9h6.6V377.7z"/>
		<polygon class="st1" points="229.7,373.3 220.2,373.3 220.2,366.7 228.9,366.7 228.9,363 220.2,363 220.2,357.1 229.7,357.1 
			229.7,352.7 215,352.7 215,377.7 229.7,377.7 		"/>
		<polygon class="st1" points="248,377.7 248,357.1 254.6,357.1 254.6,352.7 236.3,352.7 236.3,357.1 242.9,357.1 242.9,377.7 		"/>
		<polygon class="st1" points="276.6,357.1 276.6,352.7 261.9,352.7 261.9,377.7 276.6,377.7 276.6,373.3 267,373.3 267,366.7 
			275.8,366.7 275.8,363 267,363 267,357.1 		"/>
		<path class="st1" d="M301.5,365.9l-8.8-13.2h-6.6v24.9h5.1v-13.2c0-2.2,0-3.7,0-5.1l0,0c0.7,1.5,1.5,2.9,2.2,4.4l8.8,13.2h6.6V352
			h-5.1v11c0,2.9,0,5.9,0,7.3l0,0C302.9,369.6,302.2,367.4,301.5,365.9z"/>
		<path class="st1" d="M324.2,374c-2.2,0-3.7-0.7-5.1-0.7v4.4c1.5,0,3.7,0.7,5.1,0.7c6.6,0,11-2.9,11-8.1c0-8.1-11-5.9-11-10.3
			c0-2.2,1.5-2.9,4.4-2.9c1.5,0,3.7,0,4.4,0.7v-4.4c-1.5,0-2.9-0.7-4.4-0.7c-6.6,0-10.3,2.9-10.3,8.1c0,8.1,11,5.9,11,10.3
			C328.6,372.5,326.4,374,324.2,374z"/>
		<polygon class="st1" points="343.2,352.7 343.2,377.7 348.3,377.7 348.3,365.9 357.1,377.7 364.5,377.7 353.5,365.2 363.7,352.7 
			357.1,352.7 348.3,363.7 348.3,352.7 		"/>
		<path class="st1" d="M374.7,372.5H385l1.5,5.1h5.9l-9.5-24.9h-5.9l-9.5,24.9h5.9L374.7,372.5z M379.1,362.3
			c0.7-1.5,0.7-2.9,1.5-3.7l0,0c0,1.5,0.7,2.9,1.5,3.7l2.2,6.6h-8.1L379.1,362.3z"/>
		<path class="st1" d="M408.4,352.7c-2.9,0-5.9,0-8.1,0v24.9h5.1v-8.1c0.7,0,1.5,0,2.2,0c6.6,0,10.3-3.7,10.3-8.8
			C417.9,355.7,414.3,352.7,408.4,352.7z M407.7,365.9c-0.7,0-1.5,0-2.2,0v-8.1c0.7,0,1.5,0,2.2,0c2.9,0,5.1,1.5,5.1,4.4
			C412.8,363.7,410.6,365.9,407.7,365.9z"/>
		<path class="st1" d="M198.9,419.4c7.3,0,13.2-5.1,13.2-13.2s-5.1-12.5-12.5-12.5c-6.6,0-12.5,5.1-12.5,13.2
			C187.2,414.3,191.6,419.4,198.9,419.4z M199.6,398.2c4.4,0,7.3,2.9,7.3,8.1c0,5.9-2.9,8.1-7.3,8.1c-5.1,0-6.6-3.7-6.6-8.1
			C193,401.1,196,398.2,199.6,398.2z"/>
		<path class="st1" d="M230.4,419.4c2.2,0,4.4-0.7,6.6-0.7l-0.7-4.4c-1.5,0.7-3.7,1.5-5.1,1.5c-5.1,0-8.1-2.9-8.1-8.1
			s2.9-8.1,7.3-8.1c1.5,0,3.7,0,5.1,0.7l0.7-4.4c-1.5-0.7-3.7-0.7-5.1-0.7c-9.5,0-13.2,5.9-13.2,13.2
			C218,414.3,222.3,419.4,230.4,419.4z"/>
		<polygon class="st1" points="267,418.7 267,393.8 261.9,393.8 261.9,404 250.2,404 250.2,393.8 245.1,393.8 245.1,418.7 
			250.2,418.7 250.2,408.4 261.9,408.4 261.9,418.7 		"/>
		<polygon class="st1" points="293.4,407 302.9,418.7 309.5,418.7 299.3,406.2 308.8,393.8 302.9,393.8 293.4,404.8 293.4,393.8 
			288.3,393.8 288.3,418.7 293.4,418.7 		"/>
		<path class="st1" d="M324.9,419.4c7.3,0,13.2-5.1,13.2-13.2s-5.1-12.5-12.5-12.5c-6.6,0-12.5,5.1-12.5,13.2
			C313.2,414.3,316.8,419.4,324.9,419.4z M325.6,398.2c4.4,0,6.6,2.9,6.6,8.1c0,5.9-2.9,8.1-7.3,8.1c-5.1,0-6.6-3.7-6.6-8.1
			C318.3,401.1,322,398.2,325.6,398.2z"/>
		<path class="st1" d="M352.7,405.5l8.8,13.2h6.6v-24.9H363v11c0,2.9,0,5.9,0,7.3l0,0c-0.7-1.5-1.5-3.7-2.9-5.1l-8.1-13.2h-6.6v24.9
			h5.1v-13.2c0-2.2,0-3.7,0-5.1l0,0C351.3,401.8,352,404,352.7,405.5z"/>
		<path class="st1" d="M382.8,415c-2.2,0-3.7-0.7-5.1-0.7v4.4c1.5,0,3.7,0.7,5.1,0.7c6.6,0,11-2.9,11-8.1c0-8.1-11-5.9-11-10.3
			c0-2.2,1.5-2.9,4.4-2.9c1.5,0,3.7,0,4.4,0.7v-4.4c-1.5,0-2.9-0.7-4.4-0.7c-6.6,0-10.3,2.9-10.3,8.1c0,8.1,11,5.9,11,10.3
			C387.9,413.5,385.7,415,382.8,415z"/>
		<polygon class="st1" points="409.9,418.7 409.9,398.2 417.2,398.2 417.2,393.8 398.2,393.8 398.2,398.2 404.8,398.2 404.8,418.7 
					"/>
		<path class="st1" d="M219.4,324.2L219.4,324.2c-13.2-1.5-13.9-4.4-13.9-14.7v-18.3l21.2,23.4c8.1,8.8,12.5,13.9,24.9,13.9
			c2.2,0,4.4,0,7.3-0.7h0.7v-2.9H259c-7.3,0-11-4.4-19-12.5c-0.7-1.5-2.2-2.2-3.7-3.7l-20.5-23.4l8.8-8.8l1.5-2.2
			c7.3-7.3,15.4-16.1,25.6-16.8h0.7v-2.9h-28.6v2.9h0.7c2.9,0,4.4,0.7,5.1,2.2c0.7,2.2-1.5,6.6-7.3,13.2l-16.8,17.6v-17.6
			c0-11,0.7-13.2,10.3-14.7h0.7v-2.9h-34.4v2.9h0.7c11.7,1.5,11.7,4.4,12.5,14.7v36.6c0,11-0.7,13.2-12.5,14.7h-0.7v2.9h37.4V324.2
			L219.4,324.2z"/>
		<path class="st1" d="M313.9,324.2L313.9,324.2c-13.9-1.5-14.7-4.4-14.7-17.6V259h5.9c12.5,0,17.6,3.7,20.5,16.1v0.7l2.9-0.7
			l-1.5-20.5h-66.7l-1.5,20.5l2.9,0.7v-0.7c3.7-11.7,8.1-16.1,20.5-16.1h5.9v47.6c0,12.5-0.7,16.1-13.9,17.6h-0.7v2.9h39.6
			L313.9,324.2L313.9,324.2z"/>
		<path class="st1" d="M420.9,257.5L420.9,257.5l0.7-2.9h-37.4v2.9h0.7c13.2,2.2,13.2,3.7,13.2,14.7v14.7h-38.1v-14.7
			c0-11,0-13.2,13.2-14.7h0.7v-2.9h-37.4v2.9h0.7c11.7,1.5,11.7,4.4,12.5,14.7v36.6c0,11-0.7,13.2-12.5,14.7h-0.7v2.9H374v-2.9h-0.7
			c-13.2-2.2-13.2-3.7-13.2-14.7v-16.1h38.1v16.8c0,11,0,13.2-13.2,14.7h-0.7v2.9h37.4v-2.9h-0.7c-11.7-1.5-11.7-4.4-12.5-14.7
			v-36.6C408.4,261.9,408.4,259,420.9,257.5z"/>
		<path class="st1" d="M212.8,159.3c0,0.7-2.2,4.4,0.7,8.1c2.9,4.4,7.3,3.7,7.3,3.7c2.9,4.4,8.8,8.8,13.2,7.3
			c0,0,27.8-12.5,65.9-13.2l0,0c38.1,0,65.9,13.2,65.9,13.2c4.4,1.5,9.5-3.7,13.2-7.3c0,0,5.1,0.7,7.3-3.7c2.2-3.7,0.7-7.3,0.7-8.1
			c2.2-3.7,5.9-7.3,5.9-7.3c1.5-1.5,2.9-3.7,2.9-5.9c0-4.4-3.7-8.1-8.1-8.1c-0.7,0-0.7,0-0.7,0v-0.7c2.2-1.5,3.7-3.7,3.7-5.9
			c0-3.7-2.9-6.6-6.6-6.6c-1.5,0-2.2,0.7-3.7,0.7l-0.7-0.7c0.7-0.7,1.5-2.2,1.5-4.4c0-2.9-2.2-5.9-5.9-5.9c-2.2,0-3.7,0.7-4.4,2.2
			l-0.7-0.7c0.7-0.7,0.7-2.2,0.7-2.9c0-2.9-2.2-5.1-5.1-5.1c-2.2,0-4.4,1.5-5.1,3.7c-0.7,0-0.7-0.7-1.5-0.7c-0.7,0,0-0.7,0-1.5
			c0-2.9-2.2-4.4-4.4-4.4c-2.2,0-4.4,1.5-4.4,3.7h-0.7c-0.7-2.9-2.9-4.4-6.6-4.4c-0.7,0-1.5,0-2.2,0l-0.7-0.7l0,0
			c0-2.9-2.2-5.9-5.9-5.9c-1.5,0-2.2,0.7-2.9,0.7h-0.7l0,0c0-2.9-2.2-5.1-5.1-5.1c-2.2,0-3.7,0.7-4.4,2.9c-0.7,0-0.7,0-1.5,0l0,0
			c0-2.2-2.2-4.4-4.4-4.4s-3.7,1.5-4.4,3.7c-0.7,0-0.7,0-1.5,0c0.7-1.5,0.7-2.9,0.7-4.4c0-4.4-2.2-8.1-5.9-9.5c0,0-1.5-0.7-2.9-0.7
			c0-3.7,0-8.1,0-8.1h4.4c0,0,0.7-0.7,0.7-2.2c0-0.7,0-1.5-0.7-2.2c-0.7,0-4.4,0-4.4,0v-5.9c0,0-0.7-0.7-2.2-0.7l0,0
			c-1.5,0-1.5,0-2.2,0.7V67h-4.4c0,0-0.7,0.7-0.7,2.2s0,1.5,0.7,2.2c0.7,0,4.4,0,4.4,0s0,4.4,0,8.1c-1.5,0-2.9,0.7-2.9,0.7
			c-3.7,1.5-5.9,5.1-5.9,9.5c0,1.5,0,2.9,0.7,4.4c-0.7,0-0.7,0-1.5,0c-0.7-2.2-2.2-3.7-4.4-3.7c-2.2,0-4.4,2.2-4.4,4.4l0,0
			c-0.7,0-0.7,0-1.5,0c-0.7-1.5-2.2-2.9-4.4-2.9c-2.9,0-5.1,2.2-5.1,5.1l0,0H267c-0.7-0.7-2.2-0.7-2.9-0.7c-2.9,0-5.9,2.2-5.9,5.9
			l0,0l-0.7,0.7c-0.7,0-1.5,0-2.2,0c-2.9,0-5.1,2.2-6.6,4.4H248c0-2.2-2.2-3.7-4.4-3.7c-2.9,0-4.4,2.2-4.4,4.4c0,0.7,0,1.5,0.7,2.2
			c-0.7,0-0.7,0.7-1.5,0.7c-0.7-2.2-2.9-3.7-5.1-3.7c-2.9,0-5.1,2.2-5.1,5.1c0,1.5,0.7,2.2,0.7,2.9l-0.7,0.7
			c-0.7-1.5-2.9-2.2-4.4-2.2c-2.9,0-5.9,2.2-5.9,5.9c0,1.5,0.7,2.9,1.5,4.4l-0.7,0.7c-0.7-0.7-2.2-0.7-3.7-0.7
			c-3.7,0-6.6,2.9-6.6,6.6c0,2.9,1.5,5.1,3.7,5.9v0.7h-0.7c-4.4,0-8.1,3.7-8.1,8.1c0,2.2,0.7,4.4,2.9,5.9
			C207.7,152.8,210.6,155.7,212.8,159.3z M220.2,168.1c-2.9,0-5.1-2.2-5.1-5.1c0-0.7,0-2.2,0.7-2.9c0.7-1.5,2.2-2.2,4.4-2.2
			c2.2,0,2.9,0.7,4.4,2.2c0.7,0.7,0.7,1.5,0.7,2.9C225.3,165.9,223.1,168.1,220.2,168.1z M300,151.3c-2.9,0-5.1-2.2-5.1-5.1
			c0-2.9,2.2-5.1,5.1-5.1s5.1,2.2,5.1,5.1C305.1,149.1,302.9,151.3,300,151.3z M300,112.5c2.9,0,5.1,2.2,5.1,5.1
			c0,2.9-2.2,5.1-5.1,5.1s-5.1-2.2-5.1-5.1C294.9,114.7,297.1,112.5,300,112.5z M296.3,107.3c0-2.2,1.5-3.7,3.7-3.7s3.7,1.5,3.7,3.7
			c0,2.2-1.5,3.7-3.7,3.7S296.3,109.5,296.3,107.3z M300,124.2c3.7,0,5.9,2.9,5.9,5.9c0,1.5-0.7,2.9-1.5,4.4
			c-1.5-0.7-2.9-1.5-4.4-1.5c-1.5,0-3.7,0.7-4.4,1.5c-0.7-0.7-1.5-2.2-1.5-4.4C294.1,127.1,296.3,124.2,300,124.2z M379.8,168.1
			c-2.9,0-5.1-2.2-5.1-5.1c0-1.5,0.7-2.9,1.5-3.7c0.7-0.7,2.2-1.5,3.7-1.5c2.2,0,3.7,1.5,4.4,3.7c0,0.7,0,1.5,0,1.5
			C385,165.9,382.8,168.1,379.8,168.1z M387.2,141c2.9,0,5.1,2.2,5.1,5.1c0,2.2-2.2,4.4-3.7,5.1c-1.5-1.5-3.7-2.9-5.9-2.9H382
			c-0.7-0.7-0.7-1.5-0.7-2.9C381.3,143.2,384.2,141,387.2,141z M382.8,127.8c2.2,0,4.4,1.5,4.4,4.4s-1.5,4.4-4.4,4.4
			c-2.2,0-4.4-1.5-4.4-4.4S380.6,127.8,382.8,127.8z M374.7,118.3c1.5,0,2.9,1.5,2.9,2.9c0,1.5-1.5,2.9-2.9,2.9
			c-1.5,0-2.9-1.5-2.9-2.9C371.8,119.8,373.3,118.3,374.7,118.3z M365.2,111.7c1.5,0,2.2,0.7,2.2,2.2c0,1.5-0.7,2.2-2.2,2.2
			c-1.5,0-2.2-0.7-2.2-2.2C363,112.5,363.7,111.7,365.2,111.7z M354.2,107.3c0.7,0,2.2,0.7,2.2,2.2c0,0.7-0.7,2.2-2.2,2.2
			c-0.7,0-2.2-0.7-2.2-2.2C352,108.1,353.5,107.3,354.2,107.3z M348.3,113.2c16.1,5.1,24.2,12.5,27.8,20.5c2.9,7.3,2.2,8.8,2.9,13.2
			c0,1.5,0.7,2.9,0.7,3.7c-3.7,2.2-4.4,4.4-4.4,5.1c0,0,0,0-0.7,0c-1.5-0.7-2.9-1.5-5.1-1.5c-5.9,0-9.5,5.9-7.3,11
			c0.7,1.5,3.7,5.9,10.3,3.7c0.7,0.7,0.7,0.7,1.5,1.5c-1.5,3.7-5.9,5.1-9.5,3.7s-6.6-4.4-7.3-8.1c-2.9,2.2-6.6,3.7-11,2.9
			c-4.4-0.7-7.3-5.1-5.9-9.5c0-0.7,0.7-2.2,0.7-2.2c0.7,2.9,2.9,5.1,5.9,5.9c4.4,0.7,8.1-2.2,8.8-5.9c0.7-4.4-2.2-8.1-5.9-8.8
			c-0.7,0-0.7,0-1.5,0v-0.7c0-0.7,0-1.5,0-2.9c3.7-0.7,6.6-4.4,6.6-8.8c0-2.9-1.5-5.9-4.4-7.3c2.2-1.5,3.7-3.7,3.7-6.6
			C354.9,116.9,352,113.9,348.3,113.2L348.3,113.2z M342.5,137.4c-0.7,0-1.5,0-2.2,0c0-0.7-0.7-1.5-0.7-2.2c0-3.7,2.9-5.9,5.9-5.9
			s5.9,2.9,5.9,5.9c0,2.9-2.2,5.1-4.4,5.9C346.9,138.8,344.7,137.4,342.5,137.4z M352,121.3c0,2.2-2.2,4.4-4.4,4.4
			c-2.2,0-4.4-2.2-4.4-4.4c0-2.2,2.2-4.4,4.4-4.4C349.8,116.9,352,118.3,352,121.3z M342.5,106.6c2.2,0,3.7,1.5,3.7,3.7
			c0,2.2-1.5,3.7-3.7,3.7c-2.2,0-3.7-1.5-3.7-3.7C338.8,108.1,340.3,106.6,342.5,106.6z M340.3,145.4c2.9,0,5.1,2.2,5.1,5.1
			c0,2.9-2.2,5.1-5.1,5.1c-2.9,0-5.1-2.2-5.1-5.1C335.2,147.6,337.4,145.4,340.3,145.4z M334.4,100c1.5,0,2.9,1.5,2.9,2.9
			c0,1.5-1.5,2.9-2.9,2.9s-2.9-1.5-2.9-2.9S333,100,334.4,100z M325.6,95.6c1.5,0,2.2,0.7,2.2,2.2s-0.7,2.2-2.2,2.2
			c-1.5,0-2.2-0.7-2.2-2.2S324.2,95.6,325.6,95.6z M315.4,93.4c0.7,0,1.5,0.7,1.5,1.5c0,0.7-0.7,1.5-1.5,1.5c-0.7,0-1.5-0.7-1.5-1.5
			C313.9,94.2,314.7,93.4,315.4,93.4z M335.2,136.6l1.5,2.2c-1.5,0.7-2.2,2.9-2.9,4.4v0.7c-0.7,0-0.7-0.7-1.5-0.7
			c-4.4-0.7-8.1,2.2-8.8,5.9c-0.7,4.4,2.2,8.1,5.9,8.8c2.9,0.7,5.9-0.7,8.1-3.7c0,0.7,0,2.2,0,2.9c-0.7,4.4-5.1,7.3-9.5,5.9
			c-3.7-0.7-6.6-3.7-8.8-6.6c-2.2,2.9-5.9,5.1-9.5,5.1c-4.4,0-8.1-3.7-8.1-8.1c0-0.7,0-2.2,0-2.9c1.5,2.9,3.7,5.1,7.3,5.1
			c4.4,0,7.3-3.7,7.3-7.3c0-4.4-3.7-7.3-7.3-7.3c-0.7,0-0.7,0-1.5,0c0-0.7,0-0.7,0-0.7c0-0.7,0-1.5,0-2.2l2.9-1.5
			c0,0-0.7-25.6-5.1-37.4c0,0,0,0,0.7,0C343.2,101.5,339.6,127.8,335.2,136.6z M308.1,89.8L308.1,89.8c0,2.2-0.7,3.7-1.5,4.4
			c-0.7,0-1.5,0-2.2,0v-0.7c0-1.5-0.7-2.9-2.2-3.7H308.1z M302.2,82.4c2.2,0.7,4.4,2.2,5.1,4.4h-5.1V82.4z M300,91.2
			c0.7,0,1.5,0.7,1.5,1.5s-0.7,2.2-1.5,2.2s-1.5-0.7-1.5-1.5C298.5,92,299.3,91.2,300,91.2z M300,96.3c1.5,0,2.9,1.5,2.9,2.9
			s-1.5,2.9-2.9,2.9s-2.9-1.5-2.9-2.9C297.1,97.8,298.5,96.3,300,96.3z M297.8,82.4v4.4h-5.1C294.1,84.6,295.6,83.2,297.8,82.4z
			 M291.9,89.8h5.9c-1.5,0.7-2.2,2.2-2.2,3.7v0.7c-0.7,0-2.2,0-2.2,0C292.7,92.7,291.9,91.2,291.9,89.8L291.9,89.8z M284.6,93.4
			c0.7,0,1.5,0.7,1.5,1.5c0,0.7-0.7,1.5-1.5,1.5c-0.7,0-1.5-0.7-1.5-1.5C282.4,94.2,283.2,93.4,284.6,93.4z M274.4,95.6
			c1.5,0,2.2,0.7,2.2,2.2s-0.7,2.2-2.2,2.2s-2.2-0.7-2.2-2.2C272.2,97.1,272.9,95.6,274.4,95.6z M265.6,100c1.5,0,2.9,1.5,2.9,2.9
			c0,1.5-1.5,2.9-2.9,2.9s-2.9-1.5-2.9-2.9S264.1,100,265.6,100z M294.9,99.3L294.9,99.3c-4.4,11.7-4.4,37.4-4.4,37.4l2.2,2.2
			c0,0.7,0,1.5,0,2.2v0.7c-0.7,0-0.7,0-1.5,0c-4.4,0-7.3,3.7-7.3,7.3c0,4.4,3.7,7.3,7.3,7.3c2.9,0,5.9-2.2,7.3-5.1
			c0,0.7,0,2.2,0,2.9c0,4.4-3.7,8.1-8.1,8.1c-4.4,0-7.3-2.2-9.5-5.1c-1.5,3.7-4.4,5.9-8.8,6.6c-4.4,0.7-8.1-2.2-9.5-5.9
			c0-0.7,0-2.2,0-2.9c1.5,2.2,4.4,3.7,8.1,3.7c4.4-0.7,6.6-5.1,5.9-8.8c-0.7-4.4-5.1-6.6-8.8-5.9c-0.7,0-0.7,0-1.5,0.7
			c0-0.7,0-0.7,0-0.7c0-2.2-1.5-3.7-2.9-4.4l1.5-2.2C260.4,127.8,256.8,101.5,294.9,99.3z M264.8,150.6c0,2.9-2.2,5.1-5.1,5.1
			c-2.9,0-5.1-2.2-5.1-5.1c0-2.9,2.2-5.1,5.1-5.1C262.6,145.4,264.8,147.6,264.8,150.6z M252.4,141c-2.9-0.7-4.4-2.9-4.4-5.9
			c0-3.7,2.9-5.9,5.9-5.9s5.9,2.9,5.9,5.9c0,0.7,0,1.5-0.7,2.2c-0.7,0-1.5,0-2.2,0C255.3,137.4,253.1,138.8,252.4,141z M257.5,106.6
			c2.2,0,3.7,1.5,3.7,3.7c0,2.2-1.5,3.7-3.7,3.7c-2.2,0-3.7-1.5-3.7-3.7C253.8,108.1,255.3,106.6,257.5,106.6z M253.1,116.1
			c2.2,0,4.4,2.2,4.4,4.4c0,2.2-2.2,4.4-4.4,4.4c-2.2,0-4.4-2.2-4.4-4.4C248,118.3,250.2,116.1,253.1,116.1z M245.8,107.3
			c0.7,0,2.2,0.7,2.2,2.2c0,0.7-0.7,2.2-2.2,2.2c-0.7,0-2.2-0.7-2.2-2.2C243.6,108.1,244.3,107.3,245.8,107.3z M234.8,111.7
			c1.5,0,2.2,0.7,2.2,2.2c0,1.5-0.7,2.2-2.2,2.2s-2.2-0.7-2.2-2.2C232.6,112.5,234.1,111.7,234.8,111.7z M251.7,113.2L251.7,113.2
			c-3.7,0.7-6.6,4.4-6.6,8.1c0,2.9,1.5,5.1,3.7,6.6c-2.9,1.5-4.4,4.4-4.4,7.3c0,4.4,2.9,7.3,6.6,8.8c0,0.7,0,1.5,0,2.9v0.7
			c-0.7,0-0.7,0-1.5,0c-4.4,0.7-6.6,5.1-5.9,8.8c0.7,4.4,5.1,6.6,8.8,5.9c2.9-0.7,5.1-2.9,5.9-5.9c0,0.7,0.7,2.2,0.7,2.2
			c0.7,4.4-2.2,8.1-5.9,9.5c-3.7,0.7-8.1-0.7-11-2.9c-0.7,3.7-3.7,6.6-7.3,8.1s-8.1,0-9.5-3.7c0.7-0.7,0.7-0.7,1.5-1.5
			c6.6,2.2,9.5-2.2,10.3-3.7c2.2-5.1-1.5-11-7.3-11c-2.2,0-3.7,0.7-5.1,1.5c0,0,0,0-0.7,0c0,0-0.7-2.9-4.4-5.1
			c0-0.7,0.7-2.2,0.7-3.7c0-4.4,0-5.9,2.9-13.2C227.5,125.7,236.3,118.3,251.7,113.2z M225.3,118.3c1.5,0,2.9,1.5,2.9,2.9
			c0,1.5-1.5,2.9-2.9,2.9s-2.9-1.5-2.9-2.9C222.3,119.8,223.8,118.3,225.3,118.3z M213.6,131.5c0-2.2,1.5-4.4,4.4-4.4
			c2.2,0,4.4,1.5,4.4,4.4s-2.2,4.4-4.4,4.4C215,135.9,213.6,133.7,213.6,131.5z M212.8,141c2.9,0,5.1,2.2,5.1,5.1
			c0,0.7,0,2.2-0.7,2.9h-0.7c-2.2,0-4.4,0.7-5.9,2.9c-1.5-0.7-3.7-3.7-3.7-5.1C207.7,143.2,209.9,141,212.8,141z"/>
		<path class="st1" d="M355.7,199.6c0.7,0,1.5-0.7,1.5-1.5s0-2.2-0.7-2.2c-17.6-6.6-36.6-10.3-55.7-10.3h-1.5
			c-19,0-38.1,3.7-55.7,10.3c-0.7,0-1.5,1.5-0.7,2.2c0,0.7,1.5,1.5,2.2,0.7c17.6-6.6,35.9-9.5,54.2-9.5h1.5
			C319.8,190.1,338.1,193,355.7,199.6L355.7,199.6z"/>
		<path class="st1" d="M366.7,189.4l-2.9-6.6l-0.7-0.7l-3.7,0.7c-18.3-7.3-37.4-11-57.1-11l-2.2-2.9l-2.9,1.5
			c-19.8,0-38.8,4.4-57.1,11l-3.7-0.7v2.2l-2.9,6.6l7.3,4.4l2.2-2.9c16.8-6.6,34.4-9.5,52.7-10.3l4.4,2.2l3.7-2.2
			c18.3,0.7,35.9,3.7,52.7,10.3l2.2,2.9L366.7,189.4z M239.9,190.1c-0.7-0.7-2.2-1.5-3.7-2.2c0.7-1.5,0.7-2.9,1.5-3.7
			c1.5,0,3.7,0.7,5.9,0.7C242.9,187.2,241.4,189.4,239.9,190.1z M271.4,181.3l-5.9,1.5c-1.5,0-2.9-0.7-3.7-2.2
			c0-1.5,0.7-2.9,2.2-3.7l6.6-1.5c1.5,0,2.9,0.7,3.7,2.2C274.4,179.1,273.6,180.6,271.4,181.3z M300,179.9l-6.6-3.7l6.6-3.7l6.6,3.7
			L300,179.9z M338.1,179.9c0,1.5-2.2,2.9-3.7,2.2l-5.9-1.5c-1.5,0-2.9-2.2-2.2-3.7c0-1.5,2.2-2.9,3.7-2.2l5.9,1.5
			C337.4,176.9,338.1,178.4,338.1,179.9z M355.7,185.7c2.2,0,4.4-0.7,5.9-0.7c0.7,0.7,0.7,2.2,1.5,3.7c-0.7,0.7-2.2,1.5-3.7,2.2
			C358.6,189.4,357.1,187.2,355.7,185.7z"/>
	</g>
</g>
</svg>
