<?xml version="1.0" encoding="utf-8"?>
<!-- Generator: Adobe Illustrator 21.0.0, SVG Export Plug-In . SVG Version: 6.00 Build 0)  -->
<svg version="1.1" id="Layer_1" xmlns="http://www.w3.org/2000/svg" xmlns:xlink="http://www.w3.org/1999/xlink" x="0px" y="0px"
	 viewBox="0 0 70 70" style="enable-background:new 0 0 70 70;" xml:space="preserve">
<style type="text/css">
	.st0{display:none;fill:#2258A5;}
</style>
<g>
	<rect class="st0" width="70" height="70"/>
	<g>
		<path d="M36.3,63.6c0.6-0.7,1.3-1.4,1.7-1.9c0.9-0.9,1.8-0.9,1.8-0.9s-1.1-0.5-2.2,0.6c-0.3,0.3-1,1.1-1.7,1.8
			c-0.2-0.3-0.5-0.6-0.7-0.8c0.3-0.3,0.5-0.5,0.7-0.7c0.9-0.9,1.8-0.9,1.8-0.9s-1.1-0.5-2.2,0.6c-0.1,0.1-0.4,0.4-0.6,0.7
			c-0.3-0.3-0.5-0.5-0.6-0.7c-1.1-1.1-2.2-0.6-2.2-0.6s0.9,0,1.8,0.9c0.2,0.2,0.4,0.5,0.7,0.7c-0.2,0.3-0.5,0.5-0.7,0.8
			c-0.7-0.8-1.4-1.5-1.7-1.8c-1.1-1.1-2.2-0.6-2.2-0.6s0.9,0,1.8,0.9c0.5,0.5,1.1,1.2,1.7,1.9c-0.6,0.6-1.1,1.3-1.4,1.6
			C31.5,66,30.6,66,30.6,66s0.9,0.6,2.2-0.8c0.2-0.2,0.7-0.7,1.1-1.3c0.3,0.3,0.5,0.6,0.7,0.8c-0.2,0.2-0.3,0.3-0.4,0.4
			C33.5,66,32.7,66,32.7,66s0.9,0.5,2.2-0.8c0,0,0.1-0.1,0.1-0.1c0,0,0.1,0.1,0.1,0.1c1.3,1.3,2.2,0.8,2.2,0.8s-0.9-0.1-1.6-0.8
			c-0.1-0.1-0.2-0.2-0.4-0.4c0.2-0.2,0.5-0.5,0.7-0.8c0.5,0.5,0.9,1,1.1,1.3c1.3,1.3,2.2,0.8,2.2,0.8s-0.9-0.1-1.6-0.8
			C37.5,64.9,36.9,64.3,36.3,63.6z M35,64.5c-0.2-0.2-0.5-0.5-0.7-0.8c0.2-0.3,0.5-0.6,0.7-0.8c0.2,0.3,0.5,0.5,0.7,0.8
			C35.5,63.9,35.2,64.2,35,64.5z"/>
		<path d="M11.5,24.9c0.1,0.4,0.5,0.7,1.1,0.7c0.1,0,0.3,0,0.4-0.1c0,0,0,0.1,0.1,0.1c0.1,0.1,0.2,0.2,0.3,0.3c0,0,0.1,0,0.1,0
			c0.1,0,0.1,0,0.2-0.1c0.1-0.1,0-0.2,0-0.3c-0.1,0-0.1-0.1-0.2-0.2c0,0,0,0,0,0c0.2-0.1,0.4-0.3,0.5-0.5c0.1-0.2,0.2-0.5,0.1-0.8
			c-0.1-0.2-0.3-0.3-0.4-0.3c0,0,0,0,0,0c0-0.1,0-0.1,0-0.2c-0.2-0.6-0.7-1.1-1.1-1c0,0-0.1-0.1-0.2-0.1c-0.1,0-0.1,0.1-0.2,0.2
			c-0.1,0.1-0.2,0.2-0.3,0.3c-0.2,0.3-0.2,0.8-0.1,1.2c0,0.1,0,0.1,0.1,0.2c0,0,0,0,0,0C11.5,24.5,11.4,24.7,11.5,24.9z M13.5,24.4
			c0,0.1,0,0.3-0.1,0.4c-0.1,0.2-0.3,0.4-0.6,0.4c-0.1,0-0.2,0.1-0.3,0.1c-0.3,0-0.5-0.1-0.7-0.4c0.1,0,0.2,0,0.3,0
			c0.2,0,0.4,0,0.6-0.1C13.1,24.7,13.3,24.6,13.5,24.4z M12,23.2c0-0.1,0.1-0.1,0.1-0.1c0,0,0.1,0,0.1-0.1c0,0,0.1,0,0.1,0
			c0.2,0,0.6,0.3,0.7,0.8c0.1,0.2,0.1,0.3,0.1,0.5c-0.1,0.1-0.3,0.2-0.4,0.2c-0.1,0-0.3,0.1-0.5,0.1c0,0,0,0,0,0
			c-0.1-0.1-0.2-0.3-0.2-0.4C11.8,23.8,11.9,23.4,12,23.2z"/>
		<path d="M15.8,28.1c0.3,0,0.4-0.2,0.4-0.3c0,0,0,0,0,0c0,0,0.1,0,0.1,0c0,0,0,0,0,0c0.4,0,0.8-0.2,1.1-0.5
			c0.1-0.1,0.2-0.2,0.2-0.3c0,0,0.1-0.1,0.1-0.2c0-0.1-0.1-0.2-0.1-0.2c-0.1-0.4-0.7-0.7-1.3-0.7c-0.1,0-0.1,0-0.2,0c0,0,0,0,0,0
			c0-0.1-0.2-0.3-0.4-0.3l0,0c-0.3,0-0.6,0.1-0.8,0.4c-0.1,0.1-0.2,0.3-0.2,0.5c0,0,0,0,0,0c-0.1,0-0.2-0.1-0.2-0.1
			c-0.1-0.1-0.2,0-0.3,0c-0.1,0.1,0,0.2,0,0.3c0.1,0.1,0.2,0.1,0.3,0.2c0,0,0.1,0,0.1,0C14.8,27.6,15.2,28.1,15.8,28.1
			C15.8,28.1,15.8,28.1,15.8,28.1z M16.4,26.2c0.5,0,0.9,0.3,1,0.5c0,0,0,0.1,0,0.1c0,0,0,0.1,0,0.1c0,0,0,0.1-0.1,0.2
			c-0.1,0.2-0.5,0.3-0.8,0.3c-0.2,0-0.3,0-0.5-0.1c0-0.1-0.1-0.3-0.1-0.5c0-0.2,0-0.4,0.1-0.5C16.1,26.3,16.3,26.2,16.4,26.2z
			 M15.1,26.8c0-0.2,0.1-0.5,0.2-0.6c0.1-0.1,0.2-0.2,0.4-0.2c-0.1,0.2-0.2,0.5-0.2,0.9c0,0.3,0.1,0.6,0.2,0.9
			C15.4,27.6,15.1,27.3,15.1,26.8z"/>
		<path d="M13.8,37.3c0-0.1,0-0.3,0-0.4c0-0.1,0.1-0.1,0-0.2c-0.1-0.1-0.1-0.1-0.2-0.1c-0.3-0.3-1-0.3-1.5,0c-0.1,0-0.1,0.1-0.2,0.1
			c0,0,0,0,0,0c0,0-0.1-0.1-0.3-0.1c-0.1,0-0.2,0-0.3,0.1c-0.3,0.2-0.4,0.4-0.5,0.7c0,0.2,0,0.4,0.1,0.5c0,0,0,0,0,0
			c-0.1,0-0.2,0-0.3,0c-0.1,0-0.2,0.1-0.2,0.2c0,0.1,0.1,0.2,0.2,0.2c0,0,0.1,0,0.1,0c0.1,0,0.2,0,0.2,0c0,0,0.1,0,0.1,0
			c0.2,0.4,0.6,0.7,1,0.7c0.2,0,0.4,0,0.5-0.1c0.2-0.1,0.2-0.3,0.2-0.4c0,0,0,0,0,0c0.1,0,0.1-0.1,0.2-0.1
			C13.4,38,13.7,37.6,13.8,37.3z M12.3,36.9c0.4-0.3,1-0.2,1-0.1c0,0,0,0.1,0.1,0.1c0,0,0,0.1,0,0.1c0,0,0,0.1,0,0.2
			c-0.1,0.2-0.2,0.5-0.6,0.7C12.7,38,12.6,38,12.4,38c-0.1-0.1-0.2-0.2-0.3-0.4c-0.1-0.2-0.2-0.3-0.2-0.5C12,37.1,12.1,37,12.3,36.9
			z M11.4,38c-0.1-0.2-0.2-0.4-0.2-0.6c0-0.1,0.1-0.3,0.2-0.4c0,0.2,0.1,0.6,0.3,0.9c0.2,0.3,0.4,0.5,0.6,0.6
			C12.1,38.6,11.7,38.4,11.4,38z"/>
		<path d="M7.2,37.6c0,0,0.1,0.1,0.1,0.1c0,0,0,0,0,0c0,0.1-0.1,0.3,0.1,0.5c0.2,0.2,0.4,0.3,0.7,0.3l0,0c0.3,0,0.7-0.2,0.9-0.4
			c0,0,0.1,0,0.1,0.1c0.1,0.1,0.2,0.1,0.4,0.1c0,0,0,0,0,0c0.1,0,0.2-0.1,0.2-0.2c0-0.1-0.1-0.2-0.2-0.2c-0.1,0-0.2,0-0.2-0.1
			c0,0,0,0,0,0c0.1-0.2,0.2-0.4,0.2-0.6c0-0.3-0.1-0.5-0.3-0.7c-0.1-0.1-0.2-0.1-0.3-0.1c-0.1,0-0.2,0-0.2,0c0,0,0,0,0,0
			c0,0-0.1-0.1-0.1-0.1C8,35.8,7.3,35.7,7,35.9c-0.1,0-0.2,0-0.2,0.1c-0.1,0.1-0.1,0.2,0,0.2c-0.1,0.1-0.1,0.2-0.1,0.4
			C6.7,36.9,6.9,37.4,7.2,37.6z M9.1,37.2c0,0.2-0.1,0.5-0.3,0.7c-0.2,0.2-0.4,0.3-0.7,0.3l0,0c-0.1,0-0.2,0-0.3-0.1
			C8,38,8.3,37.8,8.5,37.6c0.2-0.2,0.4-0.5,0.4-0.8C9,36.9,9.1,37,9.1,37.2z M7.1,36.4C7.1,36.4,7.1,36.3,7.1,36.4
			c0.1-0.1,0.1-0.1,0.1-0.1c0.1-0.1,0.6,0,1,0.3c0.1,0.1,0.2,0.2,0.3,0.4c-0.1,0.1-0.1,0.3-0.3,0.4c-0.1,0.1-0.3,0.2-0.4,0.3
			c-0.1-0.1-0.3-0.1-0.4-0.3C7.2,37.1,7,36.8,7,36.6C7,36.5,7,36.4,7.1,36.4z"/>
		<path d="M15.4,47.9c0-0.1-0.1-0.3-0.2-0.3c0-0.1,0-0.1-0.1-0.2c-0.1-0.1-0.2,0-0.2,0c-0.4-0.1-1,0.2-1.3,0.8
			c0,0.1-0.1,0.1-0.1,0.2c0,0,0,0,0,0c0,0,0,0-0.1,0c-0.2,0-0.3,0.1-0.4,0.2c-0.2,0.4-0.1,0.9,0.2,1.3c0,0,0,0,0,0
			C13.2,49.9,13.1,50,13,50c-0.1,0-0.1,0.2-0.1,0.2c0,0.1,0.1,0.1,0.2,0.1c0,0,0,0,0.1,0c0.1,0,0.2-0.1,0.3-0.2c0,0,0.1-0.1,0.1-0.1
			c0.2,0.1,0.5,0.2,0.7,0.2c0.4,0,0.7-0.2,0.9-0.5c0.1-0.2,0.1-0.4,0-0.5c0,0,0,0,0,0c0-0.1,0.1-0.1,0.1-0.2
			C15.4,48.7,15.5,48.3,15.4,47.9z M13.9,48.3c0.3-0.4,0.7-0.7,0.9-0.6c0,0,0.1,0,0.1,0c0,0,0,0.1,0.1,0.1c0,0,0.1,0.1,0.1,0.2
			c0.1,0.2,0,0.6-0.1,0.9c-0.1,0.1-0.2,0.3-0.3,0.4c-0.1,0-0.3-0.1-0.5-0.2c-0.2-0.1-0.3-0.2-0.4-0.3C13.8,48.6,13.8,48.5,13.9,48.3
			z M13.7,49.7c-0.3-0.2-0.6-0.6-0.5-0.9c0.1,0.2,0.4,0.5,0.6,0.6c0.3,0.2,0.6,0.3,0.9,0.2C14.6,49.9,14.1,50,13.7,49.7z"/>
		<path d="M12.2,50.6c0-0.1-0.2-0.1-0.3-0.1c-0.1,0-0.2,0.1-0.2,0.1c0,0,0,0,0,0c0-0.2,0-0.4-0.1-0.5c-0.1-0.3-0.4-0.5-0.7-0.6
			c-0.2-0.1-0.4,0.1-0.5,0.2c0,0,0,0,0,0c-0.1,0-0.1,0-0.2-0.1C9.7,49.4,9,49.6,8.8,50c-0.1,0-0.1,0.1-0.2,0.2c0,0.1,0,0.2,0.1,0.2
			c0,0.1,0,0.2,0.1,0.4c0.2,0.3,0.6,0.6,1,0.7c0.1,0,0.1,0,0.2,0c0,0,0,0,0,0c0,0.1,0.1,0.3,0.4,0.4c0.1,0,0.2,0,0.2,0l0,0
			c0.5,0,0.9-0.4,1.1-1c0,0,0,0,0,0c0,0,0.1,0,0.1,0c0.1,0,0.3,0,0.4-0.1C12.2,50.8,12.3,50.7,12.2,50.6z M9.1,50.5
			c-0.1-0.1-0.1-0.1-0.1-0.2c0,0,0-0.1,0-0.1c0,0,0-0.1,0-0.1c0-0.2,0.5-0.4,1-0.2c0.2,0,0.3,0.1,0.4,0.2c0,0.1,0,0.3,0,0.5
			c0,0.2-0.1,0.4-0.2,0.5c-0.2,0-0.3,0-0.5,0C9.5,51,9.3,50.7,9.1,50.5z M11.3,50.8c-0.1,0.4-0.4,0.7-0.7,0.7c0,0,0,0-0.1,0
			c0.2-0.2,0.3-0.5,0.4-0.8c0.1-0.3,0.1-0.7,0-0.9c0.2,0.1,0.3,0.2,0.3,0.3C11.3,50.3,11.4,50.6,11.3,50.8z"/>
		<path d="M21.5,58.9C21.5,58.9,21.5,58.9,21.5,58.9c0.7,0,1.3-0.5,1.3-1.1c0-0.3-0.2-0.4-0.3-0.4c0,0,0,0,0,0c0-0.1,0-0.1,0-0.2
			c0-0.4-0.2-0.9-0.4-1.1c-0.1-0.1-0.2-0.2-0.3-0.2c0-0.1-0.1-0.1-0.2-0.1c-0.1,0-0.2,0.1-0.2,0.1c-0.4,0.1-0.8,0.7-0.8,1.3
			c0,0.1,0,0.1,0,0.2c0,0,0,0,0,0c-0.1,0-0.3,0.2-0.3,0.4c0,0.3,0.1,0.6,0.4,0.8c0.1,0.1,0.3,0.2,0.5,0.2c0,0,0,0,0,0
			c0,0.1-0.1,0.2-0.1,0.2c-0.1,0.1-0.1,0.2,0,0.3c0,0,0.1,0,0.1,0c0.1,0,0.1,0,0.1-0.1c0.1-0.1,0.1-0.2,0.2-0.3
			C21.5,59,21.5,59,21.5,58.9z M21.4,56.3L21.4,56.3c0,0,0.1,0,0.1,0c0,0,0.1,0,0.1,0c0,0,0.1,0,0.2,0.1c0.2,0.2,0.3,0.5,0.3,0.8
			c0,0.2,0,0.3-0.1,0.5c-0.1,0-0.3,0.1-0.5,0.1l0,0c-0.2,0-0.4,0-0.5-0.1c-0.1-0.1-0.1-0.3-0.1-0.5C20.9,56.7,21.2,56.3,21.4,56.3z
			 M20.6,58c0.2,0.1,0.5,0.2,0.9,0.2c0.3,0,0.6-0.1,0.8-0.2c-0.1,0.4-0.5,0.6-0.9,0.6h0c-0.2,0-0.5-0.1-0.6-0.2
			C20.7,58.3,20.6,58.1,20.6,58z"/>
		<path d="M20.4,60.2c0,0.1-0.1,0.1-0.2,0.2c0,0,0,0,0,0c-0.2-0.4-0.6-0.6-1-0.6c-0.1,0-0.2,0-0.3,0c-0.2,0.1-0.3,0.3-0.3,0.4
			c0,0,0,0,0,0c-0.1,0-0.1,0-0.2,0c-0.6,0.2-1.1,0.7-1.1,1.1c0,0-0.1,0.1-0.1,0.2c0,0.1,0.1,0.1,0.2,0.2c0.1,0.1,0.1,0.2,0.3,0.3
			c0.2,0.1,0.5,0.2,0.7,0.2c0.1,0,0.3,0,0.4-0.1c0.1,0,0.1,0,0.2-0.1c0,0,0,0,0,0c0.1,0.1,0.2,0.2,0.3,0.2c0,0,0.1,0,0.1,0
			c0.3-0.1,0.5-0.2,0.6-0.5c0.2-0.3,0.2-0.7,0.1-1c0,0,0.1,0,0.1-0.1c0.1-0.1,0.2-0.2,0.3-0.3c0.1-0.1,0-0.2,0-0.3
			C20.5,60.1,20.4,60.1,20.4,60.2z M18.8,61.7c-0.3,0.1-0.7,0-0.9-0.1c-0.1-0.1-0.1-0.1-0.1-0.1c0,0,0-0.1,0-0.1c0,0,0-0.1,0-0.1
			c0-0.2,0.3-0.6,0.8-0.7c0.2,0,0.3-0.1,0.5,0c0.1,0.1,0.2,0.3,0.2,0.5c0.1,0.2,0.1,0.4,0.1,0.5C19.1,61.6,19,61.7,18.8,61.7z
			 M19.9,61.6c-0.1,0.1-0.2,0.2-0.3,0.3c0.1-0.2,0.1-0.6,0-0.9c-0.1-0.3-0.2-0.6-0.4-0.8c0.4,0,0.7,0.2,0.8,0.7
			C20,61.1,20,61.4,19.9,61.6z"/>
		<path d="M31.8,64c0.1,0,0.2,0,0.3-0.1c0,0,0,0,0,0c0,0,0,0,0,0c0-0.1,0-0.2-1.2-0.4c0-0.5,0-1.4-0.6-1.7c-0.1-0.1-0.2-0.1-0.3-0.1
			c-0.3,0-0.5,0.3-0.6,0.4c0,0,0,0.1-0.1,0.1c-0.1,0-0.1-0.2-0.1-0.5l0-0.2c-0.1-0.4-0.2-1.1-0.9-1.3c-0.1,0-0.2,0-0.3,0
			c-0.5,0-0.7,0.5-0.8,0.8c0,0.1-0.1,0.3-0.1,0.3c-0.1-0.1-0.1-0.6-0.1-0.8v-0.2c0-1-0.5-1.6-1.3-1.6c-0.1,0-0.2,0-0.2,0
			c-0.2,0-0.4,0.1-0.6,0.3c-0.2,0.3-0.2,0.7-0.1,1.1c0,0.1,0,0.3,0,0.4c0,0-0.1,0-0.1,0c-0.1,0-0.3-0.1-0.4-0.4
			c-0.3-0.5-0.8-0.8-1.3-0.8c-0.5,0-1,0.3-1.4,0.8c-0.3,0.5-0.4,1.1-0.1,1.6c0.3,0.5,0.8,0.8,1.4,0.8c0,0,0.1,0,0.1,0
			c0.1,0,0.1,0,0.2,0c0.4,0,0.5,0.1,0.6,0.3c-0.1,0.1-0.2,0.1-0.4,0.2c-0.4,0.2-0.8,0.4-0.9,0.7c-0.1,0.2,0,0.4,0.2,0.7
			c0.5,0.6,1,0.7,1.3,0.7c0.4,0,0.8-0.2,1.2-0.5c0,0,0.1-0.1,0.1-0.1c0.2-0.2,0.5-0.5,0.6-0.5c0,0,0,0,0.1,0c0,0-0.1,0.2-0.1,0.3
			c-0.1,0.2-0.2,0.5-0.1,0.8c0.1,0.2,0.3,0.3,0.6,0.4c0.2,0.1,0.3,0.1,0.5,0.1c0.6,0,1-0.4,1.2-0.6l0,0c0.1-0.1,0.1-0.1,0.2-0.2
			c0.2-0.2,0.3-0.3,0.4-0.3c0,0,0,0,0,0c0,0,0,0.1,0,0.1c0,0.2,0.1,0.8,0.8,0.7c0.5-0.1,1-0.5,1.3-1.4C31.3,64,31.6,64,31.8,64z
			 M29.5,64.8C29.4,64.8,29.4,64.8,29.5,64.8c-0.1,0-0.1-0.2-0.2-0.2c0-0.2-0.1-0.5-0.4-0.6c-0.1,0-0.1,0-0.2,0
			c-0.4,0-0.6,0.2-0.8,0.5c0,0.1-0.1,0.1-0.2,0.2l0,0c-0.2,0.2-0.4,0.4-0.8,0.4c-0.1,0-0.2,0-0.3-0.1c-0.1,0-0.2-0.1-0.2-0.1
			c0-0.1,0-0.2,0.1-0.4c0.1-0.3,0.3-0.7-0.1-1c-0.1-0.1-0.3-0.1-0.4-0.1c-0.4,0-0.7,0.3-1,0.6c0,0-0.1,0.1-0.1,0.1
			c-0.3,0.2-0.5,0.4-0.8,0.4c-0.3,0-0.6-0.2-0.9-0.5c0-0.1-0.1-0.1-0.1-0.2c0-0.1,0.3-0.3,0.5-0.4c0.4-0.2,0.8-0.4,0.7-0.9
			c-0.3-0.7-0.9-0.7-1.2-0.7c-0.1,0-0.1,0-0.2,0c-0.5,0-0.8-0.1-1-0.5c-0.2-0.3-0.1-0.7,0.1-1c0.2-0.4,0.6-0.6,0.9-0.6
			c0.3,0,0.6,0.2,0.8,0.6c0.2,0.3,0.5,0.7,0.9,0.7c0.1,0,0.2,0,0.3-0.1c0.4-0.2,0.3-0.6,0.3-1c0-0.2-0.1-0.6,0-0.7c0,0,0,0,0.2-0.1
			c0.1,0,0.1,0,0.2,0c0.2,0,0.7,0,0.7,1v0.1c0,0.4,0,0.9,0.3,1.2c0.1,0.1,0.3,0.2,0.5,0.2c0.4,0,0.5-0.4,0.6-0.7
			c0.1-0.4,0.2-0.4,0.3-0.4c0.4,0.1,0.4,0.5,0.5,0.8l0,0.2c0.1,0.4,0.1,0.9,0.6,1c0,0,0.1,0,0.1,0l0,0c0.3,0,0.4-0.2,0.5-0.4
			c0-0.1,0.1-0.2,0.1-0.2c0,0,0,0,0,0c0.1,0.1,0.3,0.3,0.3,1.2c-0.1,0-0.3,0-0.4-0.1c-2.1-0.4-4.8-1.4-5.6-1.8
			c-0.3-0.1-0.3-0.1-0.3-0.1c0,0-0.1,0-0.1,0l0,0c0,0,0,0,0,0c0,0,0,0,0,0c0,0,0,0,0,0c0.1,0.2,3.5,1.8,5.9,2.2c0.2,0,0.3,0,0.5,0.1
			C30,64.6,29.7,64.8,29.5,64.8z"/>
		<path d="M14.8,24.8L14.8,24.8L14.8,24.8l0.1,0.1c0,0,0.1,0,0.4-0.3c0.4,0.2,0.8,0.4,1.3,0.4c0.2,0,0.4,0,0.5-0.1
			c0.2-0.1,0.3-0.2,0.3-0.4c0.1-0.2-0.1-0.5-0.2-0.6c0,0,0-0.1-0.1-0.1c0.1,0,0.2,0,0.4,0.1l0.2,0.1c0.2,0.1,0.4,0.1,0.7,0.1
			c0.3,0,0.6-0.1,0.8-0.4c0.2-0.2,0.2-0.4,0.2-0.5c0-0.3-0.2-0.5-0.4-0.7c-0.1-0.1-0.2-0.2-0.2-0.2c0,0,0,0,0,0
			c0.2,0,0.5,0.1,0.7,0.3l0.1,0.1c1,0.5,1.8,0.2,2-0.6c0.1-0.2,0.1-0.4,0-0.6c-0.2-0.3-0.6-0.5-0.9-0.6c-0.1,0-0.3-0.1-0.4-0.1
			c0-0.1,0.1-0.3,0.6-0.3c0.6,0,1.1-0.3,1.3-0.7c0.3-0.5,0.2-1-0.1-1.6c-0.3-0.5-0.8-0.8-1.3-0.8c-0.6,0-1.1,0.4-1.4,1
			c-0.2,0.5-0.4,0.6-0.5,0.6c0-0.1,0-0.3,0-0.4c0-0.4,0-0.8-0.3-1.1c-0.1-0.1-0.2-0.2-0.5-0.2c-0.1,0-0.1,0-0.2,0
			c-0.5,0.1-1,0.4-1.2,0.8c-0.2,0.4-0.3,0.9-0.1,1.3c0,0.1,0,0.1,0.1,0.2c0.1,0.4,0.2,0.7,0.1,0.8c0,0-0.2-0.1-0.2-0.2
			c-0.2-0.2-0.4-0.5-0.7-0.5c-0.2,0-0.4,0.1-0.6,0.3c-0.7,0.7-0.4,1.4-0.3,1.7l0,0c0,0.1,0.1,0.1,0.1,0.2c0.1,0.3,0.1,0.4,0.1,0.5
			c0,0-0.1,0-0.1,0c-0.1,0-0.2-0.1-0.4-0.1c-0.2,0-0.4,0.1-0.6,0.4c-0.2,0.5,0,1.1,0.7,1.8C14.7,24.7,14.7,24.8,14.8,24.8z
			 M14.7,22.8C14.8,22.8,14.8,22.7,14.7,22.8c0.1-0.1,0.2-0.1,0.3,0c0.1,0,0.2,0.1,0.3,0.1c0.2,0,0.3-0.1,0.4-0.2
			c0.3-0.4,0.2-0.7,0-1.1c0-0.1,0-0.1-0.1-0.2l0,0c-0.1-0.4-0.2-0.7,0.1-1.1c0.1-0.1,0.2-0.1,0.2-0.1c0.1,0,0.2,0.1,0.3,0.3
			c0.2,0.2,0.4,0.4,0.6,0.4c0.1,0,0.2,0,0.2,0c0.6-0.3,0.4-1,0.3-1.5c0-0.1,0-0.1-0.1-0.2c-0.1-0.3-0.1-0.7,0.1-0.9
			c0.1-0.3,0.4-0.4,0.8-0.5c0,0,0.1,0,0.1,0c0.1,0,0.1,0,0.1,0c0.1,0.1,0.1,0.4,0.1,0.6c0,0.4,0,0.9,0.5,1c0.7,0.1,1-0.4,1.2-0.9
			c0.2-0.4,0.5-0.7,0.9-0.7c0.3,0,0.6,0.2,0.8,0.5c0.2,0.4,0.2,0.8,0.1,1c-0.1,0.3-0.4,0.4-0.8,0.4c-0.9,0-1.1,0.5-1.2,0.9
			c0,0.4,0.4,0.6,0.8,0.7c0.2,0.1,0.5,0.2,0.6,0.3c0,0,0,0.1,0,0.2c-0.1,0.5-0.4,0.5-0.6,0.5c-0.2,0-0.4-0.1-0.7-0.2l-0.1,0
			c-0.3-0.2-0.6-0.3-1-0.3c-0.3,0-0.5,0.1-0.6,0.4c-0.2,0.4,0.1,0.7,0.3,0.9c0.1,0.1,0.3,0.2,0.3,0.3c0,0,0,0.1-0.1,0.1
			c-0.1,0.1-0.2,0.2-0.4,0.2c-0.2,0-0.4-0.1-0.5-0.1l-0.2-0.1c-0.2-0.1-0.4-0.1-0.6-0.1c-0.2,0-0.4,0.1-0.5,0.3
			c-0.2,0.3,0,0.5,0.1,0.7c0,0.1,0.1,0.1,0.1,0.2c0,0,0,0,0,0c-0.1,0-0.1,0-0.2,0c-0.3,0-0.6-0.2-0.9-0.3c0.2-0.2,0.5-0.6,0.8-1
			c1.3-1.5,3.3-3.3,4.2-4l0,0c0.3-0.2,0.3-0.2,0.4-0.3l0,0l-0.1-0.1h0c0,0-0.1,0-0.4,0.3c-0.8,0.5-3.1,2.2-4.4,3.8
			c-0.4,0.4-0.6,0.8-0.8,1C14.7,23.3,14.7,23,14.7,22.8z"/>
		<path d="M17.7,59.4L17.7,59.4c0.6,0,1.1-0.4,1.4-0.7c0.2,0.1,0.3,0.2,0.4,0.2c0.1,0,0.1,0,0.1-0.1c0,0,0,0,0,0c0,0,0,0,0,0
			c0-0.1,0-0.1-0.3-0.4c0.2-0.3,0.7-1.2,0.4-1.9c-0.1-0.3-0.4-0.3-0.5-0.3c-0.2,0-0.3,0.1-0.5,0.2c0,0-0.1,0-0.1,0
			c0-0.1,0-0.2,0.1-0.4l0.1-0.2c0.1-0.3,0.4-1-0.2-1.5c-0.2-0.2-0.3-0.3-0.5-0.3c-0.3,0-0.5,0.2-0.7,0.4c-0.1,0.1-0.2,0.2-0.3,0.2
			c-0.1-0.1,0.2-0.6,0.3-0.7l0.1-0.1c0.3-0.5,0.3-1,0.2-1.4c-0.1-0.3-0.4-0.6-0.8-0.7c-0.1,0-0.2-0.1-0.3-0.1
			c-0.5,0-0.8,0.5-0.9,0.9c0,0.1-0.1,0.3-0.2,0.4c-0.1,0-0.3-0.1-0.3-0.6c0-0.5-0.1-0.9-0.4-1.1c-0.4-0.5-1.2-0.5-1.9-0.2
			c-0.5,0.3-0.9,0.8-0.9,1.3c0,0.6,0.3,1.1,0.9,1.4c0.5,0.2,0.6,0.4,0.5,0.5c-0.1,0-0.2,0-0.4,0c-0.1,0-0.2,0-0.3,0
			c-0.3,0-0.6,0-0.8,0.3C12,54.7,12,54.9,12,55.2c0.1,0.9,0.7,1.5,1.6,1.5c0.2,0,0.3,0,0.5-0.1c0.1,0,0.1,0,0.2-0.1
			c0.2-0.1,0.4-0.1,0.6-0.1c0.1,0,0.2,0,0.2,0.1c0,0-0.1,0.1-0.2,0.2c-0.2,0.2-0.4,0.4-0.5,0.7c0,0.2,0.1,0.4,0.3,0.7
			c0.3,0.3,0.6,0.5,1,0.5c0.3,0,0.5-0.1,0.7-0.1l0.1,0c0.1,0,0.1,0,0.2-0.1c0.2-0.1,0.3-0.1,0.4-0.1c0,0,0,0,0.1,0c0,0,0,0.1,0,0.1
			c-0.1,0.2-0.3,0.7,0.3,1C17.5,59.3,17.6,59.4,17.7,59.4z M17,57.6c-0.2,0-0.4,0.1-0.6,0.1c-0.1,0-0.1,0-0.2,0.1l-0.1,0
			c-0.1,0-0.3,0.1-0.5,0.1c-0.2,0-0.4-0.1-0.6-0.3c-0.1-0.1-0.1-0.2-0.1-0.2c0-0.1,0.2-0.2,0.3-0.3c0.2-0.2,0.6-0.4,0.4-0.9
			c-0.1-0.2-0.2-0.4-0.7-0.4c-0.2,0-0.5,0.1-0.7,0.1c-0.1,0-0.1,0-0.2,0.1c-0.1,0-0.3,0-0.4,0c-0.5,0-0.9-0.3-1-1c0-0.1,0-0.2,0-0.2
			c0,0,0.1-0.1,0.4-0.1c0.1,0,0.2,0,0.3,0c0.1,0,0.2,0,0.3,0c0.4,0,0.7-0.1,0.7-0.4c0.1-0.7-0.4-1-0.9-1.2c-0.4-0.2-0.6-0.5-0.6-0.9
			c0-0.3,0.2-0.6,0.6-0.8c0.5-0.2,0.9-0.2,1.2,0.1c0.2,0.2,0.2,0.4,0.2,0.7c0,0.7,0.3,1.1,0.8,1.2l0,0c0.4,0,0.5-0.4,0.7-0.7
			c0.1-0.3,0.2-0.6,0.4-0.6c0,0,0.1,0,0.1,0c0.2,0.1,0.4,0.2,0.4,0.4c0.1,0.2,0,0.5-0.2,0.9L17,53.6c-0.2,0.4-0.4,0.8-0.3,1.2
			c0,0.2,0.1,0.3,0.3,0.4c0.1,0,0.2,0.1,0.2,0.1c0.3,0,0.5-0.2,0.6-0.4c0.1-0.1,0.3-0.2,0.3-0.2c0,0,0.1,0,0.1,0.1
			c0.3,0.3,0.2,0.6,0,0.9l-0.1,0.2c-0.1,0.4-0.3,0.8,0.1,1.1c0.1,0.1,0.2,0.1,0.3,0.1l0,0c0.1,0,0.3-0.1,0.4-0.1
			c0.1,0,0.2-0.1,0.2-0.1c0,0,0,0,0,0c0.1,0.1,0.1,0.4-0.3,1.2c-0.2-0.2-0.5-0.5-0.9-0.8c-1.1-1-2.4-2.5-3.9-4.5
			c-0.2-0.2-0.2-0.2-0.2-0.2c0,0,0,0,0,0c0,0-0.1,0-0.1,0.1c0,0.2,2.1,3.4,3.9,5c0.4,0.3,0.7,0.6,0.9,0.8c-0.4,0.3-0.7,0.4-0.9,0.4
			c-0.1,0-0.1,0-0.2,0c-0.1,0-0.1,0-0.1,0c0,0,0-0.2,0.1-0.2c0.1-0.2,0.2-0.5,0-0.7C17.4,57.7,17.2,57.6,17,57.6z"/>
		<path d="M9.4,46.9c0.1,0,0.2,0,0.2,0c0.3,0.1,0.4,0.1,0.4,0.2c0,0-0.1,0.1-0.1,0.1c-0.2,0.1-0.6,0.5-0.2,1
			c0.2,0.3,0.6,0.4,1.1,0.4c0.3,0,0.6-0.1,0.8-0.1C11.9,49,11.9,49,12,49c0,0,0.1,0,0.1,0l0,0c0,0,0.1-0.1-0.1-0.5
			c0.4-0.2,1.2-0.7,1.2-1.4c0-0.2,0-0.3-0.2-0.4c-0.2-0.2-0.4-0.2-0.6-0.2c0,0-0.1,0-0.1,0c0-0.1,0.1-0.1,0.3-0.3l0.2-0.1
			c0.3-0.2,0.8-0.7,0.6-1.4c-0.1-0.4-0.4-0.6-0.7-0.6c-0.2,0-0.3,0-0.5,0.1C12.2,44,12.1,44,12,44c0,0,0,0,0,0
			c0-0.1,0.4-0.4,0.6-0.5l0.1-0.1c0.5-0.3,0.8-0.7,0.9-1.1c0.1-0.3-0.1-0.7-0.3-1C13,41.1,12.8,41,12.6,41c-0.3,0-0.7,0.2-0.9,0.5
			c-0.1,0.1-0.3,0.2-0.3,0.2c-0.1-0.1-0.2-0.2,0.1-0.6c0.3-0.5,0.3-1,0.1-1.5c-0.3-0.5-0.8-0.8-1.4-0.8l-0.1,0
			c-0.6,0-1.1,0.3-1.3,0.7c-0.3,0.5-0.2,1.1,0.2,1.6c0.3,0.4,0.3,0.6,0.2,0.8c-0.1,0-0.2-0.1-0.3-0.2c-0.3-0.2-0.6-0.4-0.9-0.4
			c-0.2,0-0.5,0.1-0.7,0.5c-0.2,0.5-0.2,1,0,1.4c0.2,0.4,0.6,0.7,1.1,0.8c0.1,0,0.1,0,0.2,0.1c0.4,0.1,0.7,0.2,0.7,0.4
			c0,0-0.2,0.1-0.3,0.1c-0.3,0-0.6,0.1-0.8,0.4C8,45.2,8,45.5,8.1,45.8C8.3,46.7,9,46.8,9.4,46.9L9.4,46.9z M8.6,45.6
			c0-0.2,0-0.2,0-0.3c0-0.1,0.2-0.1,0.4-0.1c0.3,0,0.7-0.1,0.8-0.6c0.1-0.7-0.6-0.8-1.1-1c-0.1,0-0.1,0-0.2-0.1
			c-0.3-0.1-0.6-0.3-0.7-0.6c-0.1-0.3-0.1-0.6,0-0.9C7.8,42,7.8,42,7.9,42c0.1,0,0.4,0.1,0.6,0.3c0.2,0.2,0.5,0.3,0.7,0.3
			c0.2,0,0.3-0.1,0.4-0.2c0.5-0.6,0-1.3-0.1-1.5c-0.3-0.4-0.3-0.8-0.1-1.1c0.1-0.3,0.5-0.4,0.8-0.4h0c0.4,0,0.8,0.2,0.9,0.5
			c0.1,0.3,0.1,0.6-0.1,0.9c-0.1,0.2-0.6,1,0.1,1.4c0.1,0.1,0.2,0.1,0.3,0.1l0,0c0.2,0,0.5-0.2,0.7-0.4c0.2-0.1,0.4-0.3,0.6-0.3
			c0,0,0.1,0,0.2,0.1c0.2,0.2,0.2,0.4,0.2,0.6c0,0.2-0.2,0.5-0.6,0.7L12.3,43c-0.4,0.2-0.8,0.5-0.9,0.8c0,0.2,0,0.3,0.1,0.5
			c0.1,0.1,0.2,0.2,0.5,0.2c0.1,0,0.3,0,0.4-0.1c0.1,0,0.2-0.1,0.3-0.1c0.1,0,0.1,0,0.2,0.2c0.1,0.4-0.2,0.6-0.4,0.8l-0.2,0.1
			c-0.3,0.3-0.7,0.6-0.5,1c0.1,0.3,0.4,0.3,0.6,0.3c0.1,0,0.2,0,0.2,0c0,0,0,0,0,0c0,0.1-0.1,0.4-0.8,0.9c-0.1-0.3-0.2-0.7-0.4-1.1
			c-0.7-1.9-1-4.5-1.2-5.6c-0.1-0.6-0.1-0.6-0.2-0.6l-0.1,0c-0.1,0.1,0.1,3.8,1,6.3c0.2,0.5,0.3,0.9,0.4,1.2c-0.2,0-0.4,0.1-0.6,0.1
			c-0.3,0-0.5-0.1-0.6-0.2c0-0.1,0-0.1,0-0.1c0,0,0.1-0.1,0.2-0.2c0.1-0.1,0.4-0.3,0.3-0.6c-0.2-0.5-0.5-0.5-0.9-0.6
			c-0.1,0-0.1,0-0.2,0l0,0C9.1,46.3,8.7,46.2,8.6,45.6z"/>
		<path d="M8.9,33.5L8.9,33.5c0.1,0.1,0.2,0.1,0.2,0.2C9.4,33.9,9.4,34,9.4,34c0,0-0.1,0-0.1,0c-0.2,0-0.8,0.1-0.7,0.8
			c0.1,0.5,0.6,0.9,1.4,1.2c0,0.3,0,0.4,0.1,0.4c0,0,0.1,0,0.1,0c0,0,0,0,0,0c0.1,0,0.1,0,0.2-0.4c0.4,0,1.4,0,1.8-0.6
			c0.1-0.2,0.1-0.3,0.1-0.5c-0.1-0.2-0.3-0.4-0.4-0.5c0,0-0.1,0-0.1-0.1c0,0,0.1-0.1,0.4-0.1l0.2,0c0.3-0.1,1.1-0.2,1.2-0.9
			c0.2-0.8-0.5-0.9-0.8-1c-0.1,0-0.3-0.1-0.3-0.1c0,0,0,0,0,0c0.1-0.1,0.5-0.1,0.8-0.1l0.1,0c0.6,0,1-0.2,1.2-0.5
			c0.2-0.3,0.3-0.6,0.2-1c0-0.3-0.2-0.7-0.8-0.7c-0.2,0-0.4,0-0.6,0.1c-0.1,0-0.3,0-0.4,0c0,0,0,0,0,0c0-0.1,0-0.3,0.4-0.5
			c0.5-0.3,0.8-0.7,0.8-1.2c0-0.5-0.3-1-0.9-1.4c-0.6-0.4-1.4-0.3-1.9,0.2c-0.3,0.3-0.4,0.8-0.4,1.3c0,0.5,0,0.7-0.2,0.8
			c-0.1-0.1-0.1-0.2-0.2-0.3c-0.2-0.4-0.4-0.8-0.9-0.8c-0.2,0-0.4,0.1-0.5,0.2c-0.4,0.3-0.7,0.8-0.7,1.2s0.2,0.9,0.6,1.3
			c0.1,0.1,0.1,0.1,0.2,0.2c0.3,0.3,0.5,0.5,0.4,0.6c-0.1,0-0.2,0-0.3-0.1c-0.2-0.1-0.3-0.1-0.5-0.1c-0.2,0-0.6,0.1-0.7,0.6
			C8.1,32.8,8.7,33.3,8.9,33.5z M8.9,32C8.9,31.8,9,31.8,9,31.8c0.1,0,0.2,0,0.3,0.1C9.5,31.9,9.7,32,9.8,32l0,0
			c0.2,0,0.4-0.1,0.5-0.2c0.4-0.5-0.1-1.1-0.5-1.4c-0.1-0.1-0.1-0.1-0.2-0.2c-0.3-0.3-0.4-0.6-0.4-0.8c0-0.3,0.2-0.6,0.5-0.8
			c0.1-0.1,0.1-0.1,0.2-0.1c0.1,0,0.3,0.3,0.4,0.5c0.2,0.3,0.4,0.7,0.7,0.7l0,0c0.1,0,0.1,0,0.2,0c0.7-0.3,0.6-1,0.6-1.4
			c0-0.3,0.1-0.7,0.2-0.9c0.3-0.3,0.7-0.3,1.2-0.1c0.4,0.2,0.6,0.6,0.6,0.9c0,0.3-0.2,0.6-0.5,0.7c-0.8,0.5-0.7,1-0.6,1.3
			c0.1,0.1,0.2,0.3,0.5,0.3c0.1,0,0.3,0,0.5-0.1c0.2,0,0.3-0.1,0.5-0.1c0.2,0,0.3,0.1,0.3,0.2c0,0.3,0,0.4-0.1,0.6
			c-0.1,0.2-0.4,0.3-0.8,0.3l-0.1,0c-0.4,0-0.9,0-1.2,0.3C12.1,32,12,32.1,12,32.3c0,0.4,0.5,0.5,0.7,0.6c0.4,0.1,0.4,0.2,0.4,0.3
			c-0.1,0.4-0.4,0.4-0.8,0.5l-0.2,0c-0.4,0.1-0.8,0.2-0.9,0.7c-0.1,0.3,0.2,0.5,0.4,0.6c0.1,0,0.1,0.1,0.2,0.1c0,0,0,0,0,0
			c-0.1,0.1-0.3,0.3-1.1,0.4c0.1-0.3,0.1-0.7,0.2-1.3c0.3-1.9,1.3-4.3,1.7-5.4c0.2-0.6,0.2-0.6,0.2-0.6c0,0,0,0-0.1,0
			c-0.2,0-1.9,3.6-2.3,5.9c-0.1,0.6-0.2,1-0.2,1.3c-0.8-0.2-0.9-0.5-0.9-0.7c0-0.1,0-0.1,0-0.1c0,0,0.1,0,0.2-0.1
			c0.2,0,0.5-0.1,0.6-0.4c0.1-0.5-0.2-0.7-0.5-1c-0.1,0-0.1-0.1-0.2-0.1l0,0C9,32.8,8.7,32.5,8.9,32z"/>
		<path d="M56.7,25.4C56.7,25.4,56.7,25.4,56.7,25.4c-0.1,0.1-0.1,0.2-0.2,0.2c-0.1,0.1-0.1,0.2,0,0.3c0,0.1,0.1,0.1,0.2,0.1
			c0,0,0.1,0,0.1,0c0.1-0.1,0.2-0.2,0.3-0.3c0,0,0.1-0.1,0.1-0.1c0.1,0,0.3,0.1,0.5,0.1c0.5,0,0.9-0.3,1.1-0.7
			c0.1-0.2,0-0.4-0.1-0.5c0,0,0,0,0,0c0-0.1,0-0.1,0.1-0.2c0.1-0.4,0.1-0.9-0.1-1.2c-0.1-0.1-0.2-0.2-0.3-0.3c0-0.1-0.1-0.1-0.1-0.2
			c-0.1,0-0.2,0-0.2,0.1c-0.4,0-0.9,0.4-1.1,1c0,0.1,0,0.1,0,0.2c0,0,0,0,0,0c-0.1,0-0.3,0.1-0.4,0.3c-0.1,0.3,0,0.6,0.1,0.9
			C56.4,25.2,56.5,25.3,56.7,25.4z M57,23.8c0.2-0.5,0.6-0.8,0.7-0.8c0,0,0.1,0,0.1,0c0,0,0.1,0,0.1,0.1c0,0,0.1,0,0.1,0.1
			c0.1,0.2,0.2,0.6,0,0.9c0,0.2-0.1,0.3-0.2,0.4c0,0,0,0,0,0c-0.1,0-0.3,0-0.5-0.1c-0.2-0.1-0.3-0.1-0.4-0.2
			C56.9,24.1,56.9,23.9,57,23.8z M56.5,24.4c0.2,0.2,0.5,0.4,0.8,0.5c0.2,0.1,0.4,0.1,0.6,0.1c0.1,0,0.2,0,0.3,0
			c-0.1,0.2-0.3,0.4-0.7,0.4c-0.1,0-0.2,0-0.3-0.1c-0.2-0.1-0.4-0.2-0.5-0.4C56.5,24.7,56.5,24.6,56.5,24.4z"/>
		<path d="M55.3,26.8c0,0,0.1,0,0.1,0c0.1,0,0.2-0.1,0.3-0.2c0.1-0.1,0.1-0.2,0-0.3s-0.2-0.1-0.3,0c-0.1,0-0.1,0.1-0.2,0.1
			c0,0,0,0,0,0c-0.1-0.5-0.5-0.9-1-0.9c-0.2,0-0.4,0.2-0.4,0.3c0,0,0,0,0,0c-0.1,0-0.1,0-0.2,0c-0.6,0-1.2,0.3-1.3,0.7
			c-0.1,0-0.1,0.1-0.1,0.2c0,0.1,0.1,0.2,0.1,0.2c0,0.1,0.1,0.2,0.2,0.3c0.3,0.3,0.7,0.4,1.1,0.5c0,0,0,0,0,0c0,0,0.1,0,0.1,0
			c0,0,0,0,0,0c0,0.1,0.2,0.3,0.4,0.3c0,0,0,0,0,0C54.8,28.1,55.2,27.5,55.3,26.8z M53.6,27.4c-0.4,0-0.7-0.2-0.8-0.3
			c-0.1-0.1-0.1-0.1-0.1-0.2c0,0,0-0.1,0-0.1c0,0,0-0.1,0-0.1c0-0.2,0.5-0.5,1-0.5c0.2,0,0.3,0,0.5,0.1c0,0.1,0.1,0.3,0.1,0.5
			c0,0.2,0,0.4-0.1,0.5C53.9,27.4,53.7,27.4,53.6,27.4z M54.3,27.7c0.1-0.2,0.2-0.5,0.2-0.9c0-0.3-0.1-0.7-0.2-0.9
			c0.3,0.1,0.6,0.4,0.6,0.9C54.9,27.3,54.6,27.6,54.3,27.7z"/>
		<path d="M57.3,38.8c0.2,0.1,0.3,0.1,0.5,0.1c0.4,0,0.8-0.2,1-0.7c0,0,0.1,0,0.1,0c0.1,0,0.2,0,0.2,0c0,0,0.1,0,0.1,0
			c0.1,0,0.2-0.1,0.2-0.2c0-0.1-0.1-0.2-0.2-0.2c-0.1,0-0.2,0-0.3,0c0,0,0,0,0,0c0.1-0.2,0.1-0.4,0.1-0.5c0-0.3-0.2-0.6-0.5-0.7
			c-0.1,0-0.2-0.1-0.3-0.1c-0.1,0-0.2,0.1-0.3,0.1c0,0,0,0,0,0c0,0-0.1-0.1-0.2-0.1c-0.5-0.3-1.2-0.3-1.5,0c-0.1,0-0.2,0-0.2,0.1
			c-0.1,0.1,0,0.2,0,0.2c0,0.1,0,0.2,0,0.4c0.1,0.4,0.4,0.7,0.7,0.9c0.1,0,0.1,0.1,0.2,0.1c0,0,0,0,0,0
			C57.1,38.4,57.1,38.6,57.3,38.8z M58.7,37.4c0,0.2,0,0.4-0.2,0.6c-0.2,0.4-0.6,0.6-1,0.4c0.2-0.1,0.5-0.3,0.6-0.6
			c0.2-0.3,0.3-0.6,0.3-0.9C58.6,37.1,58.7,37.3,58.7,37.4z M56.6,37.2c0-0.1,0-0.2,0-0.2c0,0,0-0.1,0-0.1c0,0,0.1,0,0.1-0.1
			c0.1-0.1,0.6-0.2,1.1,0.1c0.1,0.1,0.3,0.2,0.4,0.3c0,0.1-0.1,0.3-0.2,0.5c-0.1,0.2-0.2,0.3-0.3,0.4c-0.2,0-0.3-0.1-0.4-0.2
			C56.8,37.7,56.6,37.4,56.6,37.2z"/>
		<path d="M61.4,36.4C61.4,36.4,61.4,36.4,61.4,36.4c0,0-0.1-0.1-0.2-0.1c-0.1,0-0.2,0-0.3,0.1c-0.2,0.2-0.3,0.4-0.3,0.7
			c0,0.2,0.1,0.4,0.2,0.6c0,0,0,0,0,0c-0.1,0-0.2,0.1-0.2,0.1c-0.1,0-0.2,0.1-0.2,0.2c0,0.1,0.1,0.2,0.2,0.2c0,0,0,0,0,0
			c0.1,0,0.2,0,0.4-0.1c0,0,0.1,0,0.1-0.1c0.3,0.3,0.6,0.4,0.9,0.4c0.3,0,0.5-0.1,0.7-0.3c0.2-0.2,0.2-0.4,0.1-0.5c0,0,0,0,0,0
			c0,0,0.1-0.1,0.1-0.1c0.3-0.3,0.5-0.7,0.5-1.1c0-0.1,0-0.3-0.1-0.4c0-0.1,0-0.1,0-0.2c-0.1-0.1-0.2-0.1-0.2-0.1
			c-0.3-0.2-1-0.1-1.5,0.3C61.5,36.3,61.4,36.3,61.4,36.4z M61.2,37.8c-0.2-0.2-0.3-0.4-0.3-0.7c0-0.1,0-0.3,0.1-0.4
			c0,0.2,0.2,0.5,0.4,0.8c0.2,0.2,0.5,0.4,0.8,0.5C62,38.3,61.5,38.2,61.2,37.8z M62.8,36.2C62.8,36.3,62.9,36.3,62.8,36.2
			c0.1,0.1,0.1,0.1,0.1,0.2c0,0,0,0.1,0,0.2c0,0.2-0.1,0.6-0.4,0.8c-0.1,0.1-0.3,0.2-0.4,0.3c-0.1-0.1-0.3-0.2-0.4-0.3
			c-0.1-0.1-0.2-0.3-0.3-0.4c0.1-0.1,0.2-0.3,0.3-0.4C62.2,36.2,62.7,36.1,62.8,36.2z"/>
		<path d="M57,48.5c-0.1-0.2-0.2-0.2-0.4-0.2c0,0,0,0-0.1,0c0,0,0,0,0,0c0-0.1-0.1-0.1-0.1-0.2c-0.3-0.5-0.9-0.9-1.3-0.8
			c-0.1,0-0.1-0.1-0.2,0c-0.1,0-0.1,0.1-0.1,0.2c-0.1,0.1-0.2,0.2-0.2,0.3c-0.1,0.4,0,0.8,0.2,1.2c0,0.1,0.1,0.1,0.1,0.2
			c0,0,0,0,0,0c-0.1,0.1-0.1,0.3,0,0.5c0.2,0.3,0.5,0.5,0.9,0.5c0.2,0,0.5-0.1,0.7-0.2c0,0,0.1,0.1,0.1,0.1c0.1,0.1,0.2,0.2,0.3,0.2
			c0,0,0,0,0.1,0c0.1,0,0.1,0,0.2-0.1c0-0.1,0-0.2-0.1-0.2c-0.1,0-0.2-0.1-0.2-0.1c0,0,0,0,0,0C57.1,49.5,57.2,48.9,57,48.5z M55,48
			c0-0.1,0.1-0.1,0.1-0.2c0,0,0.1,0,0.1-0.1c0,0,0.1,0,0.1,0c0.1-0.1,0.6,0.1,0.9,0.6c0.1,0.1,0.1,0.3,0.2,0.5
			c-0.1,0.1-0.2,0.2-0.4,0.3c-0.2,0.1-0.3,0.1-0.5,0.2c-0.1-0.1-0.2-0.2-0.3-0.4C54.9,48.6,54.9,48.2,55,48z M56.3,49.7
			c-0.2,0.1-0.4,0.2-0.5,0.2c-0.2,0-0.4-0.1-0.5-0.2c0.2,0,0.6-0.1,0.9-0.2c0.3-0.2,0.5-0.4,0.6-0.6C56.9,49.2,56.6,49.5,56.3,49.7z
			"/>
		<path d="M61.2,50c-0.2-0.4-0.9-0.6-1.5-0.4c-0.1,0-0.1,0-0.2,0.1c0,0,0,0,0,0c-0.1-0.1-0.3-0.2-0.5-0.2c-0.3,0.1-0.5,0.3-0.7,0.6
			c-0.1,0.2-0.1,0.3-0.1,0.5c0,0,0,0,0,0c-0.1,0-0.2,0-0.2-0.1c-0.1,0-0.2,0-0.3,0.1c0,0.1,0,0.2,0.1,0.2c0.1,0.1,0.2,0.1,0.4,0.1
			c0,0,0.1,0,0.1,0c0,0,0,0,0,0c0.1,0.6,0.6,1,1.1,1c0.1,0,0.2,0,0.2,0c0.2-0.1,0.3-0.3,0.4-0.4c0,0,0,0,0,0c0.1,0,0.1,0,0.2,0
			c0.4-0.1,0.8-0.4,1-0.7c0.1-0.1,0.1-0.3,0.1-0.4c0,0,0.1-0.1,0.1-0.2C61.3,50,61.3,50,61.2,50z M58.7,50.8c-0.1-0.2,0-0.5,0-0.7
			c0.1-0.1,0.1-0.2,0.3-0.3c-0.1,0.2-0.1,0.6,0,0.9c0.1,0.3,0.2,0.6,0.4,0.8C59.1,51.5,58.8,51.3,58.7,50.8z M60.9,50.5
			c-0.1,0.2-0.4,0.4-0.7,0.5c-0.2,0-0.3,0.1-0.5,0c-0.1-0.1-0.2-0.3-0.2-0.5c0-0.2-0.1-0.4,0-0.5c0.1-0.1,0.3-0.2,0.4-0.2
			c0.5-0.1,1,0.1,1,0.2c0,0,0,0.1,0,0.1c0,0,0,0.1,0,0.1C60.9,50.4,60.9,50.5,60.9,50.5z"/>
		<path d="M48.9,58.9C48.9,58.9,48.9,58.9,48.9,58.9c0.5-0.2,0.9-0.6,0.8-1.1c0-0.3-0.2-0.4-0.3-0.4c0,0,0,0,0,0c0-0.1,0-0.1,0-0.2
			c0-0.6-0.4-1.2-0.8-1.3c0,0-0.1-0.1-0.2-0.1c-0.1,0-0.2,0.1-0.2,0.1c-0.1,0-0.2,0.1-0.3,0.2c-0.3,0.3-0.4,0.7-0.4,1.1
			c0,0.1,0,0.1,0,0.2c0,0,0,0,0,0c-0.1,0-0.3,0.2-0.3,0.4c0,0.6,0.5,1.1,1.2,1.1c0,0,0,0,0,0c0,0,0,0.1,0,0.1c0,0.1,0.1,0.2,0.2,0.3
			c0,0,0.1,0.1,0.1,0.1c0,0,0.1,0,0.1,0c0.1-0.1,0.1-0.2,0-0.3C49,59.1,49,59,48.9,58.9z M48.2,56.4c0.1-0.1,0.1-0.1,0.2-0.1
			c0,0,0.1,0,0.1,0c0,0,0.1,0,0.1,0c0,0,0,0,0,0c0.2,0,0.5,0.4,0.5,0.9c0,0.2,0,0.3-0.1,0.5c-0.1,0-0.3,0.1-0.5,0.1
			c-0.2,0-0.4,0-0.5-0.1c-0.1-0.1-0.1-0.3-0.1-0.5C47.9,56.9,48.1,56.6,48.2,56.4z M47.7,58c0.2,0.1,0.5,0.2,0.9,0.2l0,0
			c0.3,0,0.7-0.1,0.9-0.2c0,0.4-0.4,0.6-0.9,0.6h0C48.1,58.6,47.7,58.4,47.7,58z"/>
		<path d="M51.6,60.3c-0.1,0-0.1,0-0.2,0c0,0,0,0,0,0c0-0.1-0.1-0.3-0.3-0.4c-0.1,0-0.2,0-0.3,0c-0.4,0-0.7,0.2-1,0.6c0,0,0,0,0,0
			c-0.1,0-0.1-0.1-0.2-0.2c-0.1-0.1-0.2-0.1-0.3,0s-0.1,0.2,0,0.3c0.1,0.1,0.2,0.2,0.3,0.3c0,0,0.1,0,0.1,0.1
			c-0.1,0.4-0.1,0.7,0.1,1c0.1,0.2,0.3,0.4,0.6,0.5c0,0,0.1,0,0.1,0c0.2,0,0.3-0.1,0.3-0.2c0,0,0,0,0,0c0.1,0,0.1,0,0.2,0.1
			c0.1,0,0.3,0.1,0.4,0.1c0.3,0,0.5-0.1,0.7-0.2c0.1-0.1,0.2-0.2,0.3-0.3c0.1,0,0.1-0.1,0.2-0.2c0-0.1,0-0.2-0.1-0.2
			C52.7,60.9,52.2,60.4,51.6,60.3z M50.4,61.8c-0.1-0.1-0.2-0.1-0.3-0.3c-0.1-0.2-0.1-0.5-0.1-0.7c0.1-0.4,0.4-0.7,0.7-0.7
			c0,0,0,0,0.1,0c-0.2,0.2-0.4,0.5-0.4,0.8C50.4,61.2,50.4,61.6,50.4,61.8z M52.3,61.4C52.3,61.5,52.2,61.5,52.3,61.4
			c-0.1,0.1-0.1,0.2-0.2,0.2c-0.2,0.1-0.5,0.2-0.9,0.1c-0.2,0-0.3-0.1-0.4-0.2c0-0.1,0-0.3,0.1-0.5s0.1-0.3,0.2-0.5
			c0.2,0,0.3,0,0.5,0c0.5,0.1,0.8,0.6,0.8,0.7C52.3,61.4,52.3,61.4,52.3,61.4z"/>
		<path d="M47.1,59.3c-0.5,0-1,0.3-1.3,0.8c-0.2,0.3-0.3,0.4-0.4,0.4c0,0-0.1,0-0.1,0c0-0.1,0-0.3,0-0.4c0-0.4,0.1-0.8-0.1-1.1
			c-0.1-0.2-0.3-0.2-0.5-0.3c-1-0.1-1.5,0.5-1.5,1.6v0.2c0,0.2,0,0.7-0.1,0.8c0,0-0.1-0.2-0.1-0.3c-0.1-0.3-0.2-0.8-0.8-0.8
			c-0.1,0-0.2,0-0.3,0c-0.7,0.2-0.9,0.9-0.9,1.3l0,0.2c0,0.3-0.1,0.4-0.1,0.5c0,0,0-0.1-0.1-0.1c-0.1-0.2-0.3-0.4-0.6-0.4
			c-0.1,0-0.2,0-0.3,0.1c-0.6,0.4-0.6,1.3-0.6,1.7c-1.3,0.2-1.3,0.3-1.2,0.4c0,0,0,0,0,0c0,0,0,0,0,0c0,0.1,0.1,0.1,0.3,0.1
			c0.2,0,0.6,0,1-0.1c0.3,0.9,0.7,1.4,1.3,1.4c0,0,0.1,0,0.1,0c0.6,0,0.6-0.5,0.7-0.7c0,0,0-0.1,0-0.1c0,0,0,0,0,0
			c0.1,0,0.2,0.1,0.4,0.3c0.1,0.1,0.1,0.1,0.2,0.2l0,0c0.2,0.2,0.6,0.6,1.2,0.6c0.2,0,0.3,0,0.5-0.1c0.3-0.1,0.5-0.2,0.6-0.4
			c0.1-0.3,0-0.6-0.1-0.8c0-0.1-0.1-0.2-0.1-0.3c0,0,0.1,0,0.1,0c0.2,0,0.4,0.3,0.6,0.4c0,0,0.1,0.1,0.1,0.1
			c0.4,0.3,0.8,0.5,1.2,0.5c0.4,0,0.9-0.1,1.3-0.7c0.2-0.2,0.2-0.5,0.2-0.7c-0.1-0.4-0.5-0.6-0.9-0.7c-0.1-0.1-0.3-0.1-0.4-0.2
			c0.1-0.2,0.2-0.3,0.6-0.3c0,0,0.1,0,0.2,0c0.7,0,1.3-0.2,1.5-0.8c0.3-0.5,0.2-1.1-0.1-1.6C48.1,59.6,47.6,59.3,47.1,59.3z
			 M48.1,61.4c-0.2,0.3-0.5,0.5-0.9,0.5c0,0-0.1,0-0.1,0c-0.1,0-0.1,0-0.2,0c-0.2,0-0.9,0-1.2,0.7c-0.2,0.5,0.3,0.7,0.7,0.9
			c0.2,0.1,0.5,0.2,0.5,0.4c0,0.1,0,0.2-0.1,0.2c-0.2,0.3-0.5,0.5-0.9,0.5c-0.3,0-0.6-0.1-0.8-0.4c0,0-0.1-0.1-0.1-0.1
			c-0.3-0.3-0.6-0.6-1-0.6c-0.2,0-0.3,0-0.4,0.1c-0.4,0.3-0.2,0.7-0.1,1c0.1,0.1,0.1,0.3,0.1,0.4c0,0-0.1,0.1-0.2,0.1
			c-0.1,0-0.2,0.1-0.3,0.1c-0.4,0-0.6-0.3-0.8-0.4l0,0c-0.1-0.1-0.1-0.1-0.2-0.2c-0.2-0.3-0.4-0.5-0.8-0.5c-0.1,0-0.1,0-0.2,0
			c-0.3,0.1-0.4,0.4-0.4,0.6c0,0.1,0,0.2-0.1,0.2c0,0,0,0-0.1,0c-0.2,0-0.5-0.2-0.7-0.9c0.1,0,0.3,0,0.5-0.1
			c2.4-0.4,5.9-2.1,5.9-2.2c0,0,0,0,0,0c0,0,0,0,0,0c0,0,0,0,0,0c0,0,0,0-0.1,0s0,0-0.3,0.1c-0.9,0.3-3.5,1.4-5.6,1.8
			c-0.2,0-0.3,0-0.4,0.1c0-0.8,0.2-1.1,0.3-1.2c0,0,0,0,0,0c0,0,0.1,0.1,0.1,0.2c0.1,0.2,0.3,0.4,0.6,0.4c0.5-0.1,0.6-0.6,0.6-1
			l0-0.2c0.1-0.4,0.1-0.7,0.5-0.8c0.2,0,0.2,0,0.3,0.4c0.1,0.3,0.2,0.7,0.6,0.7c0.2,0,0.3,0,0.5-0.2c0.3-0.3,0.3-0.8,0.3-1.2v-0.1
			c0-1,0.5-1,0.7-1c0.1,0,0.1,0,0.2,0c0.1,0,0.2,0,0.2,0.1c0.1,0.1,0.1,0.5,0,0.7c0,0.4-0.1,0.8,0.3,1c0.1,0,0.2,0.1,0.3,0.1
			c0.5,0,0.8-0.4,0.9-0.7c0.2-0.4,0.5-0.6,0.8-0.6c0.3,0,0.6,0.2,0.9,0.6C48.2,60.8,48.2,61.1,48.1,61.4z"/>
		<path d="M57,54.2c-0.1,0-0.2,0-0.3,0c-0.2,0-0.3,0-0.4,0c0-0.2,0.1-0.3,0.6-0.6c0.6-0.3,0.9-0.8,0.9-1.4c0-0.5-0.3-1-0.9-1.3
			c-0.7-0.4-1.4-0.3-1.9,0.2c-0.3,0.3-0.4,0.7-0.4,1.1c0,0.5-0.2,0.6-0.3,0.6c-0.1-0.1-0.1-0.2-0.2-0.4c-0.2-0.4-0.4-0.9-0.9-0.9
			c-0.1,0-0.2,0-0.3,0.1c-0.4,0.2-0.6,0.4-0.8,0.7c-0.1,0.4-0.1,0.8,0.2,1.4l0.1,0.1c0.1,0.2,0.3,0.6,0.3,0.7
			c-0.1,0-0.2-0.1-0.2-0.2c-0.2-0.2-0.4-0.4-0.7-0.4c-0.2,0-0.4,0.1-0.5,0.3c-0.6,0.5-0.3,1.2-0.2,1.5l0.1,0.2
			c0.1,0.3,0.1,0.4,0.1,0.4c0,0-0.1,0-0.1,0c-0.1-0.1-0.3-0.2-0.5-0.2c-0.1,0-0.4,0.1-0.5,0.3c-0.4,0.6,0.2,1.5,0.4,1.9
			c-0.3,0.3-0.3,0.4-0.3,0.4c0,0,0,0,0,0c0,0,0,0,0,0c0,0,0.1,0,0.1,0c0.1,0,0.2-0.1,0.4-0.2c0.3,0.2,0.8,0.7,1.4,0.7
			c0.1,0,0.3,0,0.4-0.1c0.6-0.3,0.4-0.8,0.3-1c0,0,0-0.1,0-0.1c0,0,0.1,0,0.1,0c0.1,0,0.2,0,0.4,0.1c0.1,0,0.1,0,0.2,0.1l0.1,0
			c0.2,0.1,0.4,0.1,0.7,0.1c0.4,0,0.7-0.2,1-0.5c0.2-0.2,0.3-0.4,0.2-0.7c0-0.3-0.3-0.5-0.5-0.7c-0.1-0.1-0.2-0.2-0.2-0.2
			c0,0,0-0.1,0.2-0.1c0.2,0,0.4,0.1,0.6,0.1c0.1,0,0.2,0,0.2,0.1c0.2,0,0.3,0.1,0.5,0.1c0.8,0,1.4-0.6,1.6-1.5c0-0.3,0-0.5-0.2-0.6
			C57.6,54.3,57.3,54.2,57,54.2z M57.4,55.1c-0.1,0.8-0.6,1.1-1.4,0.9c-0.1,0-0.1,0-0.2-0.1c-0.2-0.1-0.5-0.1-0.7-0.1
			c-0.5,0-0.6,0.3-0.7,0.4c-0.2,0.4,0.2,0.7,0.4,0.9c0.1,0.1,0.3,0.2,0.3,0.3c0,0.1,0,0.1-0.1,0.2c-0.2,0.2-0.4,0.3-0.6,0.3
			c-0.2,0-0.4-0.1-0.5-0.1l-0.1,0c-0.1,0-0.1,0-0.2-0.1c-0.2-0.1-0.4-0.1-0.6-0.1c-0.2,0-0.4,0.1-0.5,0.2c-0.2,0.2-0.1,0.5-0.1,0.7
			c0,0.1,0.1,0.2,0.1,0.2c0,0,0,0-0.1,0c-0.3,0.1-0.6,0-1.1-0.4c0.3-0.2,0.6-0.5,0.9-0.8c1.8-1.6,3.9-4.8,3.9-5c0,0,0-0.1-0.1-0.1
			c0,0,0,0,0,0c-0.1,0-0.1,0-0.2,0.2c-1.5,2-2.8,3.5-3.9,4.5c-0.4,0.4-0.7,0.6-0.9,0.8c-0.4-0.8-0.4-1.1-0.3-1.2c0,0,0,0,0,0
			c0,0,0.1,0.1,0.2,0.1c0.1,0.1,0.3,0.1,0.4,0.1c0.1,0,0.2,0,0.3-0.1c0.4-0.3,0.2-0.7,0.1-1.1l-0.1-0.2c-0.1-0.3-0.2-0.7,0.1-0.9
			c0.1-0.1,0.1-0.1,0.1-0.1c0.1,0,0.2,0.1,0.3,0.2c0.2,0.2,0.4,0.4,0.6,0.4c0.1,0,0.2,0,0.2-0.1c0.2-0.1,0.3-0.2,0.3-0.4
			c0.1-0.4-0.1-0.8-0.3-1.2l0-0.1c-0.2-0.4-0.3-0.7-0.2-0.9c0.1-0.2,0.2-0.3,0.4-0.4c0,0,0.1,0,0.1,0c0.2,0,0.3,0.3,0.4,0.6
			c0.1,0.3,0.3,0.7,0.7,0.7l0.1,0c0.5-0.1,0.8-0.5,0.8-1.2c0-0.3,0.1-0.6,0.2-0.7c0.3-0.3,0.7-0.3,1.2-0.1c0.4,0.2,0.6,0.5,0.6,0.8
			c0,0.3-0.2,0.7-0.6,0.9c-0.5,0.2-1,0.5-0.9,1.2c0,0.3,0.3,0.4,0.7,0.4c0.1,0,0.2,0,0.3,0c0.1,0,0.2,0,0.3,0c0.3,0,0.3,0,0.4,0.1
			C57.4,54.9,57.4,55,57.4,55.1z"/>
		<path d="M62.1,41.5c-0.3,0-0.6,0.2-0.9,0.4C61.2,41.9,61,42,60.9,42c-0.1-0.1-0.1-0.3,0.2-0.8c0.4-0.5,0.4-1.2,0.2-1.6
			c-0.2-0.5-0.8-0.7-1.4-0.7l-0.1,0c-0.6,0-1.2,0.3-1.4,0.8c-0.2,0.4-0.2,1,0.1,1.5c0.3,0.4,0.2,0.6,0.1,0.6c-0.1,0-0.2-0.2-0.3-0.2
			C58,41.3,57.7,41,57.4,41c-0.2,0-0.4,0.1-0.6,0.3c-0.3,0.3-0.4,0.7-0.3,1c0.1,0.4,0.3,0.8,0.9,1.1l0.1,0.1
			c0.2,0.1,0.6,0.4,0.6,0.5c0,0,0,0,0,0c-0.1,0-0.2,0-0.3-0.1c-0.1,0-0.3-0.1-0.5-0.1c-0.3,0-0.6,0.2-0.7,0.6
			c-0.2,0.7,0.4,1.2,0.6,1.4l0.2,0.1c0.2,0.2,0.3,0.3,0.3,0.3c0,0-0.1,0-0.1,0c-0.2,0-0.4,0-0.6,0.2c-0.1,0.1-0.2,0.3-0.2,0.4
			c0,0.7,0.8,1.2,1.2,1.4c-0.1,0.4-0.1,0.5-0.1,0.5l0.1,0l0,0l0,0c0.1,0,0.1,0,0.3-0.4c0.2,0,0.5,0.1,0.8,0.1c0.5,0,0.8-0.1,1.1-0.4
			c0.4-0.5,0-0.9-0.2-1c0,0-0.1-0.1-0.1-0.1c0-0.1,0.1-0.1,0.4-0.2c0.1,0,0.2,0,0.2,0l0,0c0.3-0.1,1.1-0.2,1.3-1.1
			c0.1-0.3,0-0.5-0.1-0.7c-0.2-0.3-0.5-0.3-0.8-0.4c-0.1,0-0.3,0-0.3-0.1c0-0.2,0.3-0.3,0.7-0.4c0.1,0,0.1,0,0.2-0.1
			c0.5-0.1,0.9-0.4,1.1-0.8c0.2-0.4,0.2-0.9,0-1.4C62.6,41.5,62.4,41.5,62.1,41.5z M58.1,48.8C58.1,48.8,58.1,48.8,58.1,48.8
			C58.1,48.8,58.1,48.8,58.1,48.8L58.1,48.8z M62.3,43.1c-0.1,0.3-0.4,0.5-0.7,0.6c-0.1,0-0.1,0-0.2,0c-0.5,0.1-1.2,0.3-1.1,1
			c0,0.5,0.5,0.5,0.8,0.6c0.1,0,0.3,0.1,0.4,0.1c0,0,0,0.1,0,0.3c-0.1,0.5-0.5,0.6-0.9,0.7l0,0c-0.1,0-0.2,0-0.2,0
			c-0.4,0.1-0.8,0.1-0.9,0.6c-0.1,0.3,0.1,0.5,0.3,0.6c0.1,0,0.1,0.1,0.2,0.2c0,0,0,0,0,0.1c-0.1,0.1-0.3,0.2-0.6,0.2
			c-0.2,0-0.4,0-0.5-0.1c0.1-0.3,0.3-0.7,0.4-1.2c0.8-2.4,1-6.1,1-6.3l-0.1,0c-0.1,0-0.1,0-0.2,0.6c-0.2,1.1-0.5,3.7-1.2,5.6
			c-0.2,0.5-0.3,0.8-0.4,1.1c-0.7-0.4-0.8-0.7-0.8-0.9c0,0,0,0,0,0c0,0,0.1,0,0.2,0c0.2,0,0.5,0,0.6-0.3c0.2-0.5-0.2-0.8-0.5-1
			l-0.2-0.1c-0.3-0.2-0.5-0.5-0.4-0.8c0-0.2,0.1-0.2,0.2-0.2c0.1,0,0.2,0,0.3,0.1c0.1,0,0.3,0.1,0.4,0.1c0.3,0,0.4-0.1,0.5-0.2
			c0.1-0.1,0.1-0.3,0.1-0.5c-0.1-0.4-0.5-0.6-0.9-0.8L57.6,43c-0.3-0.2-0.6-0.5-0.6-0.7c0-0.2,0-0.4,0.2-0.6
			c0.1-0.1,0.1-0.1,0.1-0.1c0.1,0,0.4,0.2,0.6,0.3c0.2,0.2,0.5,0.4,0.7,0.4c0.1,0,0.2,0,0.3-0.1c0.7-0.5,0.2-1.2,0.1-1.4
			c-0.2-0.3-0.2-0.6-0.1-0.9c0.2-0.3,0.5-0.5,0.9-0.5l0,0c0.4,0,0.7,0.2,0.8,0.4c0.2,0.3,0.1,0.7-0.1,1.1c-0.1,0.2-0.6,0.8-0.1,1.5
			c0.1,0.1,0.2,0.2,0.4,0.2c0.2,0,0.5-0.1,0.7-0.3c0.2-0.1,0.4-0.3,0.6-0.3c0,0,0.1,0,0.2,0.2C62.4,42.5,62.4,42.9,62.3,43.1z"/>
		<path d="M58.4,27c-0.5-0.5-1.2-0.6-1.9-0.2c-0.5,0.3-0.9,0.8-0.9,1.4c0,0.5,0.3,0.9,0.8,1.2c0.4,0.2,0.4,0.4,0.4,0.5c0,0,0,0,0,0
			c-0.1,0-0.2,0-0.4,0c-0.2,0-0.4-0.1-0.6-0.1c-0.6,0-0.8,0.4-0.8,0.7c-0.1,0.4,0,0.8,0.2,1c0.3,0.3,0.7,0.5,1.3,0.5l0.1,0
			c0.2,0,0.7,0,0.8,0.1c0,0,0,0,0,0c-0.1,0-0.2,0.1-0.3,0.1c-0.3,0.1-1,0.3-0.8,1c0.2,0.8,0.9,0.9,1.2,0.9l0.2,0
			c0.3,0.1,0.4,0.1,0.4,0.1c0,0-0.1,0-0.1,0.1c-0.2,0.1-0.4,0.2-0.4,0.5c0,0.1,0,0.3,0.1,0.5c0.4,0.6,1.3,0.6,1.8,0.6
			c0.1,0.4,0.1,0.4,0.2,0.4c0,0,0,0,0,0c0,0,0.1,0,0.1,0c0,0,0.1-0.1,0.1-0.4c0.9-0.3,1.4-0.7,1.4-1.2c0.1-0.6-0.5-0.7-0.7-0.8
			c0,0-0.1,0-0.1,0c0-0.1,0.1-0.2,0.3-0.4c0.1,0,0.1-0.1,0.2-0.1l0,0c0.3-0.2,0.9-0.7,0.6-1.6c-0.2-0.5-0.5-0.6-0.7-0.6
			c-0.2,0-0.4,0.1-0.5,0.1c-0.1,0-0.2,0.1-0.3,0.1c-0.1-0.1,0.1-0.4,0.4-0.6c0.1-0.1,0.1-0.1,0.2-0.2c0.4-0.4,0.6-0.8,0.6-1.3
			c0-0.5-0.3-0.9-0.7-1.2c-0.2-0.1-0.4-0.2-0.5-0.2c-0.5,0-0.7,0.5-0.9,0.8C59.1,28.9,59,29,59,29.1c-0.2-0.1-0.2-0.2-0.2-0.8
			C58.8,27.8,58.7,27.4,58.4,27z M58.8,29.6c0.1,0,0.1,0,0.2,0c0.3,0,0.5-0.3,0.7-0.7c0.1-0.2,0.3-0.5,0.4-0.5c0,0,0.1,0,0.2,0.1
			c0.3,0.2,0.5,0.5,0.5,0.8c0,0.3-0.1,0.6-0.4,0.9c0,0-0.1,0.1-0.2,0.2c-0.4,0.3-0.9,0.9-0.5,1.4c0.1,0.2,0.3,0.2,0.5,0.2
			c0.2,0,0.3-0.1,0.5-0.1c0.1,0,0.2-0.1,0.3-0.1c0,0,0.1,0,0.2,0.2c0.1,0.5-0.1,0.8-0.4,1l0,0c-0.1,0-0.1,0.1-0.2,0.1
			c-0.3,0.2-0.6,0.5-0.5,1c0.1,0.3,0.4,0.4,0.6,0.4c0.1,0,0.2,0,0.2,0.1c0,0,0,0,0,0.1c0,0.2-0.2,0.4-0.9,0.7c0-0.3-0.1-0.7-0.2-1.3
			c-0.4-2.4-2.1-5.9-2.3-5.9c0,0,0,0-0.1,0c-0.1,0.1-0.1,0.1,0.2,0.6c0.4,1,1.4,3.4,1.7,5.4c0.1,0.5,0.2,0.9,0.2,1.3
			c-0.8,0-1.1-0.2-1.1-0.4c0,0,0,0,0,0c0,0,0.1-0.1,0.2-0.1c0.2-0.1,0.5-0.3,0.4-0.6c-0.1-0.5-0.5-0.6-0.9-0.7l-0.2,0
			c-0.4-0.1-0.7-0.2-0.8-0.5c0-0.2,0-0.2,0.4-0.3c0.3-0.1,0.7-0.2,0.7-0.6c0-0.2,0-0.3-0.2-0.4c-0.3-0.3-0.7-0.3-1.2-0.3l-0.1,0
			c-0.4,0-0.7-0.1-0.8-0.3c-0.1-0.1-0.1-0.3-0.1-0.6c0-0.1,0.1-0.2,0.3-0.2c0.1,0,0.3,0,0.5,0.1c0.2,0,0.3,0.1,0.5,0.1
			c0.3,0,0.5-0.2,0.5-0.3c0.1-0.3,0.2-0.8-0.6-1.3c-0.3-0.2-0.5-0.4-0.5-0.7c0-0.3,0.2-0.7,0.6-0.9c0.4-0.3,0.9-0.2,1.2,0.1
			c0.2,0.2,0.3,0.5,0.2,0.9C58.2,28.7,58.1,29.4,58.8,29.6z"/>
		<path d="M47.7,18c-0.3,0.6-0.3,1.1-0.1,1.6c0.2,0.4,0.7,0.7,1.3,0.7c0.5,0,0.6,0.2,0.6,0.3c-0.1,0-0.2,0.1-0.4,0.1
			c-0.4,0.1-0.8,0.3-0.9,0.6c-0.1,0.2-0.1,0.4,0,0.6c0.3,0.9,1,1.1,2.1,0.7l0.1-0.1c0.2-0.1,0.5-0.3,0.7-0.3c0,0,0,0,0,0
			c0,0.1-0.1,0.2-0.2,0.2c-0.2,0.2-0.4,0.4-0.4,0.7c0,0.2,0.1,0.4,0.2,0.5c0.2,0.2,0.5,0.4,0.8,0.4c0.3,0,0.5-0.1,0.7-0.1l0.2-0.1
			c0.2-0.1,0.4-0.1,0.4-0.1c0,0,0,0.1-0.1,0.1c-0.1,0.2-0.2,0.4-0.2,0.6c0,0.1,0.1,0.3,0.3,0.4c0.1,0.1,0.3,0.1,0.5,0.1
			c0.4,0,0.9-0.2,1.3-0.4c0.3,0.3,0.3,0.3,0.4,0.3c0,0,0.1,0,0.1,0l0,0l0-0.1c0,0,0-0.1-0.2-0.4c0.7-0.7,0.9-1.3,0.7-1.8
			c-0.2-0.4-0.4-0.4-0.6-0.4c-0.1,0-0.3,0-0.4,0.1c0,0-0.1,0-0.1,0c0-0.1,0-0.2,0.1-0.5c0-0.1,0.1-0.1,0.1-0.2l0,0
			c0.1-0.3,0.4-1-0.3-1.7c-0.2-0.2-0.4-0.3-0.6-0.3c-0.3,0-0.6,0.3-0.7,0.5c-0.1,0.1-0.2,0.2-0.2,0.2c-0.1-0.1-0.1-0.4,0.1-0.8
			c0-0.1,0-0.2,0.1-0.2c0.2-0.5,0.1-1-0.1-1.4c-0.2-0.4-0.6-0.7-1.2-0.8c-0.4-0.1-0.6,0.1-0.7,0.2c-0.3,0.3-0.3,0.7-0.3,1.1
			c0,0.1,0,0.3,0,0.4c-0.2,0-0.3-0.1-0.5-0.5c-0.3-0.6-0.8-1-1.4-1C48.5,17.2,48,17.5,47.7,18z M48.2,18.3c0.2-0.3,0.5-0.5,0.8-0.5
			c0.4,0,0.7,0.2,0.9,0.7c0.2,0.4,0.5,0.9,1.1,0.9c0,0,0.1,0,0.1,0c0.5,0,0.5-0.6,0.5-1c0-0.2,0-0.6,0.1-0.6c0,0,0,0,0.1,0
			c0,0,0.1,0,0.1,0c0.4,0.1,0.7,0.3,0.8,0.5c0.1,0.2,0.2,0.6,0.1,0.9c0,0.1,0,0.1-0.1,0.2c-0.1,0.5-0.4,1.2,0.3,1.5
			c0.1,0,0.2,0.1,0.2,0.1c0.3,0,0.5-0.2,0.6-0.4c0.1-0.1,0.2-0.3,0.3-0.3c0,0,0.1,0,0.2,0.1c0.4,0.4,0.3,0.8,0.1,1.1l0,0
			c0,0.1,0,0.1-0.1,0.2c-0.1,0.4-0.3,0.7,0,1.1c0.1,0.1,0.2,0.2,0.4,0.2c0.1,0,0.2,0,0.3-0.1c0.1,0,0.2-0.1,0.2-0.1c0,0,0,0,0,0.1
			c0.1,0.1,0.1,0.5-0.5,1.1c-0.2-0.3-0.4-0.6-0.8-1c-1.3-1.6-3.7-3.3-4.4-3.8c-0.3-0.3-0.4-0.3-0.4-0.3h0L49,18.8l0,0
			c0,0.1,0,0.1,0.4,0.3l0,0c0.9,0.7,2.9,2.5,4.2,4c0.3,0.4,0.6,0.7,0.8,1c-0.2,0.1-0.6,0.3-0.9,0.3c-0.1,0-0.2,0-0.2,0c0,0,0,0,0,0
			c0,0,0.1-0.1,0.1-0.2c0.1-0.2,0.3-0.4,0.1-0.7c-0.1-0.2-0.3-0.3-0.5-0.3c-0.2,0-0.4,0.1-0.6,0.1L52,23.5c-0.1,0-0.3,0.1-0.5,0.1
			c-0.2,0-0.3-0.1-0.4-0.2C51,23.3,51,23.3,51,23.3c0-0.1,0.2-0.2,0.3-0.3c0.2-0.2,0.5-0.5,0.3-0.9c-0.1-0.2-0.3-0.3-0.6-0.3
			c-0.3,0-0.7,0.2-1,0.3l-0.1,0c-0.2,0.1-0.5,0.2-0.7,0.2s-0.5-0.1-0.6-0.5c0-0.1,0-0.2,0-0.2c0.1-0.1,0.4-0.2,0.6-0.3
			c0.3-0.1,0.8-0.3,0.8-0.7c0-0.4-0.2-0.8-1.1-0.9c-0.4,0-0.7-0.2-0.8-0.4C47.9,19,48,18.7,48.2,18.3z"/>
		<path d="M21.2,45.6l1.3-3.4h-0.7L21.1,44c-0.1,0.3-0.2,0.6-0.3,0.9h0c-0.1-0.3-0.2-0.6-0.3-0.9l-0.7-1.7h-0.8l1.3,3.4H21.2
			L21.2,45.6z"/>
		<polygon points="25.4,45 24.1,45 24.1,44.1 25.3,44.1 25.3,43.6 24.1,43.6 24.1,42.8 25.4,42.8 25.4,42.2 23.4,42.2 23.4,45.6 
			25.4,45.6 		"/>
		<polygon points="27.9,45.6 27.9,42.8 28.8,42.8 28.8,42.2 26.3,42.2 26.3,42.8 27.2,42.8 27.2,45.6 		"/>
		<polygon points="31.8,42.8 31.8,42.2 29.8,42.2 29.8,45.6 31.8,45.6 31.8,45 30.5,45 30.5,44.1 31.7,44.1 31.7,43.6 30.5,43.6 
			30.5,42.8 		"/>
		<path d="M35.2,44L34,42.2h-0.9v3.4h0.7l0-1.8c0-0.3,0-0.5,0-0.7h0c0.1,0.2,0.2,0.4,0.3,0.6l1.2,1.8h0.9v-3.4h-0.7l0,1.5
			c0,0.4,0,0.8,0,1h0C35.4,44.5,35.3,44.2,35.2,44z"/>
		<path d="M38.3,45.1c-0.3,0-0.5-0.1-0.7-0.1l0,0.6c0.2,0,0.5,0.1,0.7,0.1c0.9,0,1.5-0.4,1.5-1.1c0-1.1-1.5-0.8-1.5-1.4
			c0-0.3,0.2-0.4,0.6-0.4c0.2,0,0.5,0,0.6,0.1l0-0.6c-0.2,0-0.4-0.1-0.6-0.1c-0.9,0-1.4,0.4-1.4,1.1c0,1.1,1.5,0.8,1.5,1.4
			C38.9,44.9,38.6,45.1,38.3,45.1z"/>
		<polygon points="40.9,42.2 40.9,45.6 41.6,45.6 41.6,44 42.8,45.6 43.8,45.6 42.3,43.9 43.7,42.2 42.8,42.2 41.6,43.7 41.6,42.2 
					"/>
		<path d="M45.2,44.9h1.4l0.2,0.7h0.8l-1.3-3.4h-0.8l-1.3,3.4H45L45.2,44.9z M45.8,43.5c0.1-0.2,0.1-0.4,0.2-0.5h0
			c0,0.2,0.1,0.4,0.2,0.5l0.3,0.9h-1.1L45.8,43.5z"/>
		<path d="M49.8,42.2c-0.4,0-0.8,0-1.1,0v3.4h0.7v-1.1c0.1,0,0.2,0,0.3,0c0.9,0,1.4-0.5,1.4-1.2C51.1,42.6,50.6,42.2,49.8,42.2z
			 M49.7,44c-0.1,0-0.2,0-0.3,0v-1.1c0.1,0,0.2,0,0.3,0c0.4,0,0.7,0.2,0.7,0.6C50.4,43.7,50.1,44,49.7,44z"/>
		<path d="M21.2,51.3c1,0,1.8-0.7,1.8-1.8c0-1.1-0.7-1.7-1.7-1.7c-0.9,0-1.7,0.7-1.7,1.8C19.6,50.6,20.2,51.3,21.2,51.3z M21.3,48.4
			c0.6,0,1,0.4,1,1.1c0,0.8-0.4,1.1-1,1.1c-0.7,0-0.9-0.5-0.9-1.1C20.4,48.8,20.8,48.4,21.3,48.4z"/>
		<path d="M25.5,51.3c0.3,0,0.6-0.1,0.9-0.1l-0.1-0.6c-0.2,0.1-0.5,0.2-0.7,0.2c-0.7,0-1.1-0.4-1.1-1.1c0-0.7,0.4-1.1,1-1.1
			c0.2,0,0.5,0,0.7,0.1l0.1-0.6c-0.2-0.1-0.5-0.1-0.7-0.1c-1.3,0-1.8,0.8-1.8,1.8C23.8,50.6,24.4,51.3,25.5,51.3z"/>
		<polygon points="30.5,51.2 30.5,47.8 29.8,47.8 29.8,49.2 28.2,49.2 28.2,47.8 27.5,47.8 27.5,51.2 28.2,51.2 28.2,49.8 
			29.8,49.8 29.8,51.2 		"/>
		<polygon points="34.1,49.6 35.4,51.2 36.3,51.2 34.9,49.5 36.2,47.8 35.4,47.8 34.1,49.3 34.1,47.8 33.4,47.8 33.4,51.2 
			34.1,51.2 		"/>
		<path d="M38.4,51.3c1,0,1.8-0.7,1.8-1.8c0-1.1-0.7-1.7-1.7-1.7c-0.9,0-1.7,0.7-1.7,1.8C36.8,50.6,37.3,51.3,38.4,51.3z M38.5,48.4
			c0.6,0,0.9,0.4,0.9,1.1c0,0.8-0.4,1.1-1,1.1c-0.7,0-0.9-0.5-0.9-1.1C37.5,48.8,38,48.4,38.5,48.4z"/>
		<path d="M42.2,49.4l1.2,1.8h0.9v-3.4h-0.7l0,1.5c0,0.4,0,0.8,0,1h0c-0.1-0.2-0.2-0.5-0.4-0.7l-1.1-1.8h-0.9v3.4h0.7l0-1.8
			c0-0.3,0-0.5,0-0.7h0C42,48.9,42.1,49.2,42.2,49.4z"/>
		<path d="M46.3,50.7c-0.3,0-0.5-0.1-0.7-0.1l0,0.6c0.2,0,0.5,0.1,0.7,0.1c0.9,0,1.5-0.4,1.5-1.1c0-1.1-1.5-0.8-1.5-1.4
			c0-0.3,0.2-0.4,0.6-0.4c0.2,0,0.5,0,0.6,0.1l0-0.6c-0.2,0-0.4-0.1-0.6-0.1c-0.9,0-1.4,0.4-1.4,1.1c0,1.1,1.5,0.8,1.5,1.4
			C47,50.5,46.7,50.7,46.3,50.7z"/>
		<polygon points="50,51.2 50,48.4 51,48.4 51,47.8 48.4,47.8 48.4,48.4 49.3,48.4 49.3,51.2 		"/>
		<path d="M24,38.3L24,38.3c-1.8-0.2-1.9-0.6-1.9-2v-2.5l2.9,3.2c1.1,1.2,1.7,1.9,3.4,1.9c0.3,0,0.6,0,1-0.1l0.1,0l0-0.4l-0.1,0
			c-1,0-1.5-0.6-2.6-1.7c-0.1-0.2-0.3-0.3-0.5-0.5L23.5,33l1.2-1.2l0.2-0.3c1-1,2.1-2.2,3.5-2.3l0.1,0v-0.4h-3.9v0.4l0.1,0
			c0.4,0,0.6,0.1,0.7,0.3c0.1,0.3-0.2,0.9-1,1.8l-2.3,2.4v-2.4c0-1.5,0.1-1.8,1.4-2l0.1,0v-0.4h-4.7v0.4l0.1,0
			c1.6,0.2,1.6,0.6,1.7,2v5c0,1.5-0.1,1.8-1.7,2l-0.1,0v0.4H24L24,38.3L24,38.3z"/>
		<path d="M36.9,38.3L36.9,38.3c-1.9-0.2-2-0.6-2-2.4v-6.5h0.8c1.7,0,2.4,0.5,2.8,2.2l0,0.1l0.4-0.1l-0.2-2.8h-9.1l-0.2,2.8l0.4,0.1
			l0-0.1c0.5-1.6,1.1-2.2,2.8-2.2h0.8v6.5c0,1.7-0.1,2.2-1.9,2.4l-0.1,0v0.4h5.4L36.9,38.3L36.9,38.3z"/>
		<path d="M51.5,29.2L51.5,29.2l0.1-0.4h-5.1v0.4l0.1,0c1.8,0.3,1.8,0.5,1.8,2v2h-5.2v-2c0-1.5,0-1.8,1.8-2l0.1,0v-0.4h-5.1v0.4
			l0.1,0c1.6,0.2,1.6,0.6,1.7,2v5c0,1.5-0.1,1.8-1.7,2l-0.1,0v0.4h5.1v-0.4l-0.1,0c-1.8-0.3-1.8-0.5-1.8-2V34h5.2v2.3
			c0,1.5,0,1.8-1.8,2l-0.1,0v0.4h5.1v-0.4l-0.1,0c-1.6-0.2-1.6-0.6-1.7-2v-5C49.8,29.8,49.8,29.4,51.5,29.2z"/>
		<path d="M23.1,15.8c0,0.1-0.3,0.6,0.1,1.1c0.4,0.6,1,0.5,1,0.5c0.4,0.6,1.2,1.2,1.8,1c0,0,3.8-1.7,9-1.8h0c5.2,0,9,1.8,9,1.8
			c0.6,0.2,1.3-0.5,1.8-1c0,0,0.7,0.1,1-0.5c0.3-0.5,0.1-1,0.1-1.1c0.3-0.5,0.8-1,0.8-1c0.2-0.2,0.4-0.5,0.4-0.8
			c0-0.6-0.5-1.1-1.1-1.1c-0.1,0-0.1,0-0.1,0c0,0,0-0.1,0-0.1c0.3-0.2,0.5-0.5,0.5-0.8c0-0.5-0.4-0.9-0.9-0.9
			c-0.2,0-0.3,0.1-0.5,0.1c0,0-0.1-0.1-0.1-0.1c0.1-0.1,0.2-0.3,0.2-0.6c0-0.4-0.3-0.8-0.8-0.8c-0.3,0-0.5,0.1-0.6,0.3
			c0,0-0.1-0.1-0.1-0.1c0.1-0.1,0.1-0.3,0.1-0.4c0-0.4-0.3-0.7-0.7-0.7c-0.3,0-0.6,0.2-0.7,0.5c-0.1,0-0.1-0.1-0.2-0.1
			C43,9.2,43.1,9.1,43.1,9c0-0.4-0.3-0.6-0.6-0.6c-0.3,0-0.6,0.2-0.6,0.5c0,0-0.1,0-0.1,0c-0.1-0.4-0.4-0.6-0.9-0.6
			c-0.1,0-0.2,0-0.3,0c0,0-0.1-0.1-0.1-0.1c0,0,0,0,0,0c0-0.4-0.3-0.8-0.8-0.8c-0.2,0-0.3,0.1-0.4,0.1c0,0-0.1,0-0.1,0c0,0,0,0,0,0
			c0-0.4-0.3-0.7-0.7-0.7c-0.3,0-0.5,0.1-0.6,0.4c-0.1,0-0.1,0-0.2,0c0,0,0,0,0,0c0-0.3-0.3-0.6-0.6-0.6c-0.3,0-0.5,0.2-0.6,0.5
			c-0.1,0-0.1,0-0.2,0c0.1-0.2,0.1-0.4,0.1-0.6c0-0.6-0.3-1.1-0.8-1.3c0,0-0.2-0.1-0.4-0.1c0-0.5,0-1.1,0-1.1s0.6,0,0.6,0
			c0,0,0.1-0.1,0.1-0.3c0-0.1,0-0.2-0.1-0.3c-0.1,0-0.6,0-0.6,0V2.6c0,0-0.1-0.1-0.3-0.1l0,0c-0.2,0-0.2,0-0.3,0.1v0.6
			c0,0-0.6,0-0.6,0c0,0-0.1,0.1-0.1,0.3c0,0.2,0,0.2,0.1,0.3c0.1,0,0.6,0,0.6,0s0,0.6,0,1.1c-0.2,0-0.4,0.1-0.4,0.1
			c-0.5,0.2-0.8,0.7-0.8,1.3c0,0.2,0,0.4,0.1,0.6c-0.1,0-0.1,0-0.2,0c-0.1-0.3-0.3-0.5-0.6-0.5c-0.3,0-0.6,0.3-0.6,0.6c0,0,0,0,0,0
			c-0.1,0-0.1,0-0.2,0c-0.1-0.2-0.3-0.4-0.6-0.4c-0.4,0-0.7,0.3-0.7,0.7c0,0,0,0,0,0c0,0-0.1,0-0.1,0c-0.1-0.1-0.3-0.1-0.4-0.1
			c-0.4,0-0.8,0.3-0.8,0.8c0,0,0,0,0,0c0,0-0.1,0.1-0.1,0.1c-0.1,0-0.2,0-0.3,0c-0.4,0-0.7,0.3-0.9,0.6c0,0-0.1,0-0.1,0
			c0-0.3-0.3-0.5-0.6-0.5c-0.4,0-0.6,0.3-0.6,0.6c0,0.1,0,0.2,0.1,0.3c-0.1,0-0.1,0.1-0.2,0.1c-0.1-0.3-0.4-0.5-0.7-0.5
			c-0.4,0-0.7,0.3-0.7,0.7c0,0.2,0.1,0.3,0.1,0.4c0,0-0.1,0.1-0.1,0.1c-0.1-0.2-0.4-0.3-0.6-0.3c-0.4,0-0.8,0.3-0.8,0.8
			c0,0.2,0.1,0.4,0.2,0.6c0,0-0.1,0.1-0.1,0.1c-0.1-0.1-0.3-0.1-0.5-0.1c-0.5,0-0.9,0.4-0.9,0.9c0,0.4,0.2,0.7,0.5,0.8
			c0,0,0,0.1,0,0.1c0,0-0.1,0-0.1,0c-0.6,0-1.1,0.5-1.1,1.1c0,0.3,0.1,0.6,0.4,0.8C22.4,14.9,22.8,15.3,23.1,15.8z M24.1,17
			c-0.4,0-0.7-0.3-0.7-0.7c0-0.1,0-0.3,0.1-0.4c0.1-0.2,0.3-0.3,0.6-0.3s0.4,0.1,0.6,0.3c0.1,0.1,0.1,0.2,0.1,0.4
			C24.8,16.7,24.5,17,24.1,17z M35,14.7c-0.4,0-0.7-0.3-0.7-0.7c0-0.4,0.3-0.7,0.7-0.7c0.4,0,0.7,0.3,0.7,0.7
			C35.7,14.4,35.4,14.7,35,14.7z M35,9.4c0.4,0,0.7,0.3,0.7,0.7s-0.3,0.7-0.7,0.7c-0.4,0-0.7-0.3-0.7-0.7C34.3,9.7,34.6,9.4,35,9.4z
			 M34.5,8.7c0-0.3,0.2-0.5,0.5-0.5s0.5,0.2,0.5,0.5S35.3,9.2,35,9.2C34.7,9.2,34.5,9,34.5,8.7z M35,11c0.5,0,0.8,0.4,0.8,0.8
			c0,0.2-0.1,0.4-0.2,0.6c-0.2-0.1-0.4-0.2-0.6-0.2c-0.2,0-0.5,0.1-0.6,0.2c-0.1-0.1-0.2-0.3-0.2-0.6C34.2,11.4,34.5,11,35,11z
			 M45.9,17c-0.4,0-0.7-0.3-0.7-0.7c0-0.2,0.1-0.4,0.2-0.5c0.1-0.1,0.3-0.2,0.5-0.2c0.3,0,0.5,0.2,0.6,0.5c0,0.1,0,0.2,0,0.2
			C46.6,16.7,46.3,17,45.9,17z M46.9,13.3c0.4,0,0.7,0.3,0.7,0.7c0,0.3-0.3,0.6-0.5,0.7c-0.2-0.2-0.5-0.4-0.8-0.4c0,0-0.1,0-0.1,0
			c-0.1-0.1-0.1-0.2-0.1-0.4C46.1,13.6,46.5,13.3,46.9,13.3z M46.3,11.5c0.3,0,0.6,0.2,0.6,0.6s-0.2,0.6-0.6,0.6
			c-0.3,0-0.6-0.2-0.6-0.6C45.7,11.7,46,11.5,46.3,11.5z M45.2,10.2c0.2,0,0.4,0.2,0.4,0.4c0,0.2-0.2,0.4-0.4,0.4
			c-0.2,0-0.4-0.2-0.4-0.4C44.8,10.4,45,10.2,45.2,10.2z M43.9,9.3c0.2,0,0.3,0.1,0.3,0.3c0,0.2-0.1,0.3-0.3,0.3
			c-0.2,0-0.3-0.1-0.3-0.3S43.7,9.3,43.9,9.3z M42.4,8.7c0.1,0,0.3,0.1,0.3,0.3c0,0.1-0.1,0.3-0.3,0.3c-0.1,0-0.3-0.1-0.3-0.3
			S42.3,8.7,42.4,8.7z M41.6,9.5c2.2,0.7,3.3,1.7,3.8,2.8c0.4,1,0.3,1.2,0.4,1.8c0,0.2,0.1,0.4,0.1,0.5c-0.5,0.3-0.6,0.6-0.6,0.7
			c0,0,0,0-0.1,0c-0.2-0.1-0.4-0.2-0.7-0.2c-0.8,0-1.3,0.8-1,1.5c0.1,0.2,0.5,0.8,1.4,0.5c0.1,0.1,0.1,0.1,0.2,0.2
			c-0.2,0.5-0.8,0.7-1.3,0.5c-0.5-0.2-0.9-0.6-1-1.1c-0.4,0.3-0.9,0.5-1.5,0.4c-0.6-0.1-1-0.7-0.8-1.3c0-0.1,0.1-0.3,0.1-0.3
			c0.1,0.4,0.4,0.7,0.8,0.8c0.6,0.1,1.1-0.3,1.2-0.8c0.1-0.6-0.3-1.1-0.8-1.2c-0.1,0-0.1,0-0.2,0c0,0,0-0.1,0-0.1c0-0.1,0-0.2,0-0.4
			c0.5-0.1,0.9-0.6,0.9-1.2c0-0.4-0.2-0.8-0.6-1c0.3-0.2,0.5-0.5,0.5-0.9C42.5,10,42.1,9.6,41.6,9.5C41.6,9.5,41.6,9.5,41.6,9.5z
			 M40.8,12.8c-0.1,0-0.2,0-0.3,0c0-0.1-0.1-0.2-0.1-0.3c0-0.5,0.4-0.8,0.8-0.8s0.8,0.4,0.8,0.8c0,0.4-0.3,0.7-0.6,0.8
			C41.4,13,41.1,12.8,40.8,12.8z M42.1,10.6c0,0.3-0.3,0.6-0.6,0.6s-0.6-0.3-0.6-0.6c0-0.3,0.3-0.6,0.6-0.6S42.1,10.2,42.1,10.6z
			 M40.8,8.6c0.3,0,0.5,0.2,0.5,0.5s-0.2,0.5-0.5,0.5s-0.5-0.2-0.5-0.5S40.5,8.6,40.8,8.6z M40.5,13.9c0.4,0,0.7,0.3,0.7,0.7
			s-0.3,0.7-0.7,0.7c-0.4,0-0.7-0.3-0.7-0.7C39.8,14.2,40.1,13.9,40.5,13.9z M39.7,7.7c0.2,0,0.4,0.2,0.4,0.4c0,0.2-0.2,0.4-0.4,0.4
			s-0.4-0.2-0.4-0.4C39.3,7.9,39.5,7.7,39.7,7.7z M38.5,7.1c0.2,0,0.3,0.1,0.3,0.3s-0.1,0.3-0.3,0.3c-0.2,0-0.3-0.1-0.3-0.3
			S38.3,7.1,38.5,7.1z M37.1,6.8c0.1,0,0.2,0.1,0.2,0.2c0,0.1-0.1,0.2-0.2,0.2c-0.1,0-0.2-0.1-0.2-0.2C36.9,6.9,37,6.8,37.1,6.8z
			 M39.8,12.7L40,13c-0.2,0.1-0.3,0.4-0.4,0.6c0,0,0,0.1,0,0.1c-0.1,0-0.1-0.1-0.2-0.1c-0.6-0.1-1.1,0.3-1.2,0.8
			c-0.1,0.6,0.3,1.1,0.8,1.2c0.4,0.1,0.8-0.1,1.1-0.5c0,0.1,0,0.3,0,0.4c-0.1,0.6-0.7,1-1.3,0.8c-0.5-0.1-0.9-0.5-1.2-0.9
			c-0.3,0.4-0.8,0.7-1.3,0.7c-0.6,0-1.1-0.5-1.1-1.1c0-0.1,0-0.3,0-0.4c0.2,0.4,0.5,0.7,1,0.7c0.6,0,1-0.5,1-1c0-0.6-0.5-1-1-1
			c-0.1,0-0.1,0-0.2,0c0-0.1,0-0.1,0-0.1c0-0.1,0-0.2,0-0.3l0.4-0.2c0,0-0.1-3.5-0.7-5.1c0,0,0,0,0.1,0
			C40.9,7.9,40.4,11.5,39.8,12.7z M36.1,6.3C36.1,6.3,36.1,6.3,36.1,6.3c0,0.3-0.1,0.5-0.2,0.6c-0.1,0-0.2,0-0.3,0c0,0,0-0.1,0-0.1
			c0-0.2-0.1-0.4-0.3-0.5C35.3,6.3,36.1,6.3,36.1,6.3z M35.3,5.3c0.3,0.1,0.6,0.3,0.7,0.6h-0.7V5.3z M35,6.5c0.1,0,0.2,0.1,0.2,0.2
			S35.1,7,35,7s-0.2-0.1-0.2-0.2C34.8,6.6,34.9,6.5,35,6.5z M35,7.2c0.2,0,0.4,0.2,0.4,0.4c0,0.2-0.2,0.4-0.4,0.4
			c-0.2,0-0.4-0.2-0.4-0.4C34.6,7.4,34.8,7.2,35,7.2z M34.7,5.3v0.6H34C34.2,5.6,34.4,5.4,34.7,5.3z M33.9,6.3h0.8
			c-0.2,0.1-0.3,0.3-0.3,0.5c0,0,0,0.1,0,0.1c-0.1,0-0.3,0-0.3,0C34,6.7,33.9,6.5,33.9,6.3C33.9,6.3,33.9,6.3,33.9,6.3z M32.9,6.8
			c0.1,0,0.2,0.1,0.2,0.2c0,0.1-0.1,0.2-0.2,0.2c-0.1,0-0.2-0.1-0.2-0.2C32.6,6.9,32.7,6.8,32.9,6.8z M31.5,7.1
			c0.2,0,0.3,0.1,0.3,0.3s-0.1,0.3-0.3,0.3c-0.2,0-0.3-0.1-0.3-0.3C31.2,7.3,31.3,7.1,31.5,7.1z M30.3,7.7c0.2,0,0.4,0.2,0.4,0.4
			c0,0.2-0.2,0.4-0.4,0.4c-0.2,0-0.4-0.2-0.4-0.4C29.9,7.9,30.1,7.7,30.3,7.7z M34.3,7.6C34.3,7.6,34.3,7.6,34.3,7.6
			c-0.6,1.6-0.6,5.1-0.6,5.1L34,13c0,0.1,0,0.2,0,0.3c0,0,0,0.1,0,0.1c-0.1,0-0.1,0-0.2,0c-0.6,0-1,0.5-1,1c0,0.6,0.5,1,1,1
			c0.4,0,0.8-0.3,1-0.7c0,0.1,0,0.3,0,0.4c0,0.6-0.5,1.1-1.1,1.1c-0.6,0-1-0.3-1.3-0.7c-0.2,0.5-0.6,0.8-1.2,0.9
			c-0.6,0.1-1.1-0.3-1.3-0.8c0-0.1,0-0.3,0-0.4c0.2,0.3,0.6,0.5,1.1,0.5c0.6-0.1,0.9-0.7,0.8-1.2c-0.1-0.6-0.7-0.9-1.2-0.8
			c-0.1,0-0.1,0-0.2,0.1c0-0.1,0-0.1,0-0.1c0-0.3-0.2-0.5-0.4-0.6l0.2-0.3C29.6,11.5,29.1,7.9,34.3,7.6z M30.2,14.6
			c0,0.4-0.3,0.7-0.7,0.7c-0.4,0-0.7-0.3-0.7-0.7s0.3-0.7,0.7-0.7C29.9,13.9,30.2,14.2,30.2,14.6z M28.5,13.3
			c-0.4-0.1-0.6-0.4-0.6-0.8c0-0.5,0.4-0.8,0.8-0.8s0.8,0.4,0.8,0.8c0,0.1,0,0.2-0.1,0.3c-0.1,0-0.2,0-0.3,0
			C28.9,12.8,28.6,13,28.5,13.3z M29.2,8.6c0.3,0,0.5,0.2,0.5,0.5s-0.2,0.5-0.5,0.5c-0.3,0-0.5-0.2-0.5-0.5S28.9,8.6,29.2,8.6z
			 M28.6,9.9c0.3,0,0.6,0.3,0.6,0.6c0,0.3-0.3,0.6-0.6,0.6c-0.3,0-0.6-0.3-0.6-0.6C27.9,10.2,28.2,9.9,28.6,9.9z M27.6,8.7
			c0.1,0,0.3,0.1,0.3,0.3c0,0.1-0.1,0.3-0.3,0.3c-0.1,0-0.3-0.1-0.3-0.3S27.4,8.7,27.6,8.7z M26.1,9.3c0.2,0,0.3,0.1,0.3,0.3
			c0,0.2-0.1,0.3-0.3,0.3c-0.2,0-0.3-0.1-0.3-0.3C25.8,9.4,26,9.3,26.1,9.3z M28.4,9.5C28.4,9.5,28.4,9.5,28.4,9.5
			c-0.5,0.1-0.9,0.6-0.9,1.1c0,0.4,0.2,0.7,0.5,0.9c-0.4,0.2-0.6,0.6-0.6,1c0,0.6,0.4,1,0.9,1.2c0,0.1,0,0.2,0,0.4c0,0,0,0.1,0,0.1
			c-0.1,0-0.1,0-0.2,0c-0.6,0.1-0.9,0.7-0.8,1.2c0.1,0.6,0.7,0.9,1.2,0.8c0.4-0.1,0.7-0.4,0.8-0.8c0,0.1,0.1,0.3,0.1,0.3
			c0.1,0.6-0.3,1.1-0.8,1.3c-0.5,0.1-1.1-0.1-1.5-0.4c-0.1,0.5-0.5,0.9-1,1.1c-0.5,0.2-1.1,0-1.3-0.5c0.1-0.1,0.1-0.1,0.2-0.2
			c0.9,0.3,1.3-0.3,1.4-0.5c0.3-0.7-0.2-1.5-1-1.5c-0.3,0-0.5,0.1-0.7,0.2c0,0,0,0-0.1,0c0,0-0.1-0.4-0.6-0.7c0-0.1,0.1-0.3,0.1-0.5
			c0-0.6,0-0.8,0.4-1.8C25.1,11.2,26.3,10.2,28.4,9.5z M24.8,10.2c0.2,0,0.4,0.2,0.4,0.4c0,0.2-0.2,0.4-0.4,0.4
			c-0.2,0-0.4-0.2-0.4-0.4C24.4,10.4,24.6,10.2,24.8,10.2z M23.2,12c0-0.3,0.2-0.6,0.6-0.6c0.3,0,0.6,0.2,0.6,0.6s-0.3,0.6-0.6,0.6
			C23.4,12.6,23.2,12.3,23.2,12z M23.1,13.3c0.4,0,0.7,0.3,0.7,0.7c0,0.1,0,0.3-0.1,0.4c0,0-0.1,0-0.1,0c-0.3,0-0.6,0.1-0.8,0.4
			c-0.2-0.1-0.5-0.5-0.5-0.7C22.4,13.6,22.7,13.3,23.1,13.3z"/>
		<path d="M42.6,21.3c0.1,0,0.2-0.1,0.2-0.2c0-0.1,0-0.3-0.1-0.3c-2.4-0.9-5-1.4-7.6-1.4h-0.2c-2.6,0-5.2,0.5-7.6,1.4
			c-0.1,0-0.2,0.2-0.1,0.3c0,0.1,0.2,0.2,0.3,0.1c2.4-0.9,4.9-1.3,7.4-1.3h0.2C37.7,20,40.2,20.4,42.6,21.3
			C42.6,21.3,42.6,21.3,42.6,21.3z"/>
		<path d="M44.1,19.9L43.7,19l-0.1-0.1l-0.5,0.1c-2.5-1-5.1-1.5-7.8-1.5L35,17.1l-0.4,0.2c-2.7,0-5.3,0.6-7.8,1.5l-0.5-0.1L26.3,19
			l-0.4,0.9l1,0.6l0.3-0.4c2.3-0.9,4.7-1.3,7.2-1.4L35,19l0.5-0.3c2.5,0.1,4.9,0.5,7.2,1.4l0.3,0.4L44.1,19.9z M26.8,20
			c-0.1-0.1-0.3-0.2-0.5-0.3c0.1-0.2,0.1-0.4,0.2-0.5c0.2,0,0.5,0.1,0.8,0.1C27.2,19.6,27,19.9,26.8,20z M31.1,18.8L30.3,19
			c-0.2,0-0.4-0.1-0.5-0.3c0-0.2,0.1-0.4,0.3-0.5L31,18c0.2,0,0.4,0.1,0.5,0.3C31.5,18.5,31.4,18.7,31.1,18.8z M35,18.6l-0.9-0.5
			l0.9-0.5l0.9,0.5L35,18.6z M40.2,18.6c0,0.2-0.3,0.4-0.5,0.3l-0.8-0.2c-0.2,0-0.4-0.3-0.3-0.5c0-0.2,0.3-0.4,0.5-0.3l0.8,0.2
			C40.1,18.2,40.2,18.4,40.2,18.6z M42.6,19.4c0.3,0,0.6-0.1,0.8-0.1c0.1,0.1,0.1,0.3,0.2,0.5c-0.1,0.1-0.3,0.2-0.5,0.3
			C43,19.9,42.8,19.6,42.6,19.4z"/>
	</g>
</g>
</svg>
