<?xml version="1.0" encoding="utf-8"?>
<!-- Generator: Adobe Illustrator 21.0.0, SVG Export Plug-In . SVG Version: 6.00 Build 0)  -->
<svg version="1.1" id="Layer_1" xmlns="http://www.w3.org/2000/svg" xmlns:xlink="http://www.w3.org/1999/xlink" x="0px" y="0px"
	 viewBox="0 0 600 600" style="enable-background:new 0 0 600 600;" xml:space="preserve">
<style type="text/css">
	.st0{opacity:0.85;fill:#010101;enable-background:new    ;}
</style>
<g id="layer1" transform="translate(-233.26812,-504.90237)">
	<path id="path2608" class="st0" d="M296.4,748.3v0.8h1v6.1h-1v0.8h3.2l0.1-0.8h-1l0.1-6.1l1,0.1v-0.9H296.4L296.4,748.3z
		 M301.9,748.3l-0.3,2l1,0.1l0.1-1.2l1.5,0.2l-0.8,6.1l-1-0.1l-0.1,0.8l3.2,0.4l0.1-0.8l-1-0.1l0.8-6l1.5,0.2l-0.1,1.2l1,0.1l0.3-2
		L301.9,748.3z M293.5,748.4l-1,0.1l0.1,0.6c-0.6-0.4-1-0.6-1.8-0.5c-1.3,0.2-2.2,1.1-2.1,2.3c0.1,0.5,0.3,0.9,0.7,1.2
		c0.4,0.3,0.7,0.4,1.7,0.7c1.2,0.3,1.5,0.4,1.7,0.6c0.2,0.2,0.3,0.5,0.4,0.8c0.1,0.8-0.4,1.4-1.3,1.5c-0.6,0.1-1.2-0.1-1.5-0.5
		c-0.3-0.3-0.4-0.5-0.5-1.1l-1,0.1l0.3,2.6l1-0.1l-0.1-0.6c0.6,0.5,1.2,0.7,2.1,0.6c1.5-0.2,2.4-1.2,2.3-2.6
		c-0.1-0.6-0.3-1.1-0.7-1.4c-0.4-0.3-0.7-0.5-2.1-0.8c-1.4-0.4-1.7-0.5-1.8-1.1c-0.1-0.7,0.5-1.2,1.3-1.3c1-0.1,1.5,0.3,1.7,1.4
		l0.9-0.1L293.5,748.4z M311.1,749.8l-0.5,1.4l1.4,0.4l0.4-1.4L311.1,749.8z M283.2,750.3c-0.4,0.1-0.9,0.2-1.7,0.4l-2.6,0.8
		l0.2,0.8l1-0.3l1.6,5.9l-1,0.3l0.3,0.8l2.9-0.8l-0.2-0.8l-0.9,0.3L282,755l1.5-0.4l2.4,3l1.8-0.5l-0.3-0.8l-0.9,0.3l-2.1-2.3
		c1.1-0.6,1.4-1.4,1.2-2.4c-0.2-0.8-0.7-1.2-1.5-1.4C283.8,750.3,283.5,750.2,283.2,750.3z M313.5,750.5l-4.4,6.1l-0.9-0.3l-0.3,0.8
		l2.8,0.8l0.2-0.7l-0.8-0.3l1-1.4l2.6,0.8v1.6l-0.8-0.3l-0.3,0.8l3.1,0.9l0.2-0.8l-1-0.3l-0.3-7.4L313.5,750.5z M283,751.2
		c0.2,0,0.4,0,0.5,0c0.5,0.1,0.8,0.4,1,0.9c0.1,0.5,0,0.8-0.3,1.2c-0.3,0.3-0.5,0.4-1.4,0.6l-1,0.3l-0.7-2.4l1-0.3
		C282.5,751.3,282.7,751.2,283,751.2z M315.7,751.3l-0.4,1.4l1.3,0.4l0.5-1.4L315.7,751.3z M313.6,751.7c-0.1,0.6,0,0.9-0.1,2.3
		l0.1,1.4l-2.1-0.6l0.8-1.1C313.1,752.7,313.4,752.1,313.6,751.7z M275.8,752.6l-5.1,2.4l0.4,0.8l0.9-0.5l2.6,5.5l-0.9,0.5l0.4,0.8
		l5.2-2.4l-0.9-1.9l-0.9,0.5l0.5,1.1l-2.3,1.1l-1.2-2.5l2.6-1.2l-0.4-0.8l-2.6,1.2l-1-2.2l2.3-1l0.5,1l0.8-0.5L275.8,752.6z
		 M320.1,752.9l-0.9,1.8l0.8,0.5l0.5-1.1l1.4,0.7l-2.7,5.4l-0.9-0.5l-0.4,0.8l2.9,1.4l0.4-0.7l-0.9-0.5l2.7-5.5l1.3,0.6l-0.5,1.1
		l0.9,0.4l0.9-1.8L320.1,752.9z M409.5,756.1v21.3h1.7v-21.3H409.5z M268.5,756.3l-2.4,1.6l0.5,0.7l0.7-0.5l0.8,2.8
		c0.1,0.2,0.4,1.2,0.5,1.5c0.2,0.7,0.4,1.2,0.5,1.5c-0.2-0.1-0.3-0.2-0.5-0.4c-1-0.9-1.3-1.1-1.9-1.6l-2.3-1.8l0.7-0.5l-0.5-0.7
		l-2.6,1.8l0.5,0.6l0.8-0.5l5.9,4.4l0.9-0.6l-1.9-7.2l0.8-0.5L268.5,756.3z M478.2,756.7v2.4h1.8v-2.4H478.2z M531.8,756.7v2.4h1.7
		v-2.4H531.8z M614.5,756.7v2.4h1.8v-2.4H614.5z M668.1,756.7v2.4h1.7v-2.4H668.1z M685.2,758.1v2.4h2.1v-2.4H685.2z M690,758.1v2.4
		h2.1v-2.4H690z M330.4,758.6l-0.6,0.7l0.8,0.6l-2.3,2.8c-0.9,1.1-1.1,1.4-1.2,1.9c-0.1,0.9,0.3,1.9,1.2,2.6
		c0.8,0.6,1.7,0.9,2.4,0.7c0.6-0.1,1-0.5,1.9-1.5l2.4-2.8l0.8,0.6l0.6-0.6l-2.4-1.9l-0.5,0.7l0.8,0.6l-2.4,2.8
		c-0.7,0.9-0.8,1-1.1,1.2c-0.5,0.3-1.2,0.2-1.8-0.3c-0.5-0.4-0.8-1-0.7-1.5c0.1-0.4,0-0.4,1-1.5l2.3-2.8l0.8,0.6l0.5-0.6
		L330.4,758.6z M541,758.8l-1.8,0.6v3.5h-2.8v1.5h2.8v8.4c0,2.6,0.1,4.8,3.3,4.8c0.9,0,1.8-0.2,2.2-0.4l-0.1-1.5
		c-0.5,0.2-0.9,0.3-1.6,0.3c-1.4,0-1.9-1.1-1.9-2.4v-9.3h3.3v-1.5H541V758.8z M677.3,758.8l-1.8,0.6v3.5h-2.8v1.5h2.8v8.4
		c0,2.6,0.1,4.8,3.3,4.8c0.9,0,1.8-0.2,2.2-0.4l-0.1-1.5c-0.5,0.2-0.9,0.3-1.6,0.3c-1.4,0-1.9-1.1-1.9-2.4v-9.3h3.3v-1.5h-3.3V758.8
		z M700.9,758.8l-1.7,0.6v3.5h-2.8v1.5h2.8v8.4c0,2.6,0.1,4.8,3.3,4.8c0.9,0,1.8-0.2,2.2-0.4l-0.1-1.5c-0.5,0.2-1,0.3-1.7,0.3
		c-1.4,0-1.9-1.1-1.9-2.4v-9.3h3.3v-1.5h-3.3L700.9,758.8L700.9,758.8z M721.1,758.9v91.5h7.5v-91.5H721.1z M297.8,759.2
		c-25.2,0-45.6,20.4-45.6,45.6c0,25.2,20.4,45.7,45.6,45.7c25.2,0,45.6-20.5,45.6-45.7C343.4,779.7,323,759.2,297.8,759.2z
		 M297.8,761.6c5.3,0,9.5,5.2,12.2,13.6c2-1,4-1.8,5.9-2.4c0.1-0.4,0.3-0.8,0.6-1.1c0.8-0.8,2.2-0.8,3,0c0.1,0.1,0.1,0.1,0.2,0.2
		c3.6-0.5,6.6,0.2,8.7,2.3c3.8,3.8,3,10.4-1,18.4c2.3,0.8,4.4,1.7,6.2,2.6c0.3-0.2,0.7-0.3,1.1-0.3c1.2,0,2.1,1,2.1,2.2
		c0,0.1,0,0.2,0,0.3c2.7,2.2,4.3,4.7,4.3,7.5c0,5.3-5.3,9.5-13.7,12.3c1.1,2.2,2,4.4,2.6,6.4c0.4,0.1,0.7,0.3,1,0.6
		c0.8,0.8,0.8,2.2,0,3c-0.1,0.1-0.1,0.1-0.2,0.2c0.3,3.4-0.4,6.2-2.4,8.2c-3.8,3.8-10.5,3-18.4-1c-0.8,2.4-1.7,4.4-2.6,6.3
		c0.3,0.4,0.5,0.9,0.5,1.4c0,1.2-1,2.1-2.2,2.1c-0.2,0-0.4,0-0.6-0.1c-2.1,2.5-4.6,3.9-7.3,3.9c-5.3,0-9.5-5.2-12.3-13.7
		c-2.2,1.1-4.3,2-6.3,2.6c0,0.6-0.2,1.2-0.6,1.6c-0.8,0.8-2.2,0.8-3,0c-0.2-0.2-0.4-0.5-0.5-0.8c-3.2,0.3-5.9-0.5-7.9-2.4
		c-3.8-3.8-3-10.4,1-18.4c-2.2-0.7-4.2-1.5-5.9-2.4c-0.4,0.5-1,0.7-1.7,0.7c-1.2,0-2.1-0.9-2.1-2.1c0-0.3,0.1-0.7,0.2-1
		c-2.6-2.1-4.1-4.7-4.1-7.5c0-5.3,5.3-9.5,13.7-12.3c-1-2-1.8-3.9-2.4-5.7c-0.6,0.1-1.3-0.2-1.7-0.6c-0.8-0.8-0.8-2.2,0-3.1
		c0.2-0.2,0.5-0.4,0.8-0.5c-0.4-3.5,0.3-6.3,2.3-8.3c3.8-3.8,10.5-3,18.4,1c0.7-2.1,1.5-4.1,2.4-5.8c-0.3-0.4-0.5-0.9-0.5-1.5
		c0-1.2,0.9-2.1,2.1-2.1c0.2,0,0.4,0,0.6,0.1C292.3,763.1,294.9,761.6,297.8,761.6z M260,762.5l-2.3,2.2l0.6,0.6l0.7-0.6l4.2,4.4
		l-0.7,0.6l0.6,0.6l2.3-2.2l-0.6-0.6l-0.8,0.7l-4.2-4.4l0.7-0.6L260,762.5z M422,762.6c-3.1,0-3.9,1.8-4.5,2.8h-0.1v-2.4h-1.7
		c0.1,1.2,0.1,2.3,0.1,3.4v11h1.8v-8c0-3.6,1.9-5.3,3.9-5.3c2.3,0,3.1,1.6,3.1,3.7v9.6h1.8v-8c0-3.6,1.9-5.3,3.9-5.3
		c2.3,0,3,1.6,3,3.7v9.6h1.8v-9.9c0-2.8-1.7-4.8-4.6-4.8c-2.3,0-3.9,1.3-4.6,3h-0.1C425.4,763.1,423.3,762.6,422,762.6z
		 M468.8,762.6c-3,0-4,1.6-4.6,2.9h-0.1v-2.6h-1.7c0.1,1.2,0.1,2.3,0.1,3.4v11.1h1.8v-8.1c0-2.4,1-5.2,4.3-5.2
		c2.5,0,3.4,1.7,3.4,4.4v8.8h1.8v-9.3C473.7,765,472.4,762.6,468.8,762.6z M502.1,762.6c-3.7,0-6.1,3.1-6.1,7.5
		c0,4.3,1.8,7.6,6.6,7.6c1.3,0,2.9-0.3,4.2-0.8v-1.8c-0.9,0.5-2.8,1.1-4.1,1.1c-3.1,0-4.8-2.5-4.8-5.5h9.9v-0.9
		C507.8,765.9,506.2,762.6,502.1,762.6z M516.7,762.6c-1.8,0-3.1,1.5-3.7,3.1h-0.1v-2.8h-1.7c0.1,1,0.1,1.6,0.1,3.2v11.3h1.8v-7.2
		c0-2.6,0.8-5.8,3.6-5.8c0.5,0,0.9,0.1,1.3,0.2v-1.9C517.6,762.7,517.2,762.6,516.7,762.6z M524.3,762.6c-2.4,0-4.7,1.1-4.7,3.9
		c0,4.2,7,3.7,7,7.1c0,1.6-1.5,2.6-3.2,2.6c-1.4,0-2.7-0.4-3.8-0.9l-0.1,1.7c1.3,0.5,2.7,0.7,4.1,0.7c2.2,0,5-1.1,5-4.1
		c0-4.7-7.1-4.4-7.1-7.1c0-1.8,1.3-2.4,3.1-2.4c1,0,2.3,0.2,3.2,0.6l0.1-1.5C526.6,762.8,525.1,762.6,524.3,762.6z M605.1,762.6
		c-3,0-4,1.6-4.6,2.9h-0.1v-2.6h-1.7c0.1,1.2,0.1,2.3,0.1,3.4v11.1h1.8v-8.1c0-2.4,1-5.2,4.3-5.2c2.5,0,3.4,1.7,3.4,4.4v8.8h1.8
		v-9.3C610.1,765,608.7,762.6,605.1,762.6z M638.4,762.6c-3.7,0-6.1,3.1-6.1,7.5c0,4.3,1.8,7.6,6.6,7.6c1.3,0,2.9-0.3,4.2-0.8v-1.8
		c-0.9,0.5-2.8,1.1-4.1,1.1c-3.1,0-4.8-2.5-4.8-5.5h9.9v-0.9C644.2,765.9,642.5,762.6,638.4,762.6z M653.1,762.6
		c-1.8,0-3.1,1.5-3.7,3.1h-0.1v-2.8h-1.7c0.1,1,0.1,1.6,0.1,3.2v11.3h1.8v-7.2c0-2.6,0.8-5.8,3.6-5.8c0.5,0,0.9,0.1,1.3,0.2v-1.9
		C654,762.7,653.5,762.6,653.1,762.6z M660.7,762.6c-2.4,0-4.7,1.1-4.7,3.9c0,4.2,7,3.7,7,7.1c0,1.6-1.5,2.6-3.2,2.6
		c-1.4,0-2.7-0.4-3.8-0.9l-0.1,1.7c1.3,0.5,2.7,0.7,4.1,0.7c2.2,0,5-1.1,5-4.1c0-4.7-7.1-4.4-7.1-7.1c0-1.8,1.3-2.4,3.1-2.4
		c1,0,2.3,0.2,3.2,0.6l0.1-1.5C662.9,762.8,661.4,762.6,660.7,762.6z M688.6,762.6c-1.3,0-3.1,0.4-4.3,1v1.7
		c1.3-0.9,2.8-1.2,4.3-1.2c2.4,0,3.3,1.2,3.3,3.7v0.8h-0.3c-3.7,0-9,0.2-9,5c0,1.3,0.7,4.1,4.8,4.1c1.8,0,3.8-1,4.6-2.7v2.4h1.8
		c-0.1-1-0.1-1.9-0.1-3.1v-6.4C693.7,764.2,692.2,762.6,688.6,762.6z M393.8,762.9v9.2c0,3.2,1.4,5.6,5,5.6c3,0,4-1.7,4.6-3h0.1v2.6
		h1.7c-0.1-1.2-0.1-2.3-0.1-3.4v-11h-1.7v8c0,2.4-1.1,5.3-4.3,5.3c-2.5,0-3.4-1.8-3.4-4.5v-8.8L393.8,762.9L393.8,762.9z
		 M445.8,762.9v9.3c0,3.2,1.3,5.5,4.9,5.5c3,0,4.1-1.6,4.7-2.9h0.1v2.6h1.7c-0.1-1.2-0.1-2.3-0.1-3.4v-11.1h-1.8v8
		c0,2.4-1,5.3-4.3,5.3c-2.5,0-3.4-1.7-3.4-4.4v-8.8L445.8,762.9L445.8,762.9z M478.2,762.9v14.5h1.8v-14.5H478.2z M482.5,762.9
		l4.9,14.5h2.1l5.1-14.5h-1.9l-4.2,12.5h-0.1l-4-12.5H482.5z M531.8,762.9v14.5h1.7v-14.5H531.8z M546,762.9l5.1,14.6l-0.3,1.3
		c-0.6,1.9-1.1,3.2-2.6,3.2c-0.7,0-1-0.1-1.4-0.3l-0.1,1.5c0.6,0.1,1.3,0.2,1.9,0.2c2,0,3-1.9,3.7-3.9l5.8-16.6h-1.9L552,775
		l-4.1-12.1H546z M582.2,762.9v9.3c0,3.2,1.4,5.5,5,5.5c3,0,4-1.6,4.6-2.9h0.1v2.6h1.7c-0.1-1.2-0.1-2.3-0.1-3.4v-11.1h-1.8v8
		c0,2.4-1,5.3-4.3,5.3c-2.5,0-3.4-1.7-3.4-4.4v-8.8L582.2,762.9L582.2,762.9z M614.5,762.9v14.5h1.8v-14.5H614.5z M618.8,762.9
		l4.9,14.5h2.1l5.1-14.5h-1.9l-4.2,12.5h-0.1l-4-12.5H618.8z M668.1,762.9v14.5h1.7v-14.5H668.1z M297.8,763.7
		c-2.4,0-4.5,1.1-6.4,3.2c0.2,0.3,0.3,0.7,0.3,1.1c0,1.2-1,2.2-2.2,2.2c-0.2,0-0.3,0-0.5-0.1c-1,1.6-1.9,3.5-2.6,5.6
		c3.6,1.9,7.5,4.4,11.4,7.5c4-3.1,7.8-5.6,11.5-7.5C306.5,768.2,302.6,763.7,297.8,763.7z M502.2,764.1c2.7,0,3.7,2.4,3.7,5H498
		C498,766.7,499.6,764.1,502.2,764.1z M638.6,764.1c2.7,0,3.7,2.4,3.7,5h-7.9C634.3,766.7,635.9,764.1,638.6,764.1z M338.5,765.7
		l-0.6,0.5l0.6,0.8l-4.6,4l-0.6-0.8l-0.6,0.5l3.7,4.4l1.6-1.4l-0.6-0.7l-1,0.8l-1.7-2l4.6-3.9l0.6,0.8l0.6-0.5L338.5,765.7z
		 M255.8,766.6L254,769l0.6,0.5l0.6-0.8l1.8,1.4c1,0.7,1.8,1.4,2.5,1.9c-1.3-0.3-3.1-0.6-4.2-0.8l-2.8-0.5l-1.5,1.9l0.6,0.5l0.6-0.8
		l4.7,3.8l-0.6,0.8l0.6,0.5l1.9-2.3l-0.6-0.5l-0.6,0.8l-1.9-1.5c-0.3-0.2-1.9-1.5-2.8-2.1c0.3,0,0.6,0.1,0.9,0.1
		c1.6,0.3,2,0.5,3.4,0.7l3.3,0.6l0.7-0.9l-5.4-4.3l0.6-0.8L255.8,766.6z M691.4,770.1h0.5v0.9c0,1.6-0.1,5.2-4.3,5.2
		c-1.6,0-3-0.7-3-2.6C684.6,770.4,688.3,770.1,691.4,770.1z M344,772.3l-0.8,0.5l0.6,0.9l-5.3,3.1l-0.5-0.9l-0.7,0.5l1.5,2.6
		l0.7-0.4l-0.6-0.9l2.4-1.4c1.8-1.1,2-1.2,2.8-1.7c-0.8,0.8-1.6,1.7-2.5,2.7l-2.1,2.3l0.5,0.9l3.2-0.6c1.3-0.3,1.9-0.4,3.5-0.8
		l-1,0.6l-0.6,0.3l-0.6,0.4c-0.3,0.2-0.5,0.3-0.6,0.3l-2.4,1.4L341,781l-0.7,0.5l1.6,2.7l0.7-0.4l-0.5-0.9l5.3-3.1l0.5,0.9l0.7-0.5
		l-1.4-2.3l-3,0.7c-1.6,0.4-2,0.4-3.5,0.8c1.1-1.1,1.5-1.5,2.4-2.4l2.1-2.3L344,772.3z M275.5,773.4c-2.8-0.1-5.2,0.6-6.9,2.3
		c-1.7,1.7-2.4,4.1-2.3,6.9c0.3,0.1,0.5,0.2,0.7,0.5c0.8,0.8,0.8,2.2,0,3.1l-0.2,0.1c0.5,1.9,1.2,3.9,2.1,6
		c3.9-1.2,8.5-2.2,13.5-2.8c0.6-5,1.5-9.6,2.7-13.5C281.6,774.4,278.4,773.5,275.5,773.4z M320.1,773.4c0,0.5-0.3,1-0.6,1.4
		c-0.8,0.8-2.2,0.8-3,0c-0.2-0.2-0.4-0.5-0.5-0.8c-1.8,0.5-3.6,1.2-5.6,2.1c1.2,3.9,2.2,8.4,2.8,13.4c5,0.6,9.5,1.6,13.4,2.8
		c3.3-7.1,3.7-13.1,0.3-16.6C325.2,774.1,322.9,773.3,320.1,773.4z M249.4,775.2l-1.4,2.6l0.7,0.5l0.5-0.9l3.3,1.7
		c1,0.6,1.1,0.7,1.3,0.9c0.4,0.5,0.4,1.2,0,1.9c-0.3,0.6-0.8,0.9-1.4,1c-0.4,0-0.4,0-1.7-0.7l-3.2-1.7l0.5-0.9l-0.7-0.4l-1.5,2.8
		l0.8,0.4l0.5-0.9l3.2,1.8c1.2,0.7,1.6,0.8,2.1,0.8c0.9,0,1.8-0.7,2.3-1.7c0.5-0.9,0.6-1.8,0.3-2.6c-0.2-0.5-0.7-0.8-1.9-1.5
		l-3.3-1.8l0.5-0.9L249.4,775.2z M286.1,776.5c-1.3,3.7-2.3,8.1-3,13c2.6-0.3,5.2-0.6,8-0.7c2.1-1.9,4.1-3.6,6.1-5.2
		C293.3,780.7,289.6,778.2,286.1,776.5z M309.5,776.5c-3.5,1.7-7.3,4.1-11.2,7.1c2,1.6,4.1,3.3,6.1,5.2c2.8,0.1,5.5,0.4,8.1,0.7
		C311.8,784.6,310.8,780.2,309.5,776.5z M297.8,784c-1.9,1.5-3.8,3.1-5.7,4.8c1.9-0.1,3.8-0.1,5.7-0.1c1.9,0,3.8,0.1,5.7,0.1
		C301.5,787.1,299.7,785.4,297.8,784z M248.3,785c-0.3,0-0.5,0.1-0.7,0.3c-0.4,0.4-0.4,1.1,0,1.5c0.4,0.4,1.1,0.4,1.5,0
		c0.4-0.4,0.4-1.1,0-1.5C248.9,785.1,248.6,785,248.3,785z M346.4,785c-0.3,0-0.6,0.1-0.8,0.3c-0.4,0.4-0.4,1.1,0,1.5
		c0.4,0.4,1.1,0.4,1.5,0c0.4-0.4,0.4-1.1,0-1.5C347,785.1,346.7,785,346.4,785z M770.6,788.2c-13,0-16.6,7.6-19,11.8l-0.3-0.1v-10.3
		h-7.2c0.5,4.9,0.5,9.7,0.5,14.4v46.5h7.5v-33.6c0-15.2,8.1-22.2,16.3-22.2c9.7,0,12.9,6.8,12.9,15.4v40.4h7.5v-33.6
		c0-15.2,8.1-22.2,16.4-22.2c9.7,0,12.8,6.8,12.8,15.4v40.4h7.5v-41.8c0-11.8-6.9-20.4-19.2-20.4c-9.5,0-16.7,5.7-19.4,12.9h-0.3
		C784.8,790.4,776,788.2,770.6,788.2z M349.7,788.6c-0.5,0.1-0.9,0.5-1.1,0.9c-0.2,0.4-0.3,0.8-0.5,1.8c-0.1,1.2-0.3,1.5-0.4,1.8
		c-0.1,0.2-0.4,0.4-0.7,0.5c-0.8,0.2-1.4-0.3-1.6-1.2c-0.2-0.6-0.1-1.2,0.3-1.6c0.2-0.3,0.5-0.4,1-0.6l-0.3-1l-2.4,0.6l0.3,1
		l0.6-0.1c-0.4,0.7-0.5,1.3-0.3,2.1c0.4,1.5,1.5,2.3,2.8,1.9c0.6-0.1,1-0.5,1.3-0.9c0.3-0.5,0.4-0.8,0.5-2.2
		c0.2-1.4,0.3-1.8,0.9-1.9c0.7-0.2,1.1,0.3,1.4,1.1c0.3,1,0,1.5-1,1.9l0.2,0.8l2.2-0.5l-0.3-0.9l-0.5,0.1c0.4-0.6,0.4-1.2,0.2-1.9
		C352,789.1,350.9,788.3,349.7,788.6z M245.6,788.9c-1.6,0.1-2.7,1.1-3.1,2.6c-0.5,2,0.8,3.8,3.1,4.3c2.4,0.6,4.3-0.3,4.8-2.4
		c0.5-2-0.7-3.8-3.1-4.3C246.7,788.9,246.1,788.8,245.6,788.9z M297.7,789.2c-2.2,0-4.3,0-6.4,0.1c-1.6,1.4-3.2,2.9-4.7,4.4
		c-1.5,1.5-3,3.1-4.4,4.6c-0.1,2.1-0.1,4.2-0.1,6.4c0,2.2,0,4.3,0.1,6.4c1.4,1.6,2.9,3.1,4.4,4.6c1.5,1.5,3.1,3,4.6,4.4
		c2.1,0.1,4.2,0.1,6.4,0.1c2.2,0,4.3,0,6.4-0.1c1.6-1.4,3.1-2.9,4.6-4.4c1.6-1.6,3-3.1,4.4-4.6c0.1-2.1,0.2-4.3,0.2-6.4
		c0-2.2-0.1-4.3-0.2-6.4c-1.4-1.6-2.8-3.2-4.4-4.7c-1.5-1.5-3.1-3-4.7-4.4C302.1,789.2,299.9,789.2,297.7,789.2z M297.7,789.3
		c0.4,0,0.7,0.3,0.7,0.7v8.6c3.2-0.2,6.1-1.9,6.1-3.5c0-1-1.1-2.1-2.6-2.8c-0.3,0.1-0.8,0.1-1.2,0.1c-0.9-0.2-1.6-0.6-1.5-1.1
		c0.1-0.5,0.9-0.7,1.8-0.6c0.7,0.1,1.2,0.4,1.4,0.8c2.3,0.8,3.9,2.1,3.9,3.6c0,1.8-2.2,3.4-5.4,4c2.7,0.6,4.6,1.9,4.6,3.5
		c0,1.6-2,3.1-4.9,3.6c2.4,0.5,4.1,1.7,4.1,3.2c0,1.5-1.8,2.7-4.4,3.2c2.2,0.5,3.7,1.6,3.7,2.9c0,1.5-2.1,2.7-4.9,3
		c0,0-0.1-0.1-0.1-0.3c0-0.1,0.1-0.3,0.1-0.3c2-0.3,3.7-1.4,3.7-2.5c0-1.2-2-2.4-4.3-2.6v6.6c0,0.4-0.3,0.6-0.7,0.6
		c-0.4,0-0.7-0.3-0.7-0.6v-6.6c-2.3,0.2-4.1,1.4-4.1,2.6c0,1.1,1.6,2.2,3.6,2.5c0,0,0.1,0.1,0.1,0.3c0,0.2-0.1,0.3-0.1,0.3
		c-2.8-0.3-4.9-1.5-4.9-3c0-1.3,1.5-2.4,3.7-2.9c-2.6-0.5-4.4-1.8-4.4-3.2c0-1.4,1.7-2.6,4.1-3.2c-2.9-0.6-4.9-2-4.9-3.6
		c0-1.6,1.9-2.9,4.6-3.5c-3.2-0.6-5.4-2.2-5.4-4c0-1.5,1.5-2.8,3.9-3.6c0.2-0.3,0.7-0.6,1.4-0.8c0.9-0.2,1.8,0.1,1.9,0.6
		c0.1,0.5-0.6,0.9-1.5,1.1c-0.5,0.1-0.9,0-1.2-0.1c-1.6,0.7-2.6,1.8-2.6,2.8c0,1.6,2.8,3.3,6,3.5V790
		C297,789.7,297.3,789.3,297.7,789.3z M290.4,789.4c-2.6,0.2-5,0.4-7.3,0.7c-0.3,2.4-0.6,4.9-0.7,7.4c1.3-1.4,2.6-2.8,3.9-4.1
		C287.6,792,289,790.7,290.4,789.4z M305.1,789.4c1.4,1.3,2.7,2.6,4.1,4c1.4,1.4,2.7,2.7,4,4.1c-0.2-2.6-0.4-5-0.7-7.4
		C310.2,789.8,307.7,789.6,305.1,789.4z M656.6,789.5v39c0,13.4,5.7,23.4,20.8,23.4c12.7,0,17.2-6.8,19.7-12.3h0.3v10.9h7.3
		c-0.5-4.9-0.5-9.6-0.5-14.3v-46.7h-7.5v33.7c0,10.2-4.2,22.2-18,22.2c-10.4,0-14.5-7.4-14.5-18.9v-37.1L656.6,789.5L656.6,789.5z
		 M582,789.5V828c0,13.7,6.3,23.8,20.7,23.8c8.3,0,15.1-3.8,20-9.7h0.3v8.3h15v-60.9h-15.8v29.8c0,7.8-2.5,20.2-14,20.2
		c-10.2,0-10.2-10.1-10.2-17.5v-32.5H582L582,789.5z M245.6,790.1c0.4,0,0.8,0.1,1.3,0.2c2,0.5,2.9,1.5,2.6,2.8
		c-0.3,1.4-1.6,1.9-3.6,1.4c-1.9-0.5-2.8-1.5-2.5-2.9C243.6,790.6,244.4,790.1,245.6,790.1z M282.3,790.2c-4.8,0.7-9.2,1.6-12.9,2.9
		c1.7,3.5,4.1,7.4,7,11.3c1.6-2,3.4-4.1,5.2-6.1C281.8,795.5,282,792.7,282.3,790.2z M313.2,790.2c0.3,2.6,0.5,5.3,0.6,8.1
		c1.9,2,3.6,4.1,5.2,6.1c2.9-3.9,5.4-7.7,7.1-11.2C322.4,791.9,318,790.8,313.2,790.2z M268.5,793.4c-7.4,2.7-11.9,6.6-11.9,11.5
		c0,2.4,1.1,4.5,3.1,6.4c0.2-0.1,0.5-0.2,0.8-0.2c1.2,0,2.2,1,2.2,2.2v0.3c1.7,1,3.6,1.9,5.9,2.8c1.9-3.6,4.5-7.5,7.5-11.5
		C273,800.9,270.4,797,268.5,793.4z M327,793.5c-1.9,3.6-4.5,7.5-7.5,11.4c3.1,4,5.6,7.8,7.5,11.5c7.4-2.7,11.9-6.6,11.9-11.5
		c0-2.3-1-4.3-2.8-6.1c-0.4,0.3-0.8,0.5-1.4,0.5c-1.2,0-2.2-0.9-2.2-2.1c0-0.3,0.1-0.7,0.2-1C331.1,795.1,329.2,794.3,327,793.5z
		 M350.5,796.7c-0.3,0-0.6,0-0.9,0.1c-2.5,0.3-3.8,1.7-3.6,3.8c0.1,1,0.6,1.7,1.3,2.1c0.5,0.3,1,0.4,1.9,0.3l-0.1-1
		c-1.4,0.1-2.1-0.4-2.2-1.5c-0.1-1.3,0.9-2.2,2.8-2.4c2-0.2,3.3,0.4,3.4,1.8c0.1,1-0.4,1.6-1.5,1.9l0.1,1l2.4-0.3l-0.1-0.9l-0.6,0.1
		c0.5-0.6,0.7-1.2,0.6-1.9C353.9,797.9,352.5,796.8,350.5,796.7z M244.2,798.2c-0.9,0.1-1.7,0.6-2.3,1.2c-0.6,0.7-0.8,1.3-0.9,3
		l-0.1,2.5l0.8,0.1l0.1-1l6.1,0.3l-0.1,1l0.8,0.1l0.2-2.4c0.1-1.5,0-2-0.4-2.8c-0.6-1.2-1.8-1.9-3.3-2
		C244.9,798.1,244.5,798.1,244.2,798.2z M281.6,799.1c-1.7,1.9-3.2,3.8-4.7,5.7c1.5,1.9,3,3.8,4.7,5.7c-0.1-1.9-0.1-3.8-0.1-5.7
		C281.5,802.9,281.5,801,281.6,799.1z M313.9,799.1c0.1,1.9,0.1,3.8,0.1,5.7c0,1.9-0.1,3.9-0.1,5.7c1.7-1.9,3.3-3.8,4.8-5.7
		C317.2,803,315.6,801,313.9,799.1z M244.3,799.4c0.3,0,0.6,0,0.8,0c1.1,0.1,1.9,0.5,2.4,1.1c0.4,0.5,0.6,1,0.5,2.1l-0.1,0.5
		l-6.1-0.4l0.1-0.6c0.1-1,0.2-1.4,0.5-1.8C242.9,799.9,243.5,799.5,244.3,799.4z M297,799.4c-2.9,0.2-5.4,1.7-5.4,3.2
		c0,1.5,2.5,3,5.4,3.2V799.4z M298.4,799.4v6.4c2.9-0.2,5.4-1.8,5.4-3.2C303.8,801.1,301.3,799.6,298.4,799.4z M276.4,805.4
		c-3,3.9-5.4,7.7-7.1,11.2c3.7,1.3,8.1,2.3,13,3c-0.3-2.6-0.5-5.2-0.6-8C279.8,809.5,278.1,807.4,276.4,805.4z M319.1,805.4
		c-1.6,2-3.4,4.1-5.2,6.1c-0.1,2.8-0.3,5.5-0.6,8.1c4.8-0.7,9.2-1.6,13-2.9C324.4,813.1,322,809.3,319.1,805.4z M346.3,805.5
		l-0.1,3.2h0.8l0.1-1l6.1,0.3l-0.1,1l0.9,0.1l0.1-3.2l-0.8-0.1l-0.1,1l-6.1-0.3v-1L346.3,805.5L346.3,805.5z M297,806.5
		c-2.6,0.2-4.7,1.5-4.7,2.8c0,1.3,2.2,2.7,4.7,2.9V806.5z M298.4,806.5v5.7c2.6-0.2,4.8-1.6,4.8-2.9
		C303.2,808,301,806.7,298.4,806.5z M241.9,808.1l-0.9,0.1l0.5,3l0.8-0.1l-0.1-1l2.3-0.3c1.2-0.2,2.2-0.4,3.2-0.5
		c-1.1,0.7-2.7,1.8-3.5,2.4l-2.3,1.7l0.3,2.3l0.8-0.1l-0.1-1l6.1-0.8l0.1,1l0.8-0.1l-0.5-3l-0.8,0.1l0.1,1l-2.4,0.3
		c-0.4,0-2.3,0.3-3.4,0.5c0.2-0.2,0.5-0.4,0.7-0.5c1.3-0.9,1.7-1.1,2.8-1.9l2.6-2l-0.1-1.1l-6.8,0.9L241.9,808.1z M346.1,810.5
		l-1,5.6l2.1,0.4l0.2-1l-1.2-0.3l0.4-2.4l2.8,0.5l-0.5,2.8l0.8,0.1l0.5-2.8l2.4,0.4l-0.4,2.4l-1-0.2l-0.2,1l1.9,0.3l1-5.5l-0.8-0.1
		l-0.2,1l-6-1l0.2-1L346.1,810.5z M313.3,812.2c-1.3,1.4-2.6,2.8-4,4.2c-1.4,1.4-2.7,2.7-4.1,3.9c2.6-0.2,5-0.4,7.4-0.7
		C312.9,817.3,313.1,814.8,313.3,812.2z M282.3,812.3c0.1,2.6,0.4,5,0.7,7.3c2.4,0.3,4.8,0.6,7.3,0.7c-1.4-1.3-2.8-2.6-4.1-3.9
		C284.9,815,283.6,813.7,282.3,812.3z M250,816.2l-0.8,0.3l0.3,1l-5.9,4.4l0.4,1.1l7.4,0.1l0.3,1l0.8-0.3l-0.9-2.7l-0.7,0.3l0.3,0.8
		h-1.7l-0.8-2.5l1.4-1l0.3,0.9l0.8-0.3L250,816.2z M269,817.5c-3.3,7.1-3.7,13.1-0.3,16.5c1.6,1.6,3.8,2.4,6.4,2.4
		c0.1-0.2,0.3-0.5,0.5-0.7c0.8-0.8,2.2-0.8,3,0c0.1,0.1,0.2,0.2,0.3,0.3c2-0.4,4.1-1.2,6.4-2.3c-1.2-3.9-2.1-8.4-2.7-13.4
		C277.5,819.7,272.9,818.7,269,817.5z M326.5,817.5c-3.9,1.2-8.4,2.2-13.4,2.8c-0.6,5-1.6,9.5-2.8,13.4c7.1,3.3,13.1,3.7,16.5,0.3
		c1.6-1.6,2.4-3.7,2.4-6.2c-0.5-0.1-0.9-0.3-1.3-0.6c-0.8-0.8-0.8-2.2,0-3c0.2-0.2,0.5-0.4,0.8-0.5
		C328.3,821.7,327.5,819.7,326.5,817.5z M344.6,818l-1,2.8l0.8,0.3l0.3-1l2.3,0.8c0.3,0.1,2.2,0.8,3.3,1.1c-0.3,0-0.5,0.1-0.8,0.1
		c-1.6,0.2-2,0.2-3.4,0.5l-3.3,0.5l-0.4,1.1l6.5,2.3l-0.3,1l0.8,0.3l1-2.8l-0.8-0.3l-0.3,1l-2.1-0.8c-1.1-0.4-2.2-0.8-3.1-1
		c1.3-0.2,3.2-0.4,4.3-0.6l2.8-0.5l0.8-2.3l-0.8-0.3l-0.4,0.9l-5.7-2l0.4-1L344.6,818z M247.9,820.1l0.7,2.1h-1.4
		c-1.3,0-2,0.1-2.4,0.1c0.5-0.3,0.8-0.5,2-1.4L247.9,820.1z M283.1,820.3c0.7,4.8,1.6,9.2,2.9,12.9c3.5-1.7,7.3-4.1,11.2-7
		c-2-1.6-4.1-3.4-6.1-5.2C288.3,820.8,285.7,820.6,283.1,820.3z M312.4,820.3c-2.6,0.3-5.2,0.5-8,0.6c-2.1,1.9-4.1,3.6-6.1,5.2
		c3.9,3,7.7,5.4,11.2,7.1C310.8,829.6,311.7,825.2,312.4,820.3z M292,821c1.9,1.7,3.8,3.2,5.7,4.7c1.9-1.5,3.8-3,5.7-4.7
		c-1.9,0.1-3.7,0.1-5.7,0.1C295.8,821.2,293.9,821.1,292,821z M252.9,824.8l-0.7,0.4l0.5,0.9l-1.8,2.5c-0.9-0.9-1.6-1-2.6-0.5
		c-0.7,0.4-1,1-1,1.7c0,0.6,0.1,1,0.9,2.4l1.4,2.5l0.7-0.5l-0.5-0.8l5.4-2.9l0.5,0.8l0.8-0.4l-1.5-2.7l-0.7,0.4l0.5,0.8l-2.4,1.3
		l-0.7-1.4l2.3-3L252.9,824.8z M297.8,826.6c-3.9,3.1-7.9,5.6-11.5,7.5c2.7,7.4,6.6,12,11.5,12c2.2,0,4.2-1,6.1-2.8
		c-0.2-0.3-0.3-0.7-0.3-1.1c0-1.2,0.9-2.2,2.1-2.2c0.2,0,0.4,0,0.6,0.1c1.1-1.7,2-3.7,2.8-6C305.6,832.2,301.7,829.7,297.8,826.6z
		 M341.3,826.8l-1.3,2.1c-0.8,1.3-1,1.8-1,2.6c0,1.3,0.7,2.6,2,3.4c1.1,0.7,2.4,0.8,3.4,0.4c0.8-0.4,1.3-0.8,2.1-2.2l1.4-2.2
		l-0.7-0.5l-0.6,0.9l-5.2-3.2l0.5-0.8L341.3,826.8z M249.4,829c0.2,0,0.4,0,0.6,0.1c0.3,0.2,0.5,0.4,1,1.2l0.5,0.9l-2.3,1.2
		l-0.5-0.8c-0.4-0.8-0.5-1.1-0.5-1.4c0-0.5,0.2-0.8,0.6-1.1C249,829,249.2,829,249.4,829z M340.9,829.1l5.2,3.2l-0.3,0.5
		c-0.5,0.9-0.8,1.1-1.4,1.4c-0.8,0.3-1.7,0.2-2.7-0.4c-0.9-0.6-1.5-1.3-1.7-2.1c-0.1-0.7,0-1.2,0.6-2.1L340.9,829.1z M257.4,834.3
		c-0.6,0-1,0.2-2.1,1.1l-2.9,2.4l-0.6-0.8l-0.6,0.6l1.9,2.3l0.6-0.6l-0.6-0.8l2.8-2.4c0.9-0.8,1.1-0.8,1.4-0.9
		c0.6-0.2,1.2,0.1,1.7,0.7c0.4,0.5,0.6,1.1,0.4,1.6c-0.1,0.3-0.1,0.4-1.3,1.4l-2.8,2.3l-0.6-0.8L254,841l2.1,2.5l0.6-0.6l-0.6-0.8
		l2.8-2.3c1.1-0.9,1.3-1.2,1.5-1.6c0.3-0.9,0.1-1.9-0.6-2.8C259.1,834.6,258.2,834.2,257.4,834.3z M336.6,835.8
		c-0.9,0-1.8,0.3-2.5,1.1c-1.4,1.6-1.1,3.7,0.7,5.3c1.8,1.6,4,1.7,5.4,0.1c1.4-1.5,1.1-3.7-0.7-5.3
		C338.5,836.2,337.5,835.8,336.6,835.8z M335.9,836.8c0.8-0.1,1.7,0.3,2.6,1.2c1.5,1.3,1.8,2.7,0.9,3.7c-0.9,1-2.4,0.9-3.9-0.5
		c-1.5-1.3-1.8-2.8-0.9-3.8C335.1,837.1,335.5,836.9,335.9,836.8z M263.8,840.6c-0.2,0-0.4,0-0.6,0.1c-0.6,0.1-1.1,0.4-1.7,1.1
		l0.8,0.6c1-1,1.8-1.1,2.6-0.4c1,0.9,0.8,2.3-0.5,3.8c-1.4,1.5-2.7,1.9-3.7,1c-0.8-0.7-0.8-1.5-0.1-2.4l-0.7-0.6l-1.6,1.8l0.7,0.6
		l0.4-0.5c0,0.7,0.3,1.3,0.9,1.8c1.5,1.3,3.5,1,5.2-0.9c1.7-1.9,1.7-3.9,0.1-5.3C264.9,840.9,264.4,840.6,263.8,840.6z M327.9,843.2
		l-2,1.4c-1.2,0.8-1.7,1.3-2,2.1c-0.5,1.2-0.3,2.6,0.5,3.8c0.8,1.1,1.8,1.7,2.9,1.7c0.9,0,1.6-0.2,2.9-1.1l2.1-1.5l-0.5-0.6
		l-0.8,0.5l-3.4-5l0.8-0.5L327.9,843.2z M331.6,843.6c-0.3,0-0.6,0.1-0.8,0.3c-0.4,0.4-0.4,1.1,0,1.5c0.4,0.4,1.1,0.4,1.5,0
		c0.4-0.4,0.4-1.1,0-1.5C332.2,843.7,331.9,843.6,331.6,843.6z M326.7,845.1l3.4,5l-0.5,0.3c-0.8,0.6-1.2,0.7-1.7,0.7
		c-0.9,0-1.7-0.5-2.4-1.5c-0.6-0.9-0.8-1.8-0.6-2.6c0.2-0.7,0.5-1.1,1.4-1.7L326.7,845.1z M268.3,847.5c-0.3,0-0.6,0.1-0.8,0.3
		c-0.4,0.4-0.4,1.1,0,1.5c0.4,0.4,1.1,0.4,1.5,0c0.4-0.4,0.4-1.1,0-1.5C268.9,847.6,268.6,847.5,268.3,847.5z M274.2,847.9
		c-1.4-0.1-2.7,0.8-3.5,2.4c-1.1,2.2-0.6,4.3,1.3,5.2c1.8,0.9,3.8,0.1,4.9-2.1c1.1-2.2,0.6-4.3-1.3-5.2
		C275.1,848,274.7,847.9,274.2,847.9z M274.3,848.8c0.3,0,0.6,0,0.9,0.2c1.3,0.6,1.5,2,0.6,3.9c-0.9,1.8-2.2,2.4-3.4,1.8
		c-1.2-0.6-1.4-2-0.5-3.8C272.5,849.5,273.3,848.8,274.3,848.8z M318.6,849.1c-0.5,0-0.9,0.1-1.4,0.3c-1.9,0.8-2.6,2.9-1.6,5.1
		c1,2.2,2.9,3.2,4.8,2.3c1.9-0.8,2.5-2.9,1.5-5C321.2,850.1,320,849.1,318.6,849.1z M318.5,850c0.9,0.1,1.7,0.8,2.3,2.3
		c0.8,1.8,0.5,3.2-0.8,3.8c-1.3,0.6-2.5-0.2-3.3-2.1c-0.8-1.8-0.5-3.2,0.8-3.8C317.8,850,318.2,850,318.5,850z M282.6,851.7
		c-0.2,0-0.4,0-0.6,0.1c-1.3,0.3-2.2,1.3-2.6,2.8c-0.4,1.3-0.2,2.5,0.5,3.4c0.6,0.7,1.1,1.1,2.7,1.5l2.4,0.7l0.3-0.8l-1-0.3l1.7-5.9
		l1,0.3l0.2-0.8l-2.3-0.7C283.8,851.7,283.1,851.6,282.6,851.7z M309.6,852.1c-0.2,0-0.5,0.1-0.7,0.1c-1,0.2-1.6,0.8-1.9,1.5
		c-0.2,0.6-0.2,1.1,0,1.9l1-0.3c-0.2-1.3,0.1-2.1,1.2-2.4c1.3-0.3,2.3,0.6,2.8,2.5c0.5,2,0,3.3-1.3,3.6c-1,0.3-1.7-0.1-2.1-1.2
		l-0.9,0.3l0.6,2.3l0.9-0.2l-0.1-0.6c0.6,0.4,1.3,0.4,2,0.3c1.9-0.5,2.7-2.4,2.1-4.8C312.6,853.2,311.3,852,309.6,852.1z
		 M283.1,852.5c0.3,0,0.7,0.1,1.2,0.3l0.5,0.1l-1.7,5.8l-0.6-0.1c-1-0.3-1.3-0.5-1.6-0.9c-0.5-0.7-0.7-1.7-0.4-2.8
		c0.3-1,0.9-1.8,1.6-2.1C282.4,852.6,282.7,852.5,283.1,852.5z M290.1,853.1l-0.7,6.9l-1-0.1l-0.1,0.8l3,0.3l0.1-0.8l-1-0.1l0.3-2.3
		c0.1-1.2,0.1-2.2,0.2-3.2c0.5,1.2,1.2,3,1.6,4l1.2,2.6l2.3,0.2l0.1-0.8l-1-0.1l0.6-6.1l1,0.1l0.1-0.8l-3-0.3l-0.1,0.8l1,0.1
		l-0.2,2.4c0,0.4-0.2,2.4-0.3,3.5c-0.1-0.3-0.2-0.6-0.3-0.8c-0.6-1.5-0.7-1.9-1.2-3.2l-1.4-3L290.1,853.1z M304.4,853.3l-5.7,0.5
		l0.1,2.1l1-0.1l-0.1-1.3l2.5-0.2l0.2,2.8l-2.8,0.3l0.1,0.8l2.8-0.2l0.2,2.4l-2.4,0.2l-0.1-1l-1,0.1l0.1,1.9l5.6-0.5l-0.1-0.8
		l-1,0.1l-0.5-6.1l1-0.1L304.4,853.3z"/>
</g>
</svg>
