<?xml version="1.0" encoding="utf-8"?>
<!-- Generator: Adobe Illustrator 21.0.0, SVG Export Plug-In . SVG Version: 6.00 Build 0)  -->
<svg version="1.1" id="Ebene_1" xmlns="http://www.w3.org/2000/svg" xmlns:xlink="http://www.w3.org/1999/xlink" x="0px" y="0px"
	 viewBox="0 0 550 550" style="enable-background:new 0 0 550 550;" xml:space="preserve">
<style type="text/css">
	.st0{fill:#EEBF3F;stroke:#103A54;stroke-width:3;stroke-miterlimit:10;}
	.st1{fill:#103A54;}
</style>
<image style="display:none;overflow:visible;enable-background:new    ;" width="600" height="600" xlink:href="inviwo-logo.png"  transform="matrix(0.8001 0 0 0.8001 38.9998 44.0002)">
</image>
<g>
	<polygon class="st0" points="218,218.3 331.6,218.3 331.6,230.4 274.8,259.6 218,230.2 	"/>
	<polygon class="st0" points="213,316.7 261,316.7 261,280.1 213,251.7 	"/>
	<polygon class="st0" points="336.8,316.7 288.8,316.7 288.8,280.1 336.8,251.7 	"/>
	<polygon class="st1" points="187.6,258.2 204.3,267.5 204.3,315.2 80.9,371.8 81,167.5 272,277.7 272,495.2 84.8,384.4 
		212.1,324.6 245.6,324.6 245.6,340.7 212.5,340.7 118.7,385.9 252.1,463.6 252.1,283.9 97.5,196.4 97.5,344.9 187.3,305.6 	"/>
	<polygon class="st1" points="362.3,258.2 345.7,267.5 345.7,315.2 469.1,371.8 469,167.5 278,277.7 278,495.2 465.2,384.4 
		337.8,324.6 304.3,324.6 304.3,340.7 337.5,340.7 431.3,385.9 297.8,463.6 297.8,283.9 452.5,196.4 452.5,344.9 362.7,305.6 	"/>
	<polygon class="st1" points="465.9,161.4 274.8,271.7 83.7,161.4 268.4,54.8 268.4,210 219.5,210 190.8,193.9 248.3,193.9 
		248.3,86.8 117.9,159.6 274.8,248.4 431.7,159.6 301.3,86.8 301.3,193.9 358.8,193.9 330.1,210 281.2,210 281.2,54.8 	"/>
</g>
</svg>
