<?xml version="1.0" encoding="utf-8"?>
<!-- Generator: Adobe Illustrator 15.0.0, SVG Export Plug-In . SVG Version: 6.00 Build 0)  -->
<!DOCTYPE svg PUBLIC "-//W3C//DTD SVG 1.1//EN" "http://www.w3.org/Graphics/SVG/1.1/DTD/svg11.dtd">
<svg version="1.1" id="svg3460" xmlns:svg="http://www.w3.org/2000/svg"
	 xmlns="http://www.w3.org/2000/svg" xmlns:xlink="http://www.w3.org/1999/xlink" x="0px" y="0px" width="1024px" height="198px"
	 viewBox="0 0 1024 198" enable-background="new 0 0 1024 198" xml:space="preserve">
<g id="layer1" transform="translate(-233.26812,-504.90237)">
	<path id="path2608" opacity="0.85" enable-background="new    " d="M331.291,504.902v1.464h1.689v10.703h-1.803v1.465h5.521
		l0.113-1.465h-1.803l0.112-10.703l1.69,0.113v-1.577H331.291z M340.867,505.015l-0.45,3.492l1.689,0.226l0.226-2.028l2.591,0.338
		l-1.352,10.59l-1.803-0.226l-0.226,1.465l5.634,0.676l0.225-1.464l-1.803-0.225l1.353-10.478l2.591,0.338l-0.225,2.028l1.689,0.226
		l0.451-3.493L340.867,505.015z M326.109,505.127l-1.69,0.113l0.113,1.014c-0.97-0.771-1.821-1.055-3.155-0.901
		c-2.339,0.266-3.844,1.924-3.605,4.056c0.104,0.897,0.546,1.609,1.239,2.141c0.636,0.478,1.249,0.766,2.93,1.239
		c2.051,0.541,2.564,0.712,3.042,1.014c0.393,0.289,0.608,0.865,0.676,1.464c0.162,1.42-0.645,2.407-2.253,2.592
		c-1.086,0.126-2.078-0.226-2.704-0.901c-0.438-0.446-0.648-0.906-0.789-1.916l-1.689,0.113l0.45,4.506l1.69-0.225l-0.112-1.127
		c1.067,0.897,2.158,1.181,3.604,1.014c2.614-0.297,4.21-2.163,3.943-4.506c-0.112-1.01-0.541-1.839-1.239-2.366
		c-0.726-0.554-1.307-0.87-3.605-1.465c-2.42-0.635-3.037-0.878-3.154-1.915c-0.135-1.176,0.807-2.086,2.253-2.253
		c1.74-0.198,2.614,0.582,2.93,2.366l1.577-0.226L326.109,505.127z M356.979,507.606l-0.789,2.479l2.366,0.676l0.676-2.479
		L356.979,507.606z M308.082,508.395c-0.669,0.089-1.582,0.304-2.93,0.676l-4.619,1.352l0.338,1.464l1.69-0.563l2.816,10.365
		l-1.69,0.451l0.451,1.352l5.069-1.352l-0.338-1.465l-1.577,0.451l-1.239-4.506l2.592-0.676l4.281,5.183l3.154-0.901l-0.451-1.464
		l-1.577,0.45l-3.718-3.943c1.879-1.117,2.523-2.483,2.028-4.281c-0.374-1.347-1.258-2.167-2.592-2.479
		C309.238,508.383,308.75,508.306,308.082,508.395z M361.147,508.845l-7.661,10.591l-1.577-0.563l-0.45,1.465l4.845,1.352
		l0.338-1.239l-1.465-0.45l1.689-2.366l4.507,1.352v2.816l-1.465-0.451l-0.45,1.352l5.408,1.578l0.338-1.465l-1.69-0.451
		l-0.45-12.957L361.147,508.845z M307.744,509.972c0.39-0.066,0.648-0.045,0.901,0c0.802,0.117,1.438,0.676,1.689,1.577
		c0.226,0.82,0.054,1.483-0.45,2.028c-0.442,0.459-0.87,0.68-2.479,1.126l-1.69,0.451l-1.239-4.281l1.689-0.451
		C306.933,510.213,307.354,510.038,307.744,509.972z M364.978,510.198l-0.676,2.479l2.253,0.676l0.789-2.479L364.978,510.198z
		 M361.372,510.874c-0.09,1.059-0.081,1.546-0.112,4.056l0.112,2.479l-3.605-1.014l1.353-1.915
		C360.35,512.645,360.99,511.59,361.372,510.874z M295.239,512.451l-8.9,4.281l0.676,1.352l1.577-0.789l4.507,9.576l-1.577,0.789
		l0.676,1.352l9.013-4.281l-1.577-3.38l-1.577,0.789l0.901,1.915l-3.943,1.915l-2.141-4.394l4.507-2.028l-0.677-1.464l-4.506,2.141
		l-1.803-3.831l3.943-1.803l0.788,1.69l1.465-0.789L295.239,512.451z M372.639,513.014l-1.577,3.154l1.465,0.789l0.901-1.916
		l2.365,1.239l-4.731,9.464l-1.577-0.789l-0.677,1.352l5.07,2.479l0.676-1.239l-1.577-0.789l4.732-9.577l2.253,1.126l-0.901,1.916
		l1.577,0.676l1.577-3.155L372.639,513.014z M529.018,518.535v37.179h3.042v-37.179H529.018z M282.507,518.985l-4.169,2.816
		l0.789,1.24l1.239-0.789l1.352,4.845c0.108,0.392,0.708,2.037,0.901,2.704c0.401,1.221,0.622,2.123,0.789,2.704
		c-0.293-0.229-0.591-0.423-0.901-0.676c-1.753-1.492-2.239-1.933-3.38-2.817l-4.056-3.154l1.239-0.901l-0.789-1.239l-4.507,3.154
		l0.901,1.127l1.465-0.901l10.253,7.774l1.577-1.126l-3.268-12.619l1.353-0.901L282.507,518.985z M649.005,519.548v4.169h3.154
		v-4.169H649.005z M742.63,519.548v4.169h3.042v-4.169H742.63z M887.291,519.548v4.169h3.154v-4.169H887.291z M980.915,519.548
		v4.169h3.042v-4.169H980.915z M1010.772,522.14v4.168h3.718v-4.168H1010.772z M1019.221,522.14v4.168h3.719v-4.168H1019.221z
		 M390.665,522.929l-1.014,1.239l1.352,1.014l-4.056,4.957c-1.573,1.902-1.857,2.416-2.028,3.267
		c-0.257,1.568,0.464,3.326,2.028,4.62c1.374,1.135,2.911,1.568,4.281,1.239c1.014-0.23,1.784-0.901,3.267-2.704l4.169-4.957
		l1.353,1.014l1.014-1.126l-4.169-3.38l-0.901,1.24l1.353,1.126l-4.169,4.957c-1.307,1.591-1.451,1.771-1.915,2.028
		c-0.946,0.5-2.078,0.324-3.155-0.563c-0.955-0.784-1.379-1.753-1.239-2.704c0.095-0.631,0.05-0.671,1.69-2.704l4.056-4.958
		l1.465,1.127l0.901-1.127L390.665,522.929z M758.741,523.267l-3.154,1.126v6.084h-4.957v2.704h4.957v14.759
		c0,4.61,0.189,8.45,5.746,8.45c1.537,0,3.087-0.379,3.83-0.676l-0.225-2.591c-0.893,0.347-1.627,0.563-2.817,0.563
		c-2.528,0-3.38-1.888-3.38-4.168v-16.336h5.746v-2.704h-5.746V523.267z M997.027,523.267l-3.154,1.126v6.084h-4.958v2.704h4.958
		v14.759c0,4.61,0.188,8.45,5.745,8.45c1.532,0,3.088-0.379,3.831-0.676l-0.226-2.591c-0.893,0.347-1.631,0.563-2.816,0.563
		c-2.533,0-3.38-1.888-3.38-4.168v-16.336h5.746v-2.704h-5.746V523.267z M1038.262,523.267l-3.042,1.126v6.084h-4.957v2.704h4.957
		v14.759c0,4.61,0.193,8.45,5.746,8.45c1.536,0,3.087-0.379,3.83-0.676l-0.226-2.591c-0.892,0.347-1.739,0.563-2.929,0.563
		c-2.528,0-3.38-1.888-3.38-4.168v-16.336h5.746v-2.704h-5.746V523.267z M1073.526,523.492v159.984h13.069V523.492H1073.526z
		 M333.657,524.055c-44.038,0-79.767,35.697-79.767,79.767s35.729,79.879,79.767,79.879c44.034,0,79.654-35.81,79.654-79.879
		S377.691,524.055,333.657,524.055z M333.657,528.111c9.307,0,16.53,9.085,21.406,23.772c3.556-1.785,7.035-3.164,10.253-4.168
		c0.145-0.708,0.469-1.366,1.014-1.916c1.479-1.478,3.817-1.482,5.296,0c0.126,0.126,0.234,0.203,0.338,0.338
		c6.291-0.824,11.55,0.397,15.21,4.056c6.579,6.584,5.254,18.265-1.69,32.109c4.024,1.338,7.692,2.92,10.815,4.62
		c0.563-0.338,1.208-0.563,1.916-0.563c2.091,0,3.718,1.735,3.718,3.831c0,0.158,0.018,0.297,0,0.451
		c4.745,3.781,7.436,8.17,7.436,13.182c0,9.311-9.202,16.643-23.885,21.519c1.96,3.911,3.488,7.657,4.507,11.153
		c0.631,0.162,1.194,0.519,1.689,1.014c1.482,1.483,1.482,3.818,0,5.296c-0.117,0.126-0.202,0.234-0.338,0.338
		c0.604,5.896-0.685,10.825-4.168,14.309c-6.585,6.589-18.274,5.259-32.11-1.69c-1.356,4.11-2.889,7.766-4.619,10.929
		c0.527,0.653,0.901,1.573,0.901,2.479c0,2.095-1.739,3.717-3.83,3.717c-0.379,0-0.672-0.008-1.015-0.112
		c-3.699,4.438-8.013,6.872-12.844,6.872c-9.314,0-16.651-9.175-21.519-23.885c-3.866,1.938-7.58,3.493-11.041,4.507
		c0.036,1.015-0.352,2.037-1.127,2.817c-1.478,1.478-3.817,1.482-5.295,0c-0.405-0.406-0.717-0.961-0.901-1.465
		c-5.638,0.469-10.379-0.799-13.745-4.169c-6.584-6.584-5.246-18.265,1.689-32.109c-3.861-1.28-7.332-2.673-10.364-4.281
		c-0.694,0.812-1.776,1.239-2.93,1.239c-2.096,0-3.718-1.627-3.718-3.719c0-0.59,0.099-1.193,0.338-1.689
		c-4.61-3.75-7.211-8.129-7.211-13.069c0-9.315,9.193-16.638,23.885-21.519c-1.771-3.533-3.168-6.832-4.168-10.027
		c-1.072,0.09-2.222-0.302-3.042-1.127c-1.479-1.478-1.479-3.93,0-5.408c0.405-0.406,0.96-0.717,1.465-0.901
		c-0.686-6.039,0.514-10.982,4.056-14.534c6.584-6.584,18.274-5.255,32.109,1.69c1.244-3.758,2.614-7.161,4.169-10.14
		c-0.6-0.667-0.901-1.622-0.901-2.591c0-2.096,1.622-3.718,3.718-3.718c0.374,0,0.779,0.014,1.127,0.113
		C324.067,530.792,328.582,528.111,333.657,528.111z M267.635,529.801l-3.943,3.831l1.015,1.014l1.239-1.126l7.323,7.774
		l-1.239,1.126l1.014,1.127l4.056-3.831l-1.014-1.126l-1.352,1.239l-7.323-7.774l1.239-1.126L267.635,529.801z M550.762,529.914
		c-5.408,0-6.896,3.11-7.887,4.845h-0.112v-4.281h-2.93c0.198,2.032,0.112,4.038,0.112,5.971v19.266h3.155v-13.97
		c0-6.296,3.344-9.239,6.76-9.239c4.015,0,5.407,2.853,5.407,6.422v16.787h3.155v-13.97c0-6.296,3.339-9.239,6.76-9.239
		c4.016,0,5.295,2.853,5.295,6.422v16.787h3.155v-17.35c0-4.908-2.894-8.45-8-8.45c-3.961,0-6.858,2.321-7.999,5.295h-0.112
		C556.729,530.797,552.988,529.914,550.762,529.914z M632.556,529.914c-5.254,0-7.075,2.79-8.111,5.07h-0.113v-4.507h-3.042
		c0.198,2.032,0.226,4.038,0.226,5.971v19.378h3.155v-14.083c0-4.214,1.73-9.126,7.436-9.126c4.313,0,5.971,3.015,5.971,7.774
		v15.435h3.155v-16.224C641.232,534.051,638.807,529.914,632.556,529.914z M690.804,529.914c-6.391,0-10.591,5.453-10.591,13.182
		c0,7.584,3.119,13.294,11.492,13.294c2.33,0,5.143-0.572,7.323-1.465v-3.154c-1.487,0.941-4.817,1.915-7.098,1.915
		c-5.453,0-8.337-4.335-8.337-9.689h17.237v-1.577C700.831,535.628,697.947,529.914,690.804,529.914z M716.379,529.914
		c-3.227,0-5.395,2.583-6.535,5.408h-0.112v-4.845h-3.042c0.198,1.834,0.112,2.857,0.112,5.633v19.716h3.155v-12.506
		c0-4.561,1.352-10.14,6.309-10.14c0.794,0,1.609,0.14,2.254,0.338v-3.268C717.974,530.103,717.122,529.914,716.379,529.914z
		 M729.673,529.914c-4.159,0-8.225,1.866-8.225,6.873c0,7.336,12.168,6.395,12.168,12.393c0,2.875-2.663,4.507-5.633,4.507
		c-2.434,0-4.764-0.636-6.647-1.577l-0.226,3.042c2.227,0.892,4.669,1.239,7.099,1.239c3.821,0,8.787-1.857,8.787-7.211
		c0-8.278-12.393-7.684-12.393-12.393c0-3.223,2.189-4.169,5.407-4.169c1.735,0,3.993,0.383,5.634,1.127l0.225-2.704
		C733.644,530.198,731.012,529.914,729.673,529.914z M870.842,529.914c-5.255,0-7.066,2.79-8.111,5.07h-0.113v-4.507h-3.042
		c0.198,2.032,0.226,4.038,0.226,5.971v19.378h3.154v-14.083c0-4.214,1.735-9.126,7.437-9.126c4.313,0,5.971,3.015,5.971,7.774
		v15.435h3.155v-16.224C879.518,534.051,877.088,529.914,870.842,529.914z M929.09,529.914c-6.391,0-10.591,5.453-10.591,13.182
		c0,7.584,3.118,13.294,11.492,13.294c2.334,0,5.146-0.572,7.323-1.465v-3.154c-1.487,0.941-4.822,1.915-7.099,1.915
		c-5.457,0-8.337-4.335-8.337-9.689h17.351v-1.577C939.23,535.628,936.228,529.914,929.09,529.914z M954.664,529.914
		c-3.222,0-5.398,2.583-6.534,5.408h-0.112v-4.845h-3.042c0.198,1.834,0.112,2.857,0.112,5.633v19.716h3.154v-12.506
		c0-4.561,1.353-10.14,6.31-10.14c0.798,0,1.604,0.14,2.253,0.338v-3.268C956.26,530.103,955.409,529.914,954.664,529.914z
		 M967.959,529.914c-4.164,0-8.225,1.866-8.225,6.873c0,7.336,12.168,6.395,12.168,12.393c0,2.875-2.659,4.507-5.634,4.507
		c-2.429,0-4.763-0.636-6.647-1.577l-0.225,3.042c2.23,0.892,4.669,1.239,7.098,1.239c3.817,0,8.788-1.857,8.788-7.211
		c0-8.278-12.394-7.684-12.394-12.393c0-3.223,2.186-4.169,5.408-4.169c1.735,0,3.997,0.383,5.633,1.127l0.226-2.704
		C971.925,530.198,969.297,529.914,967.959,529.914z M1016.856,529.914c-2.23,0-5.498,0.748-7.436,1.69v3.042
		c2.334-1.487,4.808-2.028,7.436-2.028c4.209,0,5.746,2.109,5.746,6.422v1.352h-0.563c-6.539,0-15.661,0.311-15.661,8.788
		c0.001,2.28,1.146,7.211,8.338,7.211c3.118,0,6.719-1.704,8.111-4.732v4.168h3.155c-0.253-1.735-0.226-3.375-0.226-5.408v-11.153
		C1025.756,532.672,1023.097,529.914,1016.856,529.914z M501.414,530.477v16.111c0,5.552,2.43,9.802,8.676,9.802
		c5.25,0,7.066-2.902,8.111-5.183h0.113v4.506h3.042c-0.199-2.032-0.226-4.038-0.226-5.971v-19.266h-3.042v13.971
		c0,4.209-1.848,9.238-7.549,9.238c-4.309,0-5.971-3.127-5.971-7.887v-15.322H501.414z M592.448,530.477v16.224
		c0,5.557,2.316,9.689,8.563,9.689c5.255,0,7.184-2.79,8.225-5.07h0.112v4.507h3.042c-0.198-2.032-0.225-4.038-0.225-5.971v-19.378
		h-3.155v13.971c0,4.213-1.734,9.238-7.436,9.238c-4.313,0-5.972-3.015-5.972-7.774v-15.435H592.448z M649.005,530.477v25.35h3.154
		v-25.35H649.005z M656.554,530.477l8.563,25.35h3.718l8.9-25.35h-3.267l-7.323,21.857h-0.113l-6.985-21.857H656.554z
		 M742.63,530.477v25.35h3.042v-25.35H742.63z M767.529,530.477l8.9,25.575l-0.563,2.253c-0.991,3.272-1.942,5.521-4.619,5.521
		c-1.14,0-1.771-0.252-2.365-0.451l-0.226,2.704c1.041,0.248,2.235,0.338,3.38,0.338c3.52,0,5.228-3.402,6.422-6.873l10.14-29.067
		h-3.268l-7.323,21.068l-7.098-21.068H767.529z M830.734,530.477v16.224c0,5.557,2.425,9.689,8.675,9.689
		c5.255,0,7.071-2.79,8.112-5.07h0.112v4.507h3.042c-0.198-2.032-0.226-4.038-0.226-5.971v-19.378h-3.154v13.971
		c0,4.213-1.735,9.238-7.436,9.238c-4.317,0-5.972-3.015-5.972-7.774v-15.435H830.734z M887.291,530.477v25.35h3.154v-25.35H887.291
		z M894.84,530.477l8.563,25.35h3.718l8.9-25.35h-3.268l-7.323,21.857h-0.112l-6.985-21.857H894.84z M980.915,530.477v25.35h3.042
		v-25.35H980.915z M333.657,531.829c-4.187,0-7.936,1.997-11.266,5.521c0.355,0.577,0.563,1.19,0.563,1.916
		c0,2.095-1.739,3.831-3.83,3.831c-0.334,0-0.595-0.032-0.901-0.113c-1.677,2.808-3.268,6.12-4.619,9.802
		c6.322,3.321,13.046,7.697,19.941,13.069c6.927-5.403,13.709-9.852,20.055-13.182C348.889,539.792,342.112,531.829,333.657,531.829
		z M691.03,532.618c4.664,0,6.422,4.263,6.422,8.675h-13.857C683.594,537.129,686.419,532.618,691.03,532.618z M929.315,532.618
		c4.665,0,6.422,4.263,6.422,8.675h-13.857C921.879,537.129,924.705,532.618,929.315,532.618z M404.748,535.322l-1.127,0.901
		l1.127,1.352l-8.112,6.985l-1.126-1.352l-1.127,0.901l6.534,7.774l2.817-2.479l-1.127-1.239l-1.69,1.352l-2.929-3.493l8.111-6.873
		l1.127,1.352l1.127-0.901L404.748,535.322z M260.312,536.899l-3.267,4.169l1.126,0.901l1.127-1.464l3.154,2.479
		c1.668,1.293,3.097,2.416,4.395,3.38c-2.24-0.487-5.448-1.131-7.323-1.465l-4.845-0.789l-2.591,3.268l1.126,0.901l1.127-1.352
		l8.225,6.647l-1.015,1.352l1.127,0.901l3.268-4.056l-1.127-0.901l-1.127,1.464l-3.38-2.704c-0.491-0.397-3.308-2.564-4.844-3.718
		c0.5,0.081,1.072,0.108,1.577,0.225c2.717,0.591,3.43,0.816,5.858,1.24l5.746,1.014l1.239-1.577l-9.464-7.548l1.126-1.352
		L260.312,536.899z M1021.701,542.983h0.901v1.577c0,2.727-0.208,9.126-7.549,9.126c-2.871,0-5.183-1.186-5.183-4.507
		C1009.87,543.627,1016.297,542.983,1021.701,542.983z M414.438,546.926l-1.353,0.789l1.015,1.577l-9.239,5.408l-0.901-1.577
		l-1.239,0.789l2.704,4.506l1.239-0.676l-1.014-1.577l4.281-2.479c3.092-1.884,3.425-2.073,4.957-3.042
		c-1.343,1.401-2.816,2.975-4.394,4.732l-3.718,4.056l0.901,1.577l5.521-1.127c2.212-0.446,3.285-0.734,6.196-1.464l-1.803,1.014
		l-1.014,0.563l-1.127,0.676c-0.532,0.279-0.87,0.478-1.014,0.563l-4.281,2.479l-0.901-1.578l-1.239,0.789l2.816,4.732l1.239-0.676
		l-0.901-1.577l9.238-5.408l0.901,1.578l1.239-0.789l-2.365-4.056l-5.296,1.239c-2.808,0.635-3.466,0.671-6.084,1.352
		c1.934-1.902,2.699-2.587,4.281-4.281l3.718-3.943L414.438,546.926z M294.787,548.841c-4.91-0.177-9.064,1.062-12.055,4.056
		c-2.997,2.992-4.231,7.129-4.056,12.055c0.455,0.185,0.869,0.415,1.239,0.789c1.478,1.478,1.478,3.93,0,5.408l-0.339,0.226
		c0.789,3.254,2.023,6.814,3.719,10.478c6.827-2.127,14.857-3.768,23.547-4.845c1.077-8.711,2.604-16.715,4.731-23.547
		C305.356,550.567,299.699,549.019,294.787,548.841z M372.751,548.841c-0.076,0.856-0.473,1.708-1.126,2.366
		c-1.479,1.478-3.817,1.482-5.296,0c-0.369-0.37-0.716-0.893-0.901-1.352c-3.096,0.802-6.345,2.114-9.802,3.718
		c2.127,6.832,3.764,14.732,4.845,23.434c8.688,1.077,16.611,2.718,23.435,4.845c5.777-12.452,6.543-22.97,0.563-28.955
		C381.534,549.959,377.542,548.724,372.751,548.841z M249.159,551.883l-2.479,4.619l1.239,0.789l0.901-1.578l5.746,3.042
		c1.807,0.982,1.915,1.172,2.253,1.578c0.672,0.833,0.667,2.037,0,3.267c-0.591,1.082-1.41,1.654-2.366,1.69
		c-0.64,0.027-0.626-0.022-2.929-1.239l-5.634-3.042l0.789-1.577l-1.239-0.676l-2.704,4.958l1.352,0.676l0.789-1.577l5.633,3.154
		c2.168,1.176,2.731,1.348,3.605,1.352c1.582-0.041,3.087-1.145,4.056-2.929c0.848-1.564,1.032-3.222,0.451-4.507
		c-0.419-0.951-1.222-1.478-3.268-2.591l-5.746-3.155l0.901-1.578L249.159,551.883z M313.152,554.25
		c-2.235,6.507-4.015,14.182-5.183,22.646c4.479-0.527,9.148-1.005,13.971-1.239c3.587-3.258,7.156-6.21,10.703-9.013
		C325.861,561.487,319.313,557.273,313.152,554.25z M354.162,554.25c-6.188,3.02-12.786,7.219-19.604,12.393
		c3.547,2.798,7.116,5.759,10.703,9.013c4.85,0.239,9.586,0.708,14.083,1.239C358.186,568.422,356.393,560.757,354.162,554.25z
		 M333.657,567.318c-3.312,2.551-6.674,5.358-10.026,8.337c3.28-0.135,6.634-0.226,10.026-0.226c3.398,0,6.639,0.09,9.915,0.226
		C340.218,572.677,336.965,569.869,333.657,567.318z M247.243,569.121c-0.484,0-0.87,0.194-1.239,0.563
		c-0.739,0.739-0.739,1.965,0,2.704c0.738,0.744,1.848,0.744,2.591,0c0.739-0.739,0.739-1.965,0-2.704
		C248.226,569.315,247.728,569.121,247.243,569.121z M418.719,569.121c-0.484,0-0.982,0.194-1.353,0.563
		c-0.739,0.739-0.734,1.965,0,2.704c0.739,0.744,1.965,0.744,2.704,0c0.739-0.739,0.739-1.965,0-2.704
		C419.701,569.315,419.203,569.121,418.719,569.121z M1160.165,574.642c-22.714,0-28.955,13.322-33.124,20.618l-0.45-0.113V577.12
		h-12.618c0.833,8.549,0.788,16.99,0.788,25.125v81.231h13.182v-58.812c0-26.484,14.124-38.756,28.505-38.756
		c16.877,0,22.532,11.911,22.532,26.927v70.641h13.069v-58.812c0-26.484,14.236-38.756,28.617-38.756
		c16.877,0,22.42,11.911,22.42,26.927v70.641h13.182v-73.119c0-20.645-12.113-35.715-33.574-35.715
		c-16.679,0-29.121,10.023-33.912,22.533h-0.45C1184.996,578.612,1169.538,574.642,1160.165,574.642z M424.465,575.43
		c-0.879,0.226-1.487,0.816-1.916,1.577c-0.388,0.699-0.559,1.42-0.788,3.155c-0.253,2.1-0.442,2.641-0.677,3.155
		c-0.229,0.428-0.657,0.748-1.239,0.901c-1.379,0.356-2.41-0.46-2.816-2.028c-0.274-1.059-0.126-2.095,0.451-2.816
		c0.383-0.496,0.829-0.734,1.803-1.014l-0.451-1.69l-4.281,1.127l0.451,1.69l1.126-0.226c-0.748,1.181-0.928,2.199-0.563,3.605
		c0.658,2.551,2.678,3.97,4.958,3.38c0.982-0.257,1.829-0.816,2.253-1.577c0.45-0.798,0.636-1.465,0.901-3.831
		c0.298-2.488,0.567-3.123,1.577-3.38c1.141-0.298,2.006,0.504,2.366,1.915c0.441,1.699-0.077,2.708-1.803,3.268l0.338,1.464
		l3.831-0.901l-0.451-1.577l-0.901,0.225c0.631-1.072,0.672-2.073,0.338-3.38C428.381,576.192,426.534,574.894,424.465,575.43z
		 M242.399,575.881c-2.714,0.221-4.77,1.847-5.408,4.507c-0.843,3.497,1.388,6.58,5.408,7.548c4.24,1.019,7.477-0.595,8.337-4.168
		c0.848-3.547-1.275-6.557-5.408-7.548C244.294,575.97,243.303,575.807,242.399,575.881z M333.544,576.444
		c-3.813,0-7.503,0.036-11.153,0.225c-2.727,2.456-5.517,5.065-8.225,7.774c-2.687,2.686-5.219,5.413-7.661,8.112
		c-0.189,3.678-0.226,7.427-0.226,11.267c0,3.831,0.036,7.598,0.226,11.266c2.446,2.713,5.078,5.418,7.773,8.112
		c2.699,2.699,5.395,5.317,8.112,7.774c3.646,0.184,7.341,0.225,11.153,0.225c3.831,0,7.599-0.036,11.267-0.225
		c2.713-2.452,5.417-5.084,8.111-7.774c2.718-2.727,5.31-5.368,7.774-8.112c0.189-3.646,0.338-7.458,0.338-11.266
		c0-3.817-0.153-7.503-0.338-11.154c-2.456-2.731-4.953-5.512-7.661-8.225c-2.704-2.704-5.503-5.318-8.225-7.774
		C341.147,576.48,337.37,576.444,333.544,576.444z M333.544,576.669c0.685,0,1.239,0.591,1.239,1.239v14.984
		c5.651-0.414,10.591-3.334,10.591-6.196c0-1.767-1.857-3.628-4.619-4.845c-0.572,0.167-1.339,0.252-2.141,0.113
		c-1.604-0.284-2.731-1.113-2.592-1.916c0.145-0.802,1.546-1.293,3.154-1.014c1.204,0.216,2.128,0.752,2.479,1.352
		c4.092,1.333,6.76,3.682,6.76,6.309c0,3.177-3.894,5.899-9.464,6.985c4.723,1.05,7.999,3.335,7.999,6.084
		c0,2.857-3.542,5.332-8.563,6.309c4.259,0.942,7.21,3.046,7.21,5.521c0,2.564-3.177,4.746-7.661,5.633
		c3.8,0.852,6.422,2.854,6.422,5.07c0,2.623-3.641,4.768-8.563,5.295c0,0-0.225-0.171-0.225-0.451
		c-0.01-0.215,0.225-0.449,0.225-0.449c3.579-0.604,6.422-2.524,6.422-4.395c0-2.023-3.475-4.115-7.436-4.506v11.604
		c0,0.641-0.555,1.127-1.239,1.127c-0.689,0-1.239-0.486-1.239-1.127v-11.604c-3.948,0.4-7.211,2.486-7.211,4.506
		c0,1.87,2.731,3.79,6.31,4.395c0,0,0.229,0.234,0.226,0.449c-0.009,0.28-0.226,0.451-0.226,0.451
		c-4.921-0.527-8.563-2.672-8.563-5.295c0-2.217,2.618-4.219,6.422-5.07c-4.488-0.887-7.661-3.068-7.661-5.633
		c0-2.475,2.952-4.578,7.211-5.521c-5.021-0.978-8.563-3.452-8.563-6.309c0-2.749,3.28-5.034,7.999-6.084
		c-5.565-1.086-9.464-3.808-9.464-6.985c0-2.627,2.668-4.976,6.76-6.309c0.352-0.6,1.275-1.136,2.479-1.352
		c1.608-0.279,3.123,0.212,3.268,1.014c0.14,0.802-1.096,1.632-2.704,1.916c-0.803,0.14-1.568,0.054-2.141-0.113
		c-2.768,1.217-4.619,3.078-4.619,4.845c0,2.857,4.849,5.777,10.478,6.196v-14.984C332.305,577.269,332.855,576.669,333.544,576.669
		z M320.701,576.782c-4.466,0.266-8.707,0.703-12.844,1.239c-0.536,4.146-0.978,8.481-1.239,12.957
		c2.208-2.406,4.484-4.817,6.872-7.21C315.892,581.366,318.285,579.004,320.701,576.782z M346.5,576.782
		c2.425,2.226,4.805,4.574,7.211,6.985c2.406,2.402,4.768,4.795,6.985,7.21c-0.266-4.488-0.698-8.801-1.239-12.957
		C355.302,577.476,350.99,577.048,346.5,576.782z M960.862,576.895v68.162c0,23.402,9.968,40.898,36.277,40.898
		c22.132,0,30.091-11.907,34.476-21.52h0.45v19.04h12.731c-0.838-8.563-0.901-16.858-0.901-25.011v-81.57h-13.182v58.923
		c0,17.761-7.418,38.869-31.434,38.869c-18.166,0-25.35-12.956-25.35-33.01v-64.783H960.862z M830.508,577.007v67.261
		c0,23.979,10.96,41.687,36.166,41.687c14.457,0,26.458-6.563,34.926-16.9h0.45v14.421h26.139V577.007h-27.604v52.165
		c0,13.641-4.407,35.376-24.448,35.376c-17.76,0-17.913-17.616-17.913-30.645v-56.896H830.508z M242.511,578.021
		c0.705-0.008,1.4,0.134,2.254,0.338c3.411,0.824,5.078,2.586,4.506,4.957c-0.576,2.402-2.794,3.326-6.309,2.479
		c-3.335-0.802-4.962-2.695-4.395-5.07C238.997,578.944,240.398,578.045,242.511,578.021z M306.617,578.134
		c-8.454,1.154-16.03,2.844-22.533,5.07c3.015,6.188,7.116,12.898,12.28,19.716c2.799-3.556,5.868-7.111,9.126-10.703
		C305.725,587.382,306.09,582.623,306.617,578.134z M360.584,578.134c0.526,4.498,0.888,9.238,1.126,14.083
		c3.245,3.578,6.337,7.166,9.126,10.703c5.155-6.8,9.374-13.43,12.394-19.604C376.736,581.082,369.034,579.297,360.584,578.134z
		 M282.507,583.768c-12.885,4.709-20.843,11.582-20.843,20.054c0,4.165,1.92,7.95,5.408,11.266c0.437-0.176,0.847-0.338,1.352-0.338
		c2.091,0,3.83,1.735,3.83,3.83v0.451c2.916,1.813,6.346,3.407,10.253,4.845c3.316-6.331,7.806-13.146,13.182-20.054
		C290.294,596.891,285.837,590.113,282.507,583.768z M384.694,583.88c-3.325,6.332-7.796,13.024-13.182,19.941
		c5.386,6.913,9.856,13.713,13.182,20.054c12.88-4.718,20.844-11.591,20.844-20.054c0-3.975-1.767-7.499-4.958-10.703
		c-0.657,0.55-1.446,0.789-2.365,0.789c-2.092,0-3.831-1.627-3.831-3.718c0-0.568,0.112-1.204,0.338-1.69
		C391.855,586.751,388.493,585.273,384.694,583.88z M425.817,589.626c-0.495-0.011-1.039,0.051-1.577,0.113
		c-4.331,0.496-6.724,2.992-6.31,6.647c0.194,1.717,0.987,2.894,2.254,3.605c0.941,0.527,1.829,0.712,3.38,0.563l-0.226-1.803
		c-2.384,0.104-3.619-0.739-3.831-2.591c-0.261-2.294,1.582-3.894,4.958-4.281c3.542-0.396,5.7,0.757,5.971,3.154
		c0.203,1.798-0.626,2.853-2.591,3.268l0.225,1.69l4.169-0.563l-0.226-1.577l-1.014,0.113c0.793-1,1.162-2.073,1.014-3.38
		C431.674,591.579,429.284,589.706,425.817,589.626z M240.033,592.104c-1.612,0.224-2.983,0.981-3.943,2.141
		c-1.005,1.235-1.401,2.334-1.577,5.183l-0.226,4.394l1.465,0.113l0.112-1.69l10.591,0.563l-0.112,1.803l1.465,0.112l0.338-4.281
		c0.162-2.573,0.013-3.561-0.677-4.845c-1.059-2.042-3.141-3.335-5.745-3.493C241.136,592.069,240.57,592.03,240.033,592.104z
		 M305.378,593.794c-2.983,3.362-5.669,6.71-8.225,10.027c2.556,3.327,5.241,6.665,8.225,10.028
		c-0.136-3.277-0.113-6.635-0.113-10.028C305.266,600.406,305.242,597.089,305.378,593.794z M361.824,593.794
		c0.135,3.281,0.225,6.629,0.225,10.027c0,3.375-0.09,6.769-0.225,10.028c2.965-3.345,5.791-6.725,8.337-10.028
		C367.615,600.514,364.788,597.143,361.824,593.794z M240.145,594.245c0.447-0.056,0.973-0.03,1.465,0
		c1.861,0.117,3.299,0.847,4.169,1.916c0.739,0.924,1.019,1.83,0.901,3.718l-0.113,0.901l-10.59-0.676l0.112-1.014
		c0.113-1.78,0.275-2.393,0.901-3.155C237.701,595.053,238.804,594.414,240.145,594.245z M332.305,594.245
		c-5.021,0.424-9.352,2.975-9.352,5.521c0,2.555,4.34,5.218,9.352,5.632V594.245z M334.784,594.245v11.153
		c5.034-0.414,9.464-3.078,9.464-5.632C344.247,597.21,339.804,594.655,334.784,594.245z M296.365,604.723
		c-5.16,6.801-9.373,13.435-12.393,19.604c6.503,2.24,14.178,4.021,22.646,5.184c-0.527-4.48-0.893-9.145-1.127-13.971
		C302.228,611.938,299.172,608.283,296.365,604.723z M370.836,604.723c-2.794,3.543-5.881,7.121-9.126,10.703
		c-0.234,4.84-0.6,9.59-1.126,14.084c8.445-1.158,16.151-2.844,22.646-5.07C380.21,618.261,375.992,611.527,370.836,604.723z
		 M418.493,604.836l-0.226,5.521h1.465l0.112-1.69l10.591,0.451l-0.112,1.689l1.577,0.113l0.226-5.521l-1.465-0.111l-0.113,1.689
		l-10.59-0.451v-1.689H418.493z M332.305,606.639c-4.466,0.414-8.225,2.689-8.225,4.957c0,2.271,3.772,4.66,8.225,5.07V606.639z
		 M334.784,606.639v10.027c4.476-0.406,8.337-2.795,8.337-5.07S339.249,607.039,334.784,606.639z M235.977,609.455l-1.577,0.225
		l0.788,5.184l1.353-0.113l-0.226-1.803l3.943-0.563c2.086-0.303,3.925-0.636,5.521-0.902c-1.906,1.275-4.655,3.168-6.196,4.281
		l-3.943,3.043l0.563,4.055l1.464-0.111l-0.225-1.803l10.59-1.353l0.226,1.69l1.465-0.113l-0.789-5.295l-1.352,0.225l0.226,1.803
		l-4.281,0.564c-0.627,0.08-4.079,0.594-5.972,0.9c0.401-0.302,0.807-0.617,1.239-0.9c2.312-1.547,2.961-1.925,4.957-3.381
		l4.619-3.492l-0.225-1.916l-11.942,1.578L235.977,609.455z M418.042,613.736l-1.689,9.802l3.605,0.677l0.338-1.691l-2.141-0.449
		l0.676-4.281l4.845,0.787l-0.789,4.846l1.465,0.225l0.789-4.844l4.168,0.676l-0.676,4.281l-1.803-0.338l-0.338,1.689l3.268,0.563
		l1.689-9.688l-1.464-0.227l-0.339,1.69l-10.478-1.802l0.338-1.691L418.042,613.736z M360.697,616.666
		c-2.227,2.424-4.579,4.912-6.985,7.322c-2.393,2.398-4.8,4.656-7.211,6.873c4.476-0.266,8.811-0.699,12.957-1.239
		C359.993,625.471,360.431,621.145,360.697,616.666z M306.617,616.778c0.262,4.462,0.703,8.706,1.239,12.844
		c4.133,0.536,8.382,0.978,12.844,1.239c-2.402-2.213-4.826-4.484-7.211-6.873C311.092,621.592,308.83,619.185,306.617,616.778z
		 M250.06,623.65l-1.353,0.451l0.563,1.803l-10.365,7.773l0.677,1.916l12.956,0.112l0.563,1.69l1.352-0.564l-1.577-4.731
		l-1.239,0.45l0.451,1.465h-2.93l-1.465-4.394l2.366-1.803l0.45,1.577l1.353-0.451L250.06,623.65z M283.296,625.904
		c-5.782,12.447-6.549,22.857-0.563,28.842c2.816,2.821,6.611,4.168,11.153,4.168c0.185-0.432,0.438-0.887,0.789-1.238
		c1.478-1.482,3.817-1.482,5.295,0c0.131,0.131,0.343,0.307,0.451,0.45c3.487-0.774,7.174-2.101,11.153-3.942
		c-2.122-6.828-3.654-14.746-4.731-23.436C298.127,629.672,290.132,628.035,283.296,625.904z M383.906,625.904
		c-6.823,2.123-14.746,3.763-23.435,4.844c-1.077,8.712-2.718,16.594-4.845,23.436c12.438,5.781,22.862,6.547,28.843,0.563
		c2.753-2.754,4.109-6.412,4.168-10.816c-0.824-0.09-1.617-0.49-2.253-1.126c-1.479-1.478-1.482-3.813,0-5.296
		c0.401-0.4,0.847-0.716,1.352-0.9C386.948,633.254,385.663,629.693,383.906,625.904z M415.564,626.693l-1.689,4.957l1.352,0.45
		l0.563-1.69l4.056,1.465c0.596,0.207,3.921,1.33,5.746,1.916c-0.491,0.086-0.951,0.176-1.465,0.225
		c-2.762,0.334-3.537,0.401-5.971,0.789l-5.746,0.901l-0.676,1.915l11.379,4.057l-0.563,1.689l1.353,0.451l1.803-4.958l-1.353-0.563
		l-0.563,1.803l-3.718-1.352c-1.996-0.681-3.862-1.312-5.408-1.803c2.276-0.271,5.562-0.721,7.437-1.014l4.957-0.789l1.352-3.943
		l-1.352-0.451l-0.676,1.578l-10.027-3.492l0.676-1.691L415.564,626.693z M246.454,630.41l1.239,3.605h-2.366
		c-2.208,0.045-3.479,0.131-4.281,0.226c0.915-0.536,1.42-0.946,3.493-2.366L246.454,630.41z M307.969,630.861
		c1.154,8.449,2.849,16.035,5.07,22.533c6.17-3.02,12.813-7.13,19.604-12.281c-3.542-2.803-7.12-5.871-10.703-9.125
		C317.117,631.749,312.449,631.385,307.969,630.861z M359.232,630.861c-4.493,0.531-9.13,0.888-13.971,1.127
		c-3.587,3.258-7.156,6.322-10.703,9.125c6.806,5.165,13.426,9.365,19.604,12.394C356.397,646.994,358.069,639.334,359.232,630.861z
		 M323.63,632.101c3.348,2.97,6.724,5.674,10.026,8.225c3.313-2.551,6.562-5.251,9.915-8.225c-3.276,0.136-6.521,0.226-9.915,0.226
		C330.268,632.326,326.907,632.236,323.63,632.101z M255.129,638.635l-1.239,0.676l0.789,1.578l-3.154,4.394
		c-1.515-1.581-2.871-1.794-4.507-0.901c-1.23,0.667-1.798,1.672-1.803,3.042c0,1.095,0.243,1.821,1.577,4.281l2.366,4.394
		l1.239-0.788l-0.789-1.465l9.352-5.069l0.789,1.465l1.352-0.677l-2.591-4.731l-1.24,0.676l0.789,1.465l-4.169,2.253l-1.239-2.366
		l4.057-5.295L255.129,638.635z M333.657,641.789c-6.903,5.387-13.727,9.852-20.054,13.183
		c4.714,12.902,11.591,20.956,20.054,20.956c3.921,0,7.423-1.73,10.591-4.846c-0.333-0.567-0.45-1.207-0.45-1.914
		c0-2.092,1.622-3.832,3.718-3.832c0.383,0,0.779,0.01,1.126,0.113c1.853-2.956,3.497-6.484,4.958-10.478
		C347.262,651.641,340.575,647.184,333.657,641.789z M409.705,642.128l-2.253,3.604c-1.348,2.199-1.704,3.16-1.69,4.619
		c-0.026,2.299,1.271,4.494,3.493,5.859c2.005,1.23,4.119,1.438,5.971,0.676c1.47-0.613,2.227-1.396,3.718-3.83l2.366-3.831
		l-1.239-0.788l-1.014,1.576l-9.014-5.633l0.901-1.465L409.705,642.128z M249.046,645.959c0.35-0.008,0.696,0.037,1.014,0.225
		c0.55,0.32,0.893,0.667,1.689,2.141l0.901,1.578l-3.943,2.141l-0.9-1.465c-0.758-1.402-0.875-1.965-0.901-2.479
		c-0.063-0.807,0.311-1.475,1.126-1.916C248.409,645.98,248.696,645.966,249.046,645.959z M409.03,646.184l9.013,5.521l-0.563,0.901
		c-0.934,1.52-1.461,1.988-2.366,2.366c-1.388,0.595-3.051,0.351-4.732-0.677c-1.591-0.977-2.663-2.248-2.929-3.604
		c-0.221-1.163,0.027-2.104,1.014-3.718L409.03,646.184z M263.129,655.197c-1.037,0.035-1.808,0.432-3.605,1.915l-5.07,4.169
		l-1.126-1.353l-1.127,1.015l3.38,4.055l1.127-1.014l-1.127-1.352l4.957-4.168c1.587-1.313,1.861-1.411,2.366-1.578
		c1.019-0.311,2.154,0.158,3.042,1.239c0.784,0.951,0.996,1.915,0.676,2.817c-0.212,0.604-0.257,0.685-2.253,2.365l-4.958,4.057
		l-1.126-1.353l-1.127,0.901l3.605,4.395l1.127-1.015l-1.127-1.353l4.957-4.055c1.902-1.568,2.258-2.011,2.592-2.817
		c0.554-1.487,0.162-3.28-1.127-4.845C266.054,655.85,264.534,655.139,263.129,655.197z M401.481,657.9
		c-1.636-0.037-3.177,0.537-4.394,1.916c-2.416,2.73-1.942,6.417,1.239,9.238c3.182,2.82,6.936,2.957,9.352,0.225
		c2.379-2.694,1.86-6.493-1.239-9.238C404.807,658.595,403.117,657.939,401.481,657.9z M400.355,659.703
		c1.348-0.158,2.926,0.527,4.619,2.028c2.564,2.271,3.19,4.704,1.577,6.534c-1.618,1.826-4.133,1.541-6.76-0.789
		c-2.628-2.324-3.19-4.816-1.577-6.646C398.827,660.137,399.546,659.799,400.355,659.703z M274.17,666.238
		c-0.35-0.013-0.659,0.032-1.015,0.112c-1.054,0.239-1.874,0.762-2.929,1.915l1.352,1.127c1.699-1.682,3.227-1.916,4.619-0.676
		c1.727,1.527,1.353,4.096-0.901,6.646c-2.361,2.668-4.731,3.291-6.534,1.69c-1.356-1.198-1.41-2.542-0.226-4.169l-1.239-1.127
		l-2.816,3.155l1.239,1.126l0.676-0.787c0.081,1.274,0.591,2.279,1.577,3.154c2.587,2.289,6.139,1.667,9.014-1.578
		c2.889-3.271,2.975-6.801,0.226-9.238C276.242,666.729,275.219,666.275,274.17,666.238z M386.384,670.744l-3.493,2.367
		c-2.122,1.464-2.906,2.271-3.492,3.604c-0.96,2.091-0.572,4.493,0.901,6.647c1.334,1.941,3.069,2.988,5.07,3.041
		c1.586,0.041,2.722-0.297,5.069-1.914l3.605-2.592l-0.789-1.127l-1.464,0.902l-5.972-8.789l1.465-0.9L386.384,670.744z
		 M392.806,671.533c-0.484,0-0.982,0.191-1.352,0.563c-0.739,0.739-0.735,1.853,0,2.591c0.738,0.739,1.96,0.739,2.703,0
		c0.739-0.738,0.739-1.852,0-2.591C393.788,671.725,393.29,671.533,392.806,671.533z M384.131,674.125l5.971,8.787l-0.901,0.563
		c-1.474,1.009-2.06,1.267-3.042,1.239c-1.514-0.027-3.051-0.959-4.168-2.592c-1.055-1.536-1.434-3.163-1.127-4.506
		c0.274-1.149,0.919-1.857,2.479-2.93L384.131,674.125z M282.169,678.293c-0.484,0-0.982,0.193-1.352,0.563
		c-0.739,0.739-0.735,1.965,0,2.704c0.738,0.744,1.965,0.744,2.703,0c0.739-0.739,0.739-1.965,0-2.704
		C283.152,678.486,282.654,678.293,282.169,678.293z M292.421,678.969c-2.428-0.102-4.773,1.43-6.196,4.281
		c-1.897,3.809-1.005,7.5,2.254,9.127c3.213,1.607,6.715,0.104,8.563-3.605c1.942-3.908,1.031-7.486-2.254-9.127
		C293.971,679.237,293.231,679.003,292.421,678.969z M292.534,680.659c0.535-0.007,1.032,0.066,1.577,0.338
		c2.208,1.104,2.632,3.52,1.014,6.76c-1.532,3.069-3.785,4.245-5.971,3.155c-2.182-1.092-2.465-3.507-0.901-6.648
		C289.429,681.908,290.927,680.68,292.534,680.659z M370.047,681.109c-0.811-0.01-1.637,0.196-2.479,0.564
		c-3.344,1.455-4.511,5.002-2.816,8.9c1.694,3.902,5.106,5.511,8.45,4.055c3.29-1.433,4.354-4.984,2.704-8.787
		C374.602,682.844,372.481,681.141,370.047,681.109z M369.823,682.688c1.605,0.1,2.974,1.451,4.056,3.943
		c1.365,3.145,0.883,5.674-1.352,6.646c-2.24,0.974-4.35-0.383-5.746-3.605c-1.401-3.222-0.888-5.674,1.352-6.646
		C368.697,682.778,369.287,682.654,369.823,682.688z M307.068,685.616c-0.334,0.032-0.663,0.017-1.014,0.112
		c-2.227,0.568-3.88,2.344-4.619,4.846c-0.672,2.262-0.424,4.38,0.789,5.971c0.973,1.262,1.996,1.893,4.731,2.703l4.281,1.24
		l0.451-1.465l-1.69-0.451l3.042-10.252l1.689,0.563l0.339-1.464l-4.057-1.239C309.156,685.633,308.071,685.519,307.068,685.616z
		 M354.275,686.404c-0.42,0.025-0.795,0.111-1.239,0.227c-1.672,0.428-2.849,1.348-3.38,2.703c-0.388,1.01-0.36,1.861,0,3.381
		l1.689-0.451c-0.437-2.353,0.221-3.7,2.028-4.168c2.23-0.578,4.105,1.104,4.957,4.393c0.888,3.457,0.086,5.706-2.253,6.311
		c-1.749,0.455-2.916-0.254-3.605-2.141l-1.577,0.449l1.014,4.057l1.577-0.338l-0.225-1.014c1.104,0.648,2.217,0.779,3.492,0.45
		c3.344-0.865,4.8-4.138,3.718-8.337C359.521,688.23,357.21,686.233,354.275,686.404z M307.969,687.081
		c0.604,0.004,1.232,0.183,2.141,0.45l0.901,0.226l-3.042,10.14l-1.014-0.225c-1.708-0.506-2.217-0.799-2.816-1.578
		c-0.933-1.193-1.235-2.951-0.676-4.844c0.531-1.794,1.577-3.109,2.816-3.719C306.811,687.275,307.367,687.077,307.969,687.081z
		 M320.25,688.207l-1.24,12.056l-1.689-0.112l-0.226,1.465l5.296,0.563l0.112-1.465l-1.803-0.225l0.451-3.943
		c0.175-2.105,0.238-3.902,0.338-5.521c0.815,2.146,2.077,5.232,2.816,6.986l2.027,4.506l4.057,0.338l0.225-1.465l-1.802-0.111
		l1.014-10.592l1.803,0.113l0.112-1.465l-5.295-0.451l-0.113,1.354l1.803,0.225l-0.338,4.281c-0.059,0.631-0.433,4.164-0.563,6.084
		c-0.202-0.46-0.387-0.979-0.563-1.465c-0.987-2.605-1.177-3.366-2.141-5.633l-2.366-5.295L320.25,688.207z M345.149,688.434
		l-9.914,0.788l0.225,3.718l1.69-0.113l-0.113-2.252l4.395-0.338l0.338,4.844l-4.845,0.451l0.112,1.465l4.845-0.338l0.338,4.168
		l-4.168,0.338l-0.226-1.803l-1.689,0.113l0.225,3.379l9.802-0.788l-0.112-1.465l-1.69,0.112l-0.901-10.59l1.803-0.113
		L345.149,688.434z"/>
</g>
</svg>
