<?xml version="1.0" encoding="utf-8"?>
<!-- Generator: Adobe Illustrator 15.0.0, SVG Export Plug-In . SVG Version: 6.00 Build 0)  -->
<!DOCTYPE svg PUBLIC "-//W3C//DTD SVG 1.1//EN" "http://www.w3.org/Graphics/SVG/1.1/DTD/svg11.dtd">
<svg version="1.1" id="Ebene_1" xmlns="http://www.w3.org/2000/svg" xmlns:xlink="http://www.w3.org/1999/xlink" x="0px" y="0px"
	 width="550px" height="550px" viewBox="0 0 550 550" enable-background="new 0 0 550 550" xml:space="preserve">
<image display="none" overflow="visible" width="600" height="600" xlink:href="inviwo-logo.png"  transform="matrix(0.8001 0 0 0.8001 39 44)">
</image>
<g>
	<polygon fill="#EEBF3F" stroke="#074F66" stroke-width="3" stroke-miterlimit="10" points="218.023,218.321 331.568,218.321 
		331.568,230.408 274.796,259.575 218.023,230.242 	"/>
	<polygon fill="#EEBF3F" stroke="#074F66" stroke-width="3" stroke-miterlimit="10" points="212.984,316.658 260.984,316.658 
		260.984,280.075 212.984,251.658 	"/>
	<polygon fill="#EEBF3F" stroke="#074F66" stroke-width="3" stroke-miterlimit="10" points="336.818,316.658 288.818,316.658 
		288.818,280.075 336.818,251.658 	"/>
	<polygon fill="#074F66" points="187.65,258.242 204.318,267.492 204.318,315.241 80.891,371.752 80.984,167.492 271.984,277.742 
		271.984,495.242 84.818,384.409 212.15,324.575 245.65,324.575 245.65,340.742 212.484,340.742 118.65,385.909 252.15,463.575 
		252.15,283.909 97.484,196.409 97.484,344.909 187.318,305.575 	"/>
	<polygon fill="#074F66" points="362.349,258.242 345.681,267.492 345.681,315.241 469.108,371.752 469.015,167.492 
		278.015,277.742 278.015,495.242 465.181,384.409 337.849,324.575 304.349,324.575 304.349,340.742 337.515,340.742 
		431.349,385.909 297.849,463.575 297.849,283.909 452.515,196.409 452.515,344.909 362.681,305.575 	"/>
	<polygon fill="#074F66" points="465.935,161.388 274.795,271.718 83.654,161.388 268.364,54.758 268.364,210.048 219.524,210.048 
		190.814,193.948 248.314,193.948 248.314,86.758 117.895,159.598 274.795,248.438 431.704,159.598 301.274,86.758 301.274,193.948 
		358.774,193.948 330.064,210.048 281.234,210.048 281.234,54.758 	"/>
</g>
</svg>
